NotoSerifTamil-SemiCondensedExtraBold.ufo
<glyph name="exclam" format="2">
  <advance width="376.91190476190474"/>
  <unicode hex="0021"/>
  <outline>
    <contour>
      <point x="160.54603174603176" y="234.84920634920636" type="line"/>
      <point x="216.7126984126984" y="234.84920634920636" type="line"/>
      <point x="281.6325396825397" y="714.0" type="line"/>
      <point x="95.62619047619049" y="714.0" type="line"/>
    </contour>
    <contour>
      <point x="189.9031746031746" y="-8.18095238095238" type="curve" smooth="yes"/>
      <point x="234.8031746031746" y="-8.18095238095238"/>
      <point x="273.86904761904765" y="12.015079365079366"/>
      <point x="273.86904761904765" y="74.18095238095239" type="curve" smooth="yes"/>
      <point x="273.86904761904765" y="136.81428571428572"/>
      <point x="234.8031746031746" y="156.54285714285712"/>
      <point x="189.9031746031746" y="156.54285714285712" type="curve" smooth="yes"/>
      <point x="142.6563492063492" y="156.54285714285712"/>
      <point x="105.93730158730159" y="136.81428571428572"/>
      <point x="105.93730158730159" y="74.18095238095239" type="curve" smooth="yes"/>
      <point x="105.93730158730159" y="12.015079365079366"/>
      <point x="142.6563492063492" y="-8.18095238095238"/>
    </contour>
  </outline>
</glyph>
<glyph name="quotedbl" format="2">
  <advance width="515.3142857142857"/>
  <unicode hex="0022"/>
  <outline>
    <contour>
      <point x="343.7992063492063" y="429.0904761904762" type="line"/>
      <point x="413.37777777777785" y="429.0904761904762" type="line"/>
      <point x="448.368253968254" y="714.0" type="line"/>
      <point x="282.3119047619047" y="714.0" type="line"/>
    </contour>
    <contour>
      <point x="114.6547619047619" y="429.0904761904762" type="line"/>
      <point x="184.23333333333335" y="429.0904761904762" type="line"/>
      <point x="232.4547619047619" y="714.0" type="line"/>
      <point x="66.59920634920634" y="714.0" type="line"/>
    </contour>
  </outline>
</glyph>
<glyph name="numbersign" format="2">
  <advance width="523.2412698412699"/>
  <unicode hex="0023"/>
  <outline>
    <contour>
      <point x="74.87539682539683" y="0.0" type="line"/>
      <point x="149.75873015873017" y="0.0" type="line"/>
      <point x="187.92460317460316" y="199.23650793650793" type="line"/>
      <point x="275.66349206349213" y="199.23650793650793" type="line"/>
      <point x="239.21111111111108" y="0.0" type="line"/>
      <point x="314.0944444444445" y="0.0" type="line"/>
      <point x="350.7126984126984" y="199.23650793650793" type="line"/>
      <point x="468.3793650793651" y="199.23650793650793" type="line"/>
      <point x="468.3793650793651" y="271.5722222222222" type="line"/>
      <point x="365.64206349206347" y="271.5722222222222" type="line"/>
      <point x="398.71269841269844" y="446.88015873015877" type="line"/>
      <point x="500.3793650793651" y="446.88015873015877" type="line"/>
      <point x="500.3793650793651" y="520.763492063492" type="line"/>
      <point x="412.09444444444443" y="520.763492063492" type="line"/>
      <point x="449.0944444444445" y="714.0" type="line"/>
      <point x="374.2111111111111" y="714.0" type="line"/>
      <point x="337.04523809523806" y="520.763492063492" type="line"/>
      <point x="249.30634920634918" y="520.763492063492" type="line"/>
      <point x="284.75873015873015" y="714.0" type="line"/>
      <point x="208.8753968253968" y="714.0" type="line"/>
      <point x="174.25714285714284" y="520.763492063492" type="line"/>
      <point x="55.06269841269841" y="520.763492063492" type="line"/>
      <point x="55.06269841269841" y="446.88015873015877" type="line"/>
      <point x="160.16190476190476" y="446.88015873015877" type="line"/>
      <point x="126.25714285714287" y="271.5722222222222" type="line"/>
      <point x="23.06269841269841" y="271.5722222222222" type="line"/>
      <point x="23.06269841269841" y="199.23650793650793" type="line"/>
      <point x="112.87539682539683" y="199.23650793650793" type="line"/>
    </contour>
    <contour>
      <point x="201.3063492063492" y="271.5722222222222" type="line"/>
      <point x="235.92460317460316" y="446.88015873015877" type="line"/>
      <point x="324.66349206349213" y="446.88015873015877" type="line"/>
      <point x="290.75873015873015" y="271.5722222222222" type="line"/>
    </contour>
  </outline>
</glyph>
<glyph name="percent" format="2">
  <advance width="851.6119047619047"/>
  <unicode hex="0025"/>
  <outline>
    <contour>
      <point x="227.02619047619046" y="0.0" type="line"/>
      <point x="304.620634920635" y="0.0" type="line"/>
      <point x="621.6658730158731" y="714.0" type="line"/>
      <point x="544.704761904762" y="714.0" type="line"/>
    </contour>
    <contour>
      <point x="202.29206349206348" y="280.0" type="curve" smooth="yes"/>
      <point x="320.17380952380944" y="280.0"/>
      <point x="377.4968253968254" y="369.0"/>
      <point x="377.4968253968254" y="503.0" type="curve"/>
      <point x="377.4968253968254" y="637.0"/>
      <point x="320.17380952380944" y="724.0"/>
      <point x="203.12619047619046" y="724.0" type="curve" smooth="yes"/>
      <point x="78.63095238095238" y="724.0"/>
      <point x="27.288095238095238" y="637.0"/>
      <point x="27.288095238095238" y="503.0" type="curve" smooth="yes"/>
      <point x="27.288095238095238" y="369.0"/>
      <point x="78.63095238095238" y="280.0"/>
    </contour>
    <contour>
      <point x="202.49285714285713" y="332.0" type="curve" smooth="yes"/>
      <point x="158.25" y="332.0"/>
      <point x="141.89761904761906" y="394.5579365079365"/>
      <point x="141.89761904761906" y="503.0" type="curve"/>
      <point x="141.89761904761906" y="609.4420634920635"/>
      <point x="158.25" y="671.0"/>
      <point x="203.12619047619046" y="671.0" type="curve" smooth="yes"/>
      <point x="247.53492063492064" y="671.0"/>
      <point x="261.8873015873015" y="609.4420634920635"/>
      <point x="261.8873015873015" y="503.0" type="curve" smooth="yes"/>
      <point x="261.8873015873015" y="394.5579365079365"/>
      <point x="247.53492063492064" y="332.0"/>
    </contour>
    <contour>
      <point x="649.6666666666667" y="-10.0" type="curve" smooth="yes"/>
      <point x="767.513492063492" y="-10.0"/>
      <point x="824.670634920635" y="79.0"/>
      <point x="824.670634920635" y="213.0" type="curve" smooth="yes"/>
      <point x="824.670634920635" y="347.0"/>
      <point x="767.513492063492" y="434.0"/>
      <point x="650.6666666666667" y="434.0" type="curve" smooth="yes"/>
      <point x="526.1714285714287" y="434.0"/>
      <point x="474.82857142857137" y="347.0"/>
      <point x="474.82857142857137" y="213.0" type="curve" smooth="yes"/>
      <point x="474.82857142857137" y="79.0"/>
      <point x="526.1714285714287" y="-10.0"/>
    </contour>
    <contour>
      <point x="649.6666666666667" y="42.0" type="curve" smooth="yes"/>
      <point x="605.7904761904762" y="42.0"/>
      <point x="589.4380952380953" y="104.55793650793652"/>
      <point x="589.4380952380953" y="213.0" type="curve" smooth="yes"/>
      <point x="589.4380952380953" y="319.4420634920635"/>
      <point x="605.7904761904762" y="381.0"/>
      <point x="650.6666666666669" y="381.0" type="curve" smooth="yes"/>
      <point x="694.7087301587302" y="381.0"/>
      <point x="709.4277777777777" y="319.4420634920635"/>
      <point x="709.4277777777777" y="213.0" type="curve" smooth="yes"/>
      <point x="709.4277777777777" y="104.55793650793652"/>
      <point x="694.7087301587302" y="42.0"/>
    </contour>
  </outline>
</glyph>
<glyph name="quotesingle" format="2">
  <advance width="299.6015873015873"/>
  <unicode hex="0027"/>
  <outline>
    <contour>
      <point x="114.6547619047619" y="429.0904761904762" type="line"/>
      <point x="184.23333333333335" y="429.0904761904762" type="line"/>
      <point x="232.4547619047619" y="714.0" type="line"/>
      <point x="66.59920634920634" y="714.0" type="line"/>
    </contour>
  </outline>
</glyph>
<glyph name="parenleft" format="2">
  <advance width="395.80158730158735"/>
  <unicode hex="0028"/>
  <outline>
    <contour>
      <point x="366.1674603174603" y="-141.71349206349205" type="curve"/>
      <point x="366.1674603174603" y="-73.19603174603174" type="line"/>
      <point x="254.89206349206347" y="8.256349206349206"/>
      <point x="226.56031746031746" y="159.1809523809524"/>
      <point x="226.56031746031746" y="318.1809523809524" type="curve" smooth="yes"/>
      <point x="226.56031746031746" y="476.0"/>
      <point x="254.89206349206347" y="625.376984126984"/>
      <point x="366.1674603174603" y="707.7436507936508" type="curve"/>
      <point x="366.1674603174603" y="775.0603174603175" type="line"/>
      <point x="141.65634920634918" y="682.0904761904761"/>
      <point x="53.16746031746032" y="526.6785714285714"/>
      <point x="53.16746031746032" y="318.1809523809524" type="curve" smooth="yes"/>
      <point x="53.16746031746032" y="108.50238095238096"/>
      <point x="141.65634920634918" y="-48.37698412698413"/>
    </contour>
  </outline>
</glyph>
<glyph name="parenright" format="2">
  <advance width="395.80158730158735"/>
  <unicode hex="0029"/>
  <outline>
    <contour>
      <point x="29.634126984126983" y="-141.71349206349205" type="line"/>
      <point x="254.31111111111113" y="-48.37698412698413"/>
      <point x="342.634126984127" y="108.50238095238096"/>
      <point x="342.634126984127" y="318.1809523809524" type="curve" smooth="yes"/>
      <point x="342.634126984127" y="526.6785714285714"/>
      <point x="254.31111111111113" y="682.0904761904761"/>
      <point x="29.634126984126983" y="775.0603174603175" type="curve"/>
      <point x="29.634126984126983" y="707.7436507936508" type="line"/>
      <point x="140.36190476190473" y="625.376984126984"/>
      <point x="169.24126984126983" y="476.0"/>
      <point x="169.24126984126983" y="318.1809523809524" type="curve" smooth="yes"/>
      <point x="169.24126984126983" y="159.1809523809524"/>
      <point x="140.36190476190473" y="8.256349206349206"/>
      <point x="29.634126984126983" y="-73.19603174603174" type="curve"/>
    </contour>
  </outline>
</glyph>
<glyph name="asterisk" format="2">
  <advance width="468.7619047619048"/>
  <unicode hex="002A"/>
  <outline>
    <contour>
      <point x="180.2015873015873" y="363.5880952380952" type="line"/>
      <point x="293.14285714285717" y="363.5880952380952" type="line"/>
      <point x="257.6047619047619" y="527.7285714285715" type="line"/>
      <point x="395.2873015873016" y="420.84920634920627" type="line"/>
      <point x="441.69999999999993" y="524.5428571428572" type="line"/>
      <point x="301.28809523809525" y="562.211111111111" type="line"/>
      <point x="441.69999999999993" y="599.045238095238" type="line"/>
      <point x="395.2873015873016" y="703.7388888888887" type="line"/>
      <point x="257.6047619047619" y="597.0404761904763" type="line"/>
      <point x="294.32380952380953" y="760.0" type="line"/>
      <point x="180.2015873015873" y="760.0" type="line"/>
      <point x="213.90555555555557" y="594.8595238095238" type="line"/>
      <point x="76.3436507936508" y="705.7388888888887" type="line"/>
      <point x="30.644444444444442" y="600.045238095238" type="line"/>
      <point x="171.22222222222223" y="562.211111111111" type="line"/>
      <point x="30.644444444444442" y="523.5428571428572" type="line"/>
      <point x="76.3436507936508" y="419.84920634920627" type="line"/>
      <point x="212.90555555555557" y="529.4420634920635" type="line"/>
    </contour>
  </outline>
</glyph>
<glyph name="plus" format="2">
  <advance width="509.8666666666667"/>
  <unicode hex="002B"/>
  <outline>
    <contour>
      <point x="216.81031746031746" y="143.0" type="line"/>
      <point x="292.25714285714287" y="143.0" type="line"/>
      <point x="292.25714285714287" y="320.7436507936508" type="line"/>
      <point x="455.5698412698413" y="320.7436507936508" type="line"/>
      <point x="455.5698412698413" y="394.2563492063492" type="line"/>
      <point x="292.25714285714287" y="394.2563492063492" type="line"/>
      <point x="292.25714285714287" y="572.0" type="line"/>
      <point x="216.81031746031746" y="572.0" type="line"/>
      <point x="216.81031746031746" y="394.2563492063492" type="line"/>
      <point x="54.296825396825405" y="394.2563492063492" type="line"/>
      <point x="54.296825396825405" y="320.7436507936508" type="line"/>
      <point x="216.81031746031746" y="320.7436507936508" type="line"/>
    </contour>
  </outline>
</glyph>
<glyph name="comma" format="2">
  <advance width="292.5880952380953"/>
  <unicode hex="002C"/>
  <outline>
    <contour>
      <point x="48.387301587301586" y="-154.0" type="line"/>
      <point x="174.00317460317459" y="-119.53253968253968"/>
      <point x="221.18015873015872" y="-44.230952380952374"/>
      <point x="221.18015873015872" y="39.703968253968256" type="curve" smooth="yes"/>
      <point x="221.18015873015872" y="111.2968253968254"/>
      <point x="191.29444444444442" y="156.54285714285712"/>
      <point x="133.17301587301588" y="156.54285714285712" type="curve" smooth="yes"/>
      <point x="93.06190476190477" y="156.54285714285712"/>
      <point x="59.75" y="131.81428571428572"/>
      <point x="59.75" y="85.9095238095238" type="curve" smooth="yes"/>
      <point x="59.75" y="1.7436507936507926"/>
      <point x="127.68650793650794" y="11.859523809523807"/>
      <point x="127.68650793650794" y="-24.713492063492062" type="curve" smooth="yes"/>
      <point x="127.68650793650794" y="-61.573015873015876"/>
      <point x="99.6857142857143" y="-79.36666666666667"/>
      <point x="48.387301587301586" y="-100.00000000000001" type="curve"/>
    </contour>
  </outline>
</glyph>
<glyph name="hyphen" format="2">
  <advance width="290.3047619047619"/>
  <unicode hex="002D"/>
  <outline>
    <contour>
      <point x="23.53333333333333" y="216.21111111111114" type="line"/>
      <point x="266.9373015873016" y="216.21111111111114" type="line"/>
      <point x="266.9373015873016" y="328.7888888888889" type="line"/>
      <point x="23.53333333333333" y="328.7888888888889" type="line"/>
    </contour>
  </outline>
</glyph>
<glyph name="period" format="2">
  <advance width="292.5880952380953"/>
  <unicode hex="002E"/>
  <outline>
    <contour>
      <point x="146.19365079365082" y="-8.18095238095238" type="curve" smooth="yes"/>
      <point x="191.09365079365077" y="-8.18095238095238"/>
      <point x="230.5261904761905" y="12.015079365079366"/>
      <point x="230.5261904761905" y="74.18095238095239" type="curve" smooth="yes"/>
      <point x="230.5261904761905" y="136.81428571428572"/>
      <point x="191.09365079365077" y="156.54285714285712"/>
      <point x="146.19365079365082" y="156.54285714285712" type="curve" smooth="yes"/>
      <point x="98.9468253968254" y="156.54285714285712"/>
      <point x="62.061904761904756" y="136.81428571428572"/>
      <point x="62.061904761904756" y="74.18095238095239" type="curve" smooth="yes"/>
      <point x="62.061904761904756" y="12.015079365079366"/>
      <point x="98.9468253968254" y="-8.18095238095238"/>
    </contour>
  </outline>
</glyph>
<glyph name="slash" format="2">
  <advance width="269.5706349206349"/>
  <unicode hex="002F"/>
  <outline>
    <contour>
      <point x="0.0" y="-121.0" type="line"/>
      <point x="73.04126984126985" y="-121.0" type="line"/>
      <point x="269.5706349206349" y="760.0" type="line"/>
      <point x="199.24285714285713" y="760.0" type="line"/>
    </contour>
  </outline>
</glyph>
<glyph name="zero" format="2">
  <advance width="523.2412698412699"/>
  <unicode hex="0030"/>
  <outline>
    <contour>
      <point x="261.9373015873016" y="-10.0" type="curve" smooth="yes"/>
      <point x="432.0214285714286" y="-10.0"/>
      <point x="495.42063492063494" y="135.23650793650793"/>
      <point x="495.42063492063494" y="358.0" type="curve" smooth="yes"/>
      <point x="495.42063492063494" y="582.1301587301588"/>
      <point x="432.18730158730165" y="724.0"/>
      <point x="262.9373015873016" y="724.0" type="curve" smooth="yes"/>
      <point x="83.42063492063491" y="724.0"/>
      <point x="27.288095238095238" y="581.2309523809523"/>
      <point x="27.288095238095238" y="359.0" type="curve" smooth="yes"/>
      <point x="27.288095238095238" y="134.70396825396824"/>
      <point x="83.58650793650794" y="-10.0"/>
    </contour>
    <contour>
      <point x="261.9373015873016" y="57.346825396825395" type="curve" smooth="yes"/>
      <point x="201.02936507936508" y="57.346825396825395"/>
      <point x="192.34444444444446" y="168.27142857142857"/>
      <point x="192.34444444444446" y="358.0" type="curve" smooth="yes"/>
      <point x="192.34444444444446" y="547.7285714285715"/>
      <point x="201.02936507936508" y="656.6531746031745"/>
      <point x="262.9373015873016" y="656.6531746031745" type="curve" smooth="yes"/>
      <point x="322.131746031746" y="656.6531746031745"/>
      <point x="330.3492063492063" y="547.7285714285715"/>
      <point x="330.3492063492063" y="358.0" type="curve" smooth="yes"/>
      <point x="330.3492063492063" y="168.27142857142857"/>
      <point x="322.131746031746" y="57.346825396825395"/>
    </contour>
  </outline>
</glyph>
<glyph name="one" format="2">
  <advance width="523.2412698412699"/>
  <unicode hex="0031"/>
  <outline>
    <contour>
      <point x="79.12460317460315" y="0.0" type="line"/>
      <point x="483.61031746031756" y="0.0" type="line"/>
      <point x="483.61031746031756" y="55.71349206349206" type="line"/>
      <point x="416.4507936507937" y="55.71349206349206" type="line" smooth="yes"/>
      <point x="378.4944444444444" y="55.71349206349206"/>
      <point x="365.89761904761906" y="81.5531746031746"/>
      <point x="365.89761904761906" y="118.9095238095238" type="curve" smooth="yes"/>
      <point x="365.89761904761906" y="718.0" type="line"/>
      <point x="242.33492063492065" y="718.0" type="line"/>
      <point x="176.90079365079364" y="667.3007936507936" type="line" smooth="yes"/>
      <point x="114.53253968253968" y="618.8682539682541"/>
      <point x="66.9484126984127" y="601.2349206349207"/>
      <point x="29.68095238095238" y="591.2349206349207" type="curve"/>
      <point x="29.68095238095238" y="542.6269841269841"/>
      <point x="55.837301587301596" y="512.1896825396825"/>
      <point x="86.93333333333332" y="512.1896825396825" type="curve" smooth="yes"/>
      <point x="124.56746031746032" y="512.1896825396825"/>
      <point x="160.93492063492062" y="550.9857142857144"/>
      <point x="207.90158730158728" y="611.5190476190477" type="curve"/>
      <point x="207.90158730158728" y="118.9095238095238" type="line" smooth="yes"/>
      <point x="207.90158730158728" y="71.58333333333334"/>
      <point x="189.35000000000002" y="55.71349206349206"/>
      <point x="157.98174603174607" y="55.71349206349206" type="curve" smooth="yes"/>
      <point x="79.12460317460315" y="55.71349206349206" type="line"/>
    </contour>
  </outline>
</glyph>
<glyph name="two" format="2">
  <advance width="523.2412698412699"/>
  <unicode hex="0032"/>
  <outline>
    <contour>
      <point x="28.61984126984127" y="0.0" type="line"/>
      <point x="486.6857142857143" y="0.0" type="line"/>
      <point x="491.3190476190477" y="219.38174603174608" type="line"/>
      <point x="428.9365079365079" y="219.38174603174608" type="line"/>
      <point x="419.8611111111111" y="184.9547619047619" type="line" smooth="yes"/>
      <point x="407.51428571428573" y="138.12063492063493"/>
      <point x="373.5444444444444" y="117.57777777777778"/>
      <point x="342.87380952380954" y="117.57777777777778" type="curve" smooth="yes"/>
      <point x="135.931746031746" y="117.57777777777778" type="line"/>
      <point x="219.26587301587298" y="200.00238095238095" type="line" smooth="yes"/>
      <point x="412.8563492063492" y="372.93412698412703"/>
      <point x="468.318253968254" y="450.3111111111111"/>
      <point x="468.318253968254" y="552.2769841269841" type="curve" smooth="yes"/>
      <point x="468.318253968254" y="655.8246031746032"/>
      <point x="391.9896825396825" y="724.0"/>
      <point x="243.08253968253968" y="724.0" type="curve" smooth="yes"/>
      <point x="99.365873015873" y="724.0"/>
      <point x="30.263492063492066" y="653.1261904761905"/>
      <point x="30.263492063492066" y="583.2666666666668" type="curve" smooth="yes"/>
      <point x="30.263492063492066" y="508.1761904761904"/>
      <point x="90.67539682539683" y="486.3563492063492"/>
      <point x="162.05873015873016" y="486.3563492063492" type="curve"/>
      <point x="162.05873015873016" y="609.3563492063493"/>
      <point x="188.35555555555555" y="660.286507936508"/>
      <point x="243.08253968253968" y="660.286507936508" type="curve" smooth="yes"/>
      <point x="279.4769841269842" y="660.286507936508"/>
      <point x="307.0960317460317" y="630.6230158730159"/>
      <point x="307.0960317460317" y="550.161111111111" type="curve" smooth="yes"/>
      <point x="307.0960317460317" y="447.54761904761904"/>
      <point x="275.93015873015867" y="375.72063492063495"/>
      <point x="157.70079365079366" y="246.30396825396824" type="curve" smooth="yes"/>
      <point x="28.61984126984127" y="104.5079365079365" type="line"/>
    </contour>
  </outline>
</glyph>
<glyph name="three" format="2">
  <advance width="523.2412698412699"/>
  <unicode hex="0033"/>
  <outline>
    <contour>
      <point x="227.63492063492063" y="-10.0" type="curve" smooth="yes"/>
      <point x="366.60714285714283" y="-10.0"/>
      <point x="490.9373015873016" y="43.0"/>
      <point x="490.9373015873016" y="205.115873015873" type="curve" smooth="yes"/>
      <point x="490.9373015873016" y="314.91507936507935"/>
      <point x="405.5722222222222" y="363.4976190476191"/>
      <point x="327.4698412698412" y="380.4674603174603" type="curve"/>
      <point x="406.31666666666666" y="411.2714285714286"/>
      <point x="467.4039682539683" y="469.02539682539685"/>
      <point x="467.4039682539683" y="559.0253968253967" type="curve" smooth="yes"/>
      <point x="467.4039682539683" y="664.452380952381"/>
      <point x="382.24603174603175" y="724.0"/>
      <point x="243.17301587301588" y="724.0" type="curve" smooth="yes"/>
      <point x="100.00396825396824" y="724.0"/>
      <point x="31.1626984126984" y="659.9555555555556"/>
      <point x="31.1626984126984" y="591.1111111111111" type="curve" smooth="yes"/>
      <point x="31.1626984126984" y="528.6436507936506"/>
      <point x="80.63571428571427" y="504.0150793650794"/>
      <point x="158.1547619047619" y="504.0150793650794" type="curve"/>
      <point x="158.1547619047619" y="582.381746031746"/>
      <point x="176.8936507936508" y="660.286507936508"/>
      <point x="236.23333333333335" y="660.286507936508" type="curve" smooth="yes"/>
      <point x="277.92936507936514" y="660.286507936508"/>
      <point x="304.7142857142857" y="616.4674603174602"/>
      <point x="304.7142857142857" y="546.2714285714286" type="curve" smooth="yes"/>
      <point x="304.7142857142857" y="459.9095238095238"/>
      <point x="278.1388888888889" y="401.6230158730159"/>
      <point x="198.15158730158728" y="401.6230158730159" type="curve"/>
      <point x="128.5730158730159" y="401.6230158730159" type="line"/>
      <point x="128.5730158730159" y="337.27619047619044" type="line"/>
      <point x="192.9103174603175" y="337.27619047619044" type="line" smooth="yes"/>
      <point x="281.61746031746037" y="337.27619047619044"/>
      <point x="327.2476190476191" y="281.90952380952376"/>
      <point x="327.2476190476191" y="206.115873015873" type="curve" smooth="yes"/>
      <point x="327.2476190476191" y="93.80396825396825"/>
      <point x="277.60714285714283" y="63.969841269841275"/>
      <point x="222.04682539682543" y="63.969841269841275" type="curve" smooth="yes"/>
      <point x="157.23015873015873" y="63.969841269841275"/>
      <point x="108.8873015873016" y="111.0547619047619"/>
      <point x="108.8873015873016" y="199.8436507936508" type="curve"/>
      <point x="62.36904761904761" y="199.8436507936508"/>
      <point x="20.49444444444444" y="172.315873015873"/>
      <point x="20.49444444444444" y="118.60238095238095" type="curve" smooth="yes"/>
      <point x="20.49444444444444" y="46.6484126984127"/>
      <point x="78.70238095238096" y="-10.0"/>
    </contour>
  </outline>
</glyph>
<glyph name="four" format="2">
  <advance width="523.2412698412699"/>
  <unicode hex="0034"/>
  <outline>
    <contour>
      <point x="154.56984126984125" y="0.0" type="line"/>
      <point x="503.0285714285716" y="0.0" type="line"/>
      <point x="503.0285714285716" y="55.71349206349206" type="line"/>
      <point x="490.76190476190476" y="55.71349206349206" type="line" smooth="yes"/>
      <point x="448.69523809523804" y="55.71349206349206"/>
      <point x="414.0611111111111" y="64.71349206349207"/>
      <point x="414.0611111111111" y="127.71349206349205" type="curve" smooth="yes"/>
      <point x="414.0611111111111" y="183.83412698412698" type="line"/>
      <point x="503.18571428571425" y="183.83412698412698" type="line"/>
      <point x="503.18571428571425" y="252.0" type="line"/>
      <point x="414.0611111111111" y="252.0" type="line"/>
      <point x="414.0611111111111" y="714.0" type="line"/>
      <point x="264.77460317460316" y="714.0" type="line"/>
      <point x="10.824603174603176" y="249.16587301587302" type="line"/>
      <point x="10.824603174603176" y="183.83412698412698" type="line"/>
      <point x="257.6380952380953" y="183.83412698412698" type="line"/>
      <point x="257.6380952380953" y="127.71349206349205" type="line" smooth="yes"/>
      <point x="257.6380952380953" y="64.71349206349207"/>
      <point x="223.00396825396825" y="55.71349206349206"/>
      <point x="180.9373015873016" y="55.71349206349206" type="curve" smooth="yes"/>
      <point x="154.56984126984125" y="55.71349206349206" type="line"/>
    </contour>
    <contour>
      <point x="84.1373015873016" y="252.0" type="line"/>
      <point x="196.11825396825395" y="463.2849206349207" type="line" smooth="yes"/>
      <point x="211.23730158730157" y="493.6119047619048"/>
      <point x="250.48333333333332" y="572.1960317460317"/>
      <point x="264.45238095238096" y="610.0420634920634" type="curve"/>
      <point x="259.61825396825395" y="548.0420634920634"/>
      <point x="257.9849206349206" y="486.00317460317456"/>
      <point x="257.9849206349206" y="428.00317460317456" type="curve" smooth="yes"/>
      <point x="257.9849206349206" y="252.0" type="line"/>
    </contour>
  </outline>
</glyph>
<glyph name="five" format="2">
  <advance width="523.2412698412699"/>
  <unicode hex="0035"/>
  <outline>
    <contour>
      <point x="229.8507936507937" y="-10.0" type="curve" smooth="yes"/>
      <point x="330.1825396825397" y="-10.0"/>
      <point x="481.48492063492057" y="37.79920634920635"/>
      <point x="481.48492063492057" y="220.18095238095236" type="curve" smooth="yes"/>
      <point x="481.48492063492057" y="363.9095238095238"/>
      <point x="385.7888888888889" y="435.6230158730159"/>
      <point x="230.35396825396828" y="435.6230158730159" type="curve" smooth="yes"/>
      <point x="199.79920634920634" y="435.6230158730159"/>
      <point x="150.76825396825396" y="428.80396825396826"/>
      <point x="130.35555555555553" y="420.09047619047624" type="curve"/>
      <point x="145.46111111111114" y="596.9698412698414" type="line"/>
      <point x="344.2706349206349" y="596.9698412698414" type="line" smooth="yes"/>
      <point x="370.6388888888889" y="596.9698412698414"/>
      <point x="377.7" y="583.1357142857142"/>
      <point x="384.43333333333334" y="558.2666666666667" type="curve" smooth="yes"/>
      <point x="393.3626984126984" y="524.4222222222223" type="line"/>
      <point x="453.197619047619" y="524.4222222222223" type="line"/>
      <point x="448.7301587301587" y="714.1809523809524" type="line"/>
      <point x="87.71587301587303" y="714.1809523809524" type="line"/>
      <point x="56.41428571428572" y="370.86428571428576" type="line"/>
      <point x="98.35476190476192" y="349.8190476190476" type="line"/>
      <point x="128.8777777777778" y="357.9246031746032"/>
      <point x="158.05476190476188" y="367.27619047619044"/>
      <point x="197.86111111111111" y="367.27619047619044" type="curve" smooth="yes"/>
      <point x="275.87380952380954" y="367.27619047619044"/>
      <point x="318.9761904761905" y="319.27142857142854"/>
      <point x="318.9761904761905" y="220.18095238095236" type="curve" smooth="yes"/>
      <point x="318.9761904761905" y="97.5579365079365"/>
      <point x="267.25079365079364" y="61.6484126984127"/>
      <point x="211.43888888888887" y="61.6484126984127" type="curve" smooth="yes"/>
      <point x="134.90396825396823" y="61.6484126984127"/>
      <point x="113.22936507936507" y="131.2761904761905"/>
      <point x="113.22936507936507" y="188.80873015873016" type="curve"/>
      <point x="66.33888888888889" y="188.80873015873016"/>
      <point x="31.479365079365078" y="164.92936507936508"/>
      <point x="31.479365079365078" y="117.11031746031745" type="curve" smooth="yes"/>
      <point x="31.479365079365078" y="50.42698412698413"/>
      <point x="88.25396825396825" y="-10.0"/>
    </contour>
  </outline>
</glyph>
<glyph name="six" format="2">
  <advance width="523.2412698412699"/>
  <unicode hex="0036"/>
  <outline>
    <contour>
      <point x="274.20396825396824" y="-10.0" type="curve" smooth="yes"/>
      <point x="422.8753968253968" y="-10.0"/>
      <point x="496.9428571428572" y="88.0"/>
      <point x="496.9428571428572" y="231.18095238095236" type="curve" smooth="yes"/>
      <point x="496.9428571428572" y="361.9095238095238"/>
      <point x="422.8753968253968" y="438.9095238095238"/>
      <point x="309.87222222222226" y="438.9095238095238" type="curve" smooth="yes"/>
      <point x="245.01111111111112" y="438.9095238095238"/>
      <point x="212.41666666666669" y="419.41190476190485"/>
      <point x="186.75714285714287" y="402.7031746031746" type="curve"/>
      <point x="194.6063492063492" y="565.5825396825396"/>
      <point x="229.63888888888889" y="662.286507936508"/>
      <point x="294.6825396825397" y="662.286507936508" type="curve" smooth="yes"/>
      <point x="340.036507936508" y="662.286507936508"/>
      <point x="359.23730158730154" y="598.9690476190477"/>
      <point x="359.23730158730154" y="530.2261904761905" type="curve"/>
      <point x="447.2936507936508" y="530.2261904761905"/>
      <point x="478.90238095238095" y="567.2666666666668"/>
      <point x="478.90238095238095" y="612.376984126984" type="curve" smooth="yes"/>
      <point x="478.90238095238095" y="670.8190476190476"/>
      <point x="428.8611111111111" y="724.0"/>
      <point x="301.0095238095237" y="724.0" type="curve" smooth="yes"/>
      <point x="123.39126984126985" y="724.0"/>
      <point x="35.56507936507936" y="569.9309523809524"/>
      <point x="35.56507936507936" y="330.884126984127" type="curve" smooth="yes"/>
      <point x="35.56507936507936" y="97.0"/>
      <point x="129.9142857142857" y="-10.0"/>
    </contour>
    <contour>
      <point x="277.0380952380952" y="58.18095238095238" type="curve" smooth="yes"/>
      <point x="227.46746031746036" y="58.18095238095238"/>
      <point x="187.95793650793652" y="144.29444444444442"/>
      <point x="187.3047619047619" y="333.07857142857137" type="curve"/>
      <point x="205.6174603174603" y="352.547619047619"/>
      <point x="237.93730158730156" y="373.0404761904762"/>
      <point x="268.90238095238095" y="373.0404761904762" type="curve" smooth="yes"/>
      <point x="314.12619047619046" y="373.0404761904762"/>
      <point x="344.0571428571428" y="328.0904761904762"/>
      <point x="344.0571428571428" y="221.18095238095236" type="curve" smooth="yes"/>
      <point x="344.0571428571428" y="107.81904761904762"/>
      <point x="316.96031746031747" y="58.18095238095238"/>
    </contour>
  </outline>
</glyph>
<glyph name="seven" format="2">
  <advance width="523.2412698412699"/>
  <unicode hex="0037"/>
  <outline>
    <contour>
      <point x="140.60396825396828" y="0.0" type="line"/>
      <point x="235.74523809523808" y="0.0" type="line"/>
      <point x="488.57698412698414" y="660.1357142857144" type="line"/>
      <point x="488.57698412698414" y="714.1809523809524" type="line"/>
      <point x="44.79047619047619" y="714.1809523809524" type="line"/>
      <point x="39.79047619047619" y="496.60317460317464" type="line"/>
      <point x="103.33888888888889" y="496.60317460317464" type="line"/>
      <point x="110.06746031746033" y="546.0706349206349" type="line" smooth="yes"/>
      <point x="114.61507936507938" y="579.9698412698413"/>
      <point x="130.43492063492067" y="597.6031746031746"/>
      <point x="164.23492063492068" y="597.6031746031746" type="curve" smooth="yes"/>
      <point x="396.10793650793653" y="597.6031746031746" type="line"/>
    </contour>
  </outline>
</glyph>
<glyph name="eight" format="2">
  <advance width="523.2412698412699"/>
  <unicode hex="0038"/>
  <outline>
    <contour>
      <point x="255.83650793650796" y="-10.0" type="curve" smooth="yes"/>
      <point x="412.2269841269841" y="-10.0"/>
      <point x="501.5761904761905" y="67.65793650793651"/>
      <point x="501.5761904761905" y="186.6888888888889" type="curve" smooth="yes"/>
      <point x="501.5761904761905" y="279.9888888888889"/>
      <point x="459.8357142857143" y="333.28095238095233"/>
      <point x="351.35" y="389.6984126984127" type="curve"/>
      <point x="429.23174603174607" y="427.7039682539683"/>
      <point x="476.15793650793654" y="471.3365079365079"/>
      <point x="476.15793650793654" y="557.0293650793651" type="curve" smooth="yes"/>
      <point x="476.15793650793654" y="650.3515873015873"/>
      <point x="406.402380952381" y="724.0"/>
      <point x="267.665873015873" y="724.0" type="curve" smooth="yes"/>
      <point x="105.05396825396826" y="724.0"/>
      <point x="43.198412698412696" y="639.9793650793649"/>
      <point x="43.198412698412696" y="541.8039682539683" type="curve" smooth="yes"/>
      <point x="43.198412698412696" y="455.2420634920635"/>
      <point x="88.89285714285714" y="403.78412698412706"/>
      <point x="163.0809523809524" y="360.8039682539682" type="curve"/>
      <point x="81.62619047619047" y="326.0944444444445"/>
      <point x="21.830952380952386" y="275.315873015873"/>
      <point x="21.830952380952386" y="176.1261904761905" type="curve" smooth="yes"/>
      <point x="21.830952380952386" y="75.64841269841268"/>
      <point x="92.18492063492063" y="-10.0"/>
    </contour>
    <contour>
      <point x="260.30396825396826" y="51.30634920634921" type="curve" smooth="yes"/>
      <point x="204.64761904761903" y="51.30634920634921"/>
      <point x="162.9277777777778" y="96.0809523809524"/>
      <point x="162.9277777777778" y="181.7634920634921" type="curve" smooth="yes"/>
      <point x="162.9277777777778" y="247.81904761904764"/>
      <point x="186.66825396825396" y="291.9746031746032"/>
      <point x="222.94682539682543" y="322.3865079365079" type="curve"/>
      <point x="305.1325396825397" y="277.91904761904766"/>
      <point x="348.05317460317457" y="232.52301587301588"/>
      <point x="348.05317460317457" y="167.71904761904764" type="curve" smooth="yes"/>
      <point x="348.05317460317457" y="95.26190476190476"/>
      <point x="312.5936507936508" y="51.30634920634921"/>
    </contour>
    <contour>
      <point x="287.4801587301587" y="423.1960317460318" type="curve"/>
      <point x="229.64285714285714" y="452.66349206349213"/>
      <point x="193.89285714285714" y="490.00476190476195"/>
      <point x="193.89285714285714" y="559.1753968253968" type="curve" smooth="yes"/>
      <point x="193.89285714285714" y="621.9190476190477"/>
      <point x="217.9142857142857" y="662.7539682539682"/>
      <point x="263.9722222222223" y="662.7539682539682" type="curve" smooth="yes"/>
      <point x="312.64841269841264" y="662.7539682539682"/>
      <point x="340.1269841269841" y="613.5269841269842"/>
      <point x="340.1269841269841" y="554.5674603174604" type="curve" smooth="yes"/>
      <point x="340.1269841269841" y="485.5476190476191"/>
      <point x="319.88015873015877" y="447.95000000000005"/>
    </contour>
  </outline>
</glyph>
<glyph name="nine" format="2">
  <advance width="523.2412698412699"/>
  <unicode hex="0039"/>
  <outline>
    <contour>
      <point x="212.40317460317462" y="-9.81904761904762" type="curve"/>
      <point x="408.61904761904765" y="-9.81904761904762"/>
      <point x="487.6761904761904" y="161.7746031746032"/>
      <point x="487.6761904761904" y="388.0" type="curve"/>
      <point x="487.6761904761904" y="626.1690476190477"/>
      <point x="385.8246031746031" y="724.0"/>
      <point x="246.32380952380953" y="724.0" type="curve" smooth="yes"/>
      <point x="108.65714285714287" y="724.0"/>
      <point x="26.2984126984127" y="627.4420634920637"/>
      <point x="26.2984126984127" y="484.1404761904762" type="curve" smooth="yes"/>
      <point x="26.2984126984127" y="349.67301587301586"/>
      <point x="102.19999999999999" y="276.0650793650793"/>
      <point x="208.9873015873016" y="276.0650793650793" type="curve" smooth="yes"/>
      <point x="273.7880952380952" y="276.0650793650793"/>
      <point x="311.99603174603175" y="302.45317460317466"/>
      <point x="341.7253968253968" y="340.8960317460317" type="curve"/>
      <point x="335.0920634920635" y="153.33174603174604"/>
      <point x="294.48730158730154" y="55.532539682539685"/>
      <point x="219.17698412698414" y="55.532539682539685" type="curve" smooth="yes"/>
      <point x="154.2357142857143" y="55.532539682539685"/>
      <point x="128.15873015873018" y="108.44682539682539"/>
      <point x="109.71111111111111" y="173.13015873015874" type="curve"/>
      <point x="67.62619047619049" y="165.41666666666666"/>
      <point x="51.57063492063493" y="135.11587301587304"/>
      <point x="51.57063492063493" y="105.04047619047618" type="curve" smooth="yes"/>
      <point x="51.57063492063493" y="44.25158730158731"/>
      <point x="96.14920634920634" y="-9.81904761904762"/>
    </contour>
    <contour>
      <point x="258.2785714285714" y="350.0753968253968" type="curve" smooth="yes"/>
      <point x="205.934126984127" y="350.0753968253968"/>
      <point x="178.47063492063492" y="401.7484126984127"/>
      <point x="178.47063492063492" y="488.0" type="curve" smooth="yes"/>
      <point x="178.47063492063492" y="598.7436507936508"/>
      <point x="206.22063492063492" y="654.4722222222222"/>
      <point x="254.82619047619048" y="654.4722222222222" type="curve" smooth="yes"/>
      <point x="308.00476190476195" y="654.4722222222222"/>
      <point x="340.09206349206346" y="583.9380952380952"/>
      <point x="341.37857142857143" y="408.3539682539682" type="curve"/>
      <point x="321.8809523809524" y="372.67936507936514"/>
      <point x="292.05" y="350.0753968253968"/>
    </contour>
  </outline>
</glyph>
<glyph name="colon" format="2">
  <advance width="291.05714285714294"/>
  <unicode hex="003A"/>
  <outline>
    <contour>
      <point x="145.08888888888887" y="379.9547619047618" type="curve" smooth="yes"/>
      <point x="189.78809523809525" y="379.9547619047618"/>
      <point x="229.22063492063492" y="400.31666666666666"/>
      <point x="229.22063492063492" y="462.3166666666666" type="curve" smooth="yes"/>
      <point x="229.22063492063492" y="525.1158730158731"/>
      <point x="189.78809523809525" y="544.6785714285716"/>
      <point x="145.08888888888887" y="544.6785714285716" type="curve" smooth="yes"/>
      <point x="97.84206349206349" y="544.6785714285716"/>
      <point x="61.123015873015866" y="525.1158730158731"/>
      <point x="61.123015873015866" y="462.3166666666666" type="curve" smooth="yes"/>
      <point x="61.123015873015866" y="400.31666666666666"/>
      <point x="97.84206349206349" y="379.9547619047618"/>
    </contour>
    <contour>
      <point x="145.08888888888887" y="-8.18095238095238" type="curve" smooth="yes"/>
      <point x="189.78809523809525" y="-8.18095238095238"/>
      <point x="229.22063492063492" y="12.015079365079366"/>
      <point x="229.22063492063492" y="74.18095238095239" type="curve" smooth="yes"/>
      <point x="229.22063492063492" y="136.81428571428572"/>
      <point x="189.78809523809525" y="156.54285714285712"/>
      <point x="145.08888888888887" y="156.54285714285712" type="curve" smooth="yes"/>
      <point x="97.84206349206349" y="156.54285714285712"/>
      <point x="61.123015873015866" y="136.81428571428572"/>
      <point x="61.123015873015866" y="74.18095238095239" type="curve" smooth="yes"/>
      <point x="61.123015873015866" y="12.015079365079366"/>
      <point x="97.84206349206349" y="-8.18095238095238"/>
    </contour>
  </outline>
</glyph>
<glyph name="semicolon" format="2">
  <advance width="291.05714285714294"/>
  <unicode hex="003B"/>
  <outline>
    <contour>
      <point x="52.810317460317464" y="-154.0" type="line"/>
      <point x="178.62698412698413" y="-119.53253968253968"/>
      <point x="225.8039682539683" y="-44.230952380952374"/>
      <point x="225.8039682539683" y="39.703968253968256" type="curve" smooth="yes"/>
      <point x="225.8039682539683" y="111.2968253968254"/>
      <point x="196.084126984127" y="156.54285714285712"/>
      <point x="137.59603174603177" y="156.54285714285712" type="curve" smooth="yes"/>
      <point x="97.8515873015873" y="156.54285714285712"/>
      <point x="64.53968253968253" y="131.81428571428572"/>
      <point x="64.53968253968253" y="85.9095238095238" type="curve" smooth="yes"/>
      <point x="64.53968253968253" y="1.7436507936507926"/>
      <point x="132.47619047619048" y="11.859523809523807"/>
      <point x="132.47619047619048" y="-24.713492063492062" type="curve" smooth="yes"/>
      <point x="132.47619047619048" y="-62.83412698412699"/>
      <point x="104.47539682539681" y="-79.36666666666667"/>
      <point x="52.810317460317464" y="-100.00000000000001" type="curve"/>
    </contour>
    <contour>
      <point x="145.08888888888887" y="379.9547619047618" type="curve" smooth="yes"/>
      <point x="190.15476190476193" y="379.9547619047618"/>
      <point x="229.22063492063492" y="400.31666666666666"/>
      <point x="229.22063492063492" y="462.3166666666666" type="curve" smooth="yes"/>
      <point x="229.22063492063492" y="525.1158730158731"/>
      <point x="190.15476190476193" y="544.6785714285716"/>
      <point x="145.08888888888887" y="544.6785714285716" type="curve" smooth="yes"/>
      <point x="97.84206349206349" y="544.6785714285716"/>
      <point x="61.123015873015866" y="525.1158730158731"/>
      <point x="61.123015873015866" y="462.3166666666666" type="curve" smooth="yes"/>
      <point x="61.123015873015866" y="400.31666666666666"/>
      <point x="97.84206349206349" y="379.9547619047618"/>
    </contour>
  </outline>
</glyph>
<glyph name="less" format="2">
  <advance width="509.8666666666667"/>
  <unicode hex="003C"/>
  <outline>
    <contour>
      <point x="455.5698412698413" y="102.74365079365079" type="line"/>
      <point x="455.5698412698413" y="184.82380952380953" type="line"/>
      <point x="159.60555555555555" y="357.0" type="line"/>
      <point x="455.5698412698413" y="531.1761904761905" type="line"/>
      <point x="455.5698412698413" y="613.2563492063492" type="line"/>
      <point x="54.296825396825405" y="378.72857142857146" type="line"/>
      <point x="54.296825396825405" y="336.27142857142854" type="line"/>
    </contour>
  </outline>
</glyph>
<glyph name="equal" format="2">
  <advance width="509.8666666666667"/>
  <unicode hex="003D"/>
  <outline>
    <contour>
      <point x="51.749206349206354" y="414.22777777777776" type="line"/>
      <point x="458.4642857142857" y="414.22777777777776" type="line"/>
      <point x="458.4642857142857" y="487.10714285714283" type="line"/>
      <point x="51.749206349206354" y="487.10714285714283" type="line"/>
    </contour>
    <contour>
      <point x="51.749206349206354" y="226.89285714285717" type="line"/>
      <point x="458.4642857142857" y="226.89285714285717" type="line"/>
      <point x="458.4642857142857" y="299.77222222222224" type="line"/>
      <point x="51.749206349206354" y="299.77222222222224" type="line"/>
    </contour>
  </outline>
</glyph>
<glyph name="question" format="2">
  <advance width="535.1928571428572"/>
  <unicode hex="003F"/>
  <outline>
    <contour>
      <point x="210.6579365079365" y="230.90952380952382" type="line"/>
      <point x="266.83015873015876" y="230.90952380952382" type="line"/>
      <point x="294.3373015873016" y="321.8539682539683" type="line"/>
      <point x="422.0238095238095" y="377.76349206349204"/>
      <point x="481.8849206349206" y="433.5325396825397"/>
      <point x="481.8849206349206" y="539.8039682539684" type="curve" smooth="yes"/>
      <point x="481.8849206349206" y="655.9849206349207"/>
      <point x="386.5055555555556" y="724.0"/>
      <point x="242.4126984126984" y="724.0" type="curve" smooth="yes"/>
      <point x="97.99285714285715" y="724.0"/>
      <point x="32.810317460317464" y="665.8547619047617"/>
      <point x="32.810317460317464" y="604.0555555555555" type="curve" smooth="yes"/>
      <point x="32.810317460317464" y="546.8603174603174"/>
      <point x="87.36428571428573" y="527.5936507936508"/>
      <point x="177.45" y="527.5936507936508" type="curve"/>
      <point x="177.45" y="609.5420634920634"/>
      <point x="198.4904761904762" y="661.286507936508"/>
      <point x="245.41825396825394" y="661.286507936508" type="curve" smooth="yes"/>
      <point x="288.09444444444443" y="661.286507936508"/>
      <point x="310.29126984126987" y="616.0706349206349"/>
      <point x="310.29126984126987" y="553.161111111111" type="curve" smooth="yes"/>
      <point x="310.29126984126987" y="473.4428571428572"/>
      <point x="289.47063492063495" y="395.40714285714284"/>
      <point x="183.3166666666667" y="349.7539682539682" type="curve"/>
    </contour>
    <contour>
      <point x="236.77936507936508" y="-8.18095238095238" type="curve" smooth="yes"/>
      <point x="281.6793650793651" y="-8.18095238095238"/>
      <point x="320.9111111111111" y="12.015079365079366"/>
      <point x="320.9111111111111" y="74.18095238095239" type="curve" smooth="yes"/>
      <point x="320.9111111111111" y="136.81428571428572"/>
      <point x="281.6793650793651" y="156.54285714285712"/>
      <point x="236.77936507936508" y="156.54285714285712" type="curve" smooth="yes"/>
      <point x="189.5325396825397" y="156.54285714285712"/>
      <point x="152.64761904761903" y="136.81428571428572"/>
      <point x="152.64761904761903" y="74.18095238095239" type="curve" smooth="yes"/>
      <point x="152.64761904761903" y="12.015079365079366"/>
      <point x="189.5325396825397" y="-8.18095238095238"/>
    </contour>
  </outline>
</glyph>
<glyph name="bracketleft" format="2">
  <advance width="409.06825396825406"/>
  <unicode hex="005B"/>
  <outline>
    <contour>
      <point x="93.43492063492063" y="-128.0" type="line"/>
      <point x="374.43412698412703" y="-128.0" type="line"/>
      <point x="374.43412698412703" y="-72.28650793650792" type="line"/>
      <point x="334.3674603174603" y="-72.28650793650792" type="line" smooth="yes"/>
      <point x="292.1" y="-72.28650793650792"/>
      <point x="257.46587301587306" y="-63.286507936507924"/>
      <point x="257.46587301587306" y="-0.28650793650793427" type="curve" smooth="yes"/>
      <point x="257.46587301587306" y="632.286507936508" type="line" smooth="yes"/>
      <point x="257.46587301587306" y="695.286507936508"/>
      <point x="292.1" y="704.286507936508"/>
      <point x="334.3674603174603" y="704.286507936508" type="curve" smooth="yes"/>
      <point x="374.43412698412703" y="704.286507936508" type="line"/>
      <point x="374.43412698412703" y="760.0" type="line"/>
      <point x="93.43492063492063" y="760.0" type="line"/>
    </contour>
  </outline>
</glyph>
<glyph name="backslash" format="2">
  <advance width="269.5706349206349"/>
  <unicode hex="005C"/>
  <outline>
    <contour>
      <point x="196.89603174603172" y="-121.0" type="line"/>
      <point x="269.5706349206349" y="-121.0" type="line"/>
      <point x="72.04126984126985" y="760.0" type="line"/>
      <point x="0.0" y="760.0" type="line"/>
    </contour>
  </outline>
</glyph>
<glyph name="bracketright" format="2">
  <advance width="409.06825396825406"/>
  <unicode hex="005D"/>
  <outline>
    <contour>
      <point x="34.634126984126986" y="-128.0" type="line"/>
      <point x="315.6333333333334" y="-128.0" type="line"/>
      <point x="315.6333333333334" y="760.0" type="line"/>
      <point x="34.634126984126986" y="760.0" type="line"/>
      <point x="34.634126984126986" y="704.286507936508" type="line"/>
      <point x="74.9015873015873" y="704.286507936508" type="line" smooth="yes"/>
      <point x="117.16904761904763" y="704.286507936508"/>
      <point x="151.60238095238097" y="695.286507936508"/>
      <point x="151.60238095238097" y="632.286507936508" type="curve" smooth="yes"/>
      <point x="151.60238095238097" y="-0.28650793650793427" type="line" smooth="yes"/>
      <point x="151.60238095238097" y="-63.286507936507924"/>
      <point x="117.16904761904763" y="-72.28650793650792"/>
      <point x="74.9015873015873" y="-72.28650793650792" type="curve" smooth="yes"/>
      <point x="34.634126984126986" y="-72.28650793650792" type="line"/>
    </contour>
  </outline>
</glyph>
<glyph name="asciicircum" format="2">
  <advance width="509.8666666666667"/>
  <unicode hex="005E"/>
  <outline>
    <contour>
      <point x="34.40714285714286" y="261.0904761904762" type="line"/>
      <point x="111.45396825396826" y="261.0904761904762" type="line"/>
      <point x="253.43333333333334" y="600.3166666666667" type="line"/>
      <point x="396.8650793650794" y="261.0904761904762" type="line"/>
      <point x="474.11269841269836" y="261.0904761904762" type="line"/>
      <point x="275.6095238095238" y="714.0" type="line"/>
      <point x="232.25714285714287" y="714.0" type="line"/>
    </contour>
  </outline>
</glyph>
<glyph name="underscore" format="2">
  <advance width="429.2738095238095"/>
  <unicode hex="005F"/>
  <outline>
    <contour>
      <point x="-5.000000000000001" y="-142.0" type="line"/>
      <point x="433.90714285714284" y="-142.0" type="line"/>
      <point x="433.90714285714284" y="-83.0" type="line"/>
      <point x="-5.000000000000001" y="-83.0" type="line"/>
    </contour>
  </outline>
</glyph>
<glyph name="braceleft" format="2">
  <advance width="418.78015873015875"/>
  <unicode hex="007B"/>
  <outline>
    <contour>
      <point x="298.38015873015877" y="-124.27142857142857" type="curve" smooth="yes"/>
      <point x="398.92380952380955" y="-124.27142857142857" type="line"/>
      <point x="398.92380952380955" y="-68.39206349206349" type="line"/>
      <point x="358.6920634920635" y="-68.39206349206349" type="line" smooth="yes"/>
      <point x="306.4190476190476" y="-68.39206349206349"/>
      <point x="296.4031746031746" y="-34.28650793650794"/>
      <point x="296.4031746031746" y="27.25634920634921" type="curve" smooth="yes"/>
      <point x="296.4031746031746" y="197.9095238095238" type="line" smooth="yes"/>
      <point x="296.4031746031746" y="256.8190476190475"/>
      <point x="265.31666666666666" y="294.0150793650794"/>
      <point x="194.24920634920636" y="314.8190476190475" type="curve"/>
      <point x="194.24920634920636" y="324.6230158730159" type="line"/>
      <point x="267.41190476190474" y="343.7134920634921"/>
      <point x="296.4031746031746" y="380.9095238095238"/>
      <point x="296.4031746031746" y="439.8190476190476" type="curve" smooth="yes"/>
      <point x="296.4031746031746" y="609.8190476190476" type="line" smooth="yes"/>
      <point x="296.4031746031746" y="671.0150793650794"/>
      <point x="306.4190476190476" y="704.834126984127"/>
      <point x="358.6920634920635" y="704.834126984127" type="curve" smooth="yes"/>
      <point x="398.92380952380955" y="704.834126984127" type="line"/>
      <point x="398.92380952380955" y="760.0" type="line"/>
      <point x="298.38015873015877" y="760.0" type="line" smooth="yes"/>
      <point x="186.2626984126984" y="760.0"/>
      <point x="128.01031746031742" y="706.8190476190476"/>
      <point x="128.01031746031742" y="613.2714285714286" type="curve" smooth="yes"/>
      <point x="128.01031746031742" y="441.8190476190476" type="line" smooth="yes"/>
      <point x="128.01031746031742" y="368.6230158730159"/>
      <point x="80.47619047619048" y="353.7134920634921"/>
      <point x="19.856349206349208" y="351.7134920634921" type="curve"/>
      <point x="19.856349206349208" y="286.0150793650794" type="line"/>
      <point x="80.47619047619048" y="283.0150793650794"/>
      <point x="128.01031746031742" y="269.8190476190475"/>
      <point x="128.01031746031742" y="194.9095238095238" type="curve" smooth="yes"/>
      <point x="128.01031746031742" y="24.803968253968254" type="line" smooth="yes"/>
      <point x="128.01031746031742" y="-67.0904761904762"/>
      <point x="186.2626984126984" y="-124.27142857142857"/>
    </contour>
  </outline>
</glyph>
<glyph name="bar" format="2">
  <advance width="523.2412698412699"/>
  <unicode hex="007C"/>
  <outline>
    <contour>
      <point x="225.147619047619" y="-240.0" type="line"/>
      <point x="297.64126984126983" y="-240.0" type="line"/>
      <point x="297.64126984126983" y="760.0" type="line"/>
      <point x="225.147619047619" y="760.0" type="line"/>
    </contour>
  </outline>
</glyph>
<glyph name="braceright" format="2">
  <advance width="418.78015873015875"/>
  <unicode hex="007D"/>
  <outline>
    <contour>
      <point x="19.856349206349208" y="-124.27142857142857" type="line"/>
      <point x="120.0531746031746" y="-124.27142857142857" type="line" smooth="yes"/>
      <point x="232.71825396825398" y="-124.27142857142857"/>
      <point x="290.76984126984127" y="-67.0904761904762"/>
      <point x="290.76984126984127" y="24.803968253968254" type="curve" smooth="yes"/>
      <point x="290.76984126984127" y="194.9095238095238" type="line" smooth="yes"/>
      <point x="290.76984126984127" y="269.8190476190475"/>
      <point x="338.836507936508" y="283.0150793650794"/>
      <point x="398.92380952380955" y="286.0150793650794" type="curve"/>
      <point x="398.92380952380955" y="351.7134920634921" type="line"/>
      <point x="338.836507936508" y="353.7134920634921"/>
      <point x="290.76984126984127" y="368.6230158730159"/>
      <point x="290.76984126984127" y="441.8190476190476" type="curve" smooth="yes"/>
      <point x="290.76984126984127" y="613.2714285714286" type="line" smooth="yes"/>
      <point x="290.76984126984127" y="706.8190476190476"/>
      <point x="232.71825396825398" y="760.0"/>
      <point x="120.0531746031746" y="760.0" type="curve" smooth="yes"/>
      <point x="19.856349206349208" y="760.0" type="line"/>
      <point x="19.856349206349208" y="704.834126984127" type="line"/>
      <point x="60.28888888888887" y="704.834126984127" type="line" smooth="yes"/>
      <point x="112.36111111111111" y="704.834126984127"/>
      <point x="122.3769841269841" y="671.0150793650794"/>
      <point x="122.3769841269841" y="609.8190476190476" type="curve" smooth="yes"/>
      <point x="122.3769841269841" y="439.8190476190476" type="line" smooth="yes"/>
      <point x="122.3769841269841" y="380.9095238095238"/>
      <point x="151.56904761904764" y="343.7134920634921"/>
      <point x="224.897619047619" y="324.6230158730159" type="curve"/>
      <point x="224.897619047619" y="314.8190476190475" type="line"/>
      <point x="153.46349206349208" y="294.0150793650794"/>
      <point x="122.3769841269841" y="256.8190476190475"/>
      <point x="122.3769841269841" y="197.9095238095238" type="curve" smooth="yes"/>
      <point x="122.3769841269841" y="27.25634920634921" type="line" smooth="yes"/>
      <point x="122.3769841269841" y="-34.28650793650794"/>
      <point x="112.36111111111111" y="-68.39206349206349"/>
      <point x="60.28888888888887" y="-68.39206349206349" type="curve" smooth="yes"/>
      <point x="19.856349206349208" y="-68.39206349206349" type="line"/>
    </contour>
  </outline>
</glyph>
<glyph name="asciitilde" format="2">
  <advance width="509.8666666666667"/>
  <unicode hex="007E"/>
  <outline>
    <contour>
      <point x="32.21190476190476" y="260.19603174603174" type="curve"/>
      <point x="107.18730158730159" y="260.19603174603174" type="line"/>
      <point x="107.97142857142858" y="343.8642857142857"/>
      <point x="126.68571428571428" y="376.52777777777777"/>
      <point x="160.59126984126982" y="376.52777777777777" type="curve" smooth="yes"/>
      <point x="181.41111111111113" y="376.52777777777777"/>
      <point x="192.8031746031746" y="363.7031746031746"/>
      <point x="231.66349206349207" y="325.5428571428572" type="curve" smooth="yes"/>
      <point x="283.43809523809523" y="274.4634920634921"/>
      <point x="310.99126984126985" y="260.19603174603174"/>
      <point x="352.89365079365086" y="260.19603174603174" type="curve" smooth="yes"/>
      <point x="447.2214285714286" y="260.19603174603174"/>
      <point x="475.03571428571433" y="339.09841269841274"/>
      <point x="477.5539682539682" y="452.80396825396826" type="curve"/>
      <point x="401.43253968253964" y="452.80396825396826" type="line"/>
      <point x="400.24126984126985" y="369.77460317460316"/>
      <point x="384.4071428571429" y="336.6380952380952"/>
      <point x="352.481746031746" y="336.6380952380952" type="curve" smooth="yes"/>
      <point x="331.62222222222226" y="336.6380952380952"/>
      <point x="317.7365079365079" y="351.6833333333334"/>
      <point x="281.60952380952386" y="385.2563492063492" type="curve" smooth="yes"/>
      <point x="226.86428571428573" y="436.0349206349206"/>
      <point x="203.72460317460315" y="452.80396825396826"/>
      <point x="161.14523809523808" y="452.80396825396826" type="curve" smooth="yes"/>
      <point x="63.740476190476194" y="452.80396825396826"/>
      <point x="32.54365079365079" y="367.6738095238095"/>
    </contour>
  </outline>
</glyph>
<glyph name="twosuperior" format="2">
  <advance width="374.27222222222224"/>
  <unicode hex="00B2"/>
  <outline>
    <contour>
      <point x="26.20793650793651" y="387.0" type="line"/>
      <point x="341.19444444444446" y="387.0" type="line"/>
      <point x="345.3753968253969" y="535.5873015873015" type="line"/>
      <point x="310.3444444444445" y="535.5873015873015" type="line"/>
      <point x="304.9976190476191" y="506.652380952381" type="line"/>
      <point x="301.5452380952381" y="488.1801587301587"/>
      <point x="291.18333333333334" y="475.76825396825404"/>
      <point x="266.6246031746032" y="475.76825396825404" type="curve"/>
      <point x="103.96825396825396" y="475.76825396825404" type="line"/>
      <point x="165.79603174603173" y="519.6595238095238" type="line"/>
      <point x="302.39047619047625" y="604.6230158730159"/>
      <point x="335.9722222222222" y="643.8357142857143"/>
      <point x="335.9722222222222" y="709.4230158730159" type="curve" smooth="yes"/>
      <point x="335.9722222222222" y="776.0357142857142"/>
      <point x="292.7396825396825" y="825.0"/>
      <point x="181.75317460317459" y="825.0" type="curve" smooth="yes"/>
      <point x="79.66190476190476" y="825.0"/>
      <point x="30.605555555555554" y="785.2515873015873"/>
      <point x="30.605555555555554" y="736.3571428571429" type="curve" smooth="yes"/>
      <point x="30.605555555555554" y="697.9746031746032"/>
      <point x="60.537301587301585" y="681.8539682539683"/>
      <point x="122.58650793650793" y="681.8539682539683" type="curve"/>
      <point x="122.58650793650793" y="729.984126984127"/>
      <point x="128.5015873015873" y="774.0857142857143"/>
      <point x="172.28174603174605" y="774.0857142857143" type="curve" smooth="yes"/>
      <point x="202.4238095238095" y="774.0857142857143"/>
      <point x="217.34365079365077" y="749.9952380952382"/>
      <point x="217.34365079365077" y="711.4674603174603" type="curve" smooth="yes"/>
      <point x="217.34365079365077" y="654.5230158730159"/>
      <point x="189.01269841269843" y="614.4063492063493"/>
      <point x="121.5333333333333" y="554.7436507936509" type="curve" smooth="yes"/>
      <point x="26.20793650793651" y="469.59761904761905" type="line"/>
    </contour>
  </outline>
</glyph>
<glyph name="threesuperior" format="2">
  <advance width="374.27222222222224"/>
  <unicode hex="00B3"/>
  <outline>
    <contour>
      <point x="161.88333333333333" y="380.0" type="curve" smooth="yes"/>
      <point x="273.0833333333333" y="380.0"/>
      <point x="347.3952380952381" y="426.03888888888895"/>
      <point x="347.3952380952381" y="510.4674603174603" type="curve" smooth="yes"/>
      <point x="347.3952380952381" y="574.4063492063492"/>
      <point x="297.852380952381" y="602.713492063492"/>
      <point x="239.43809523809523" y="612.0" type="curve"/>
      <point x="239.43809523809523" y="616.4674603174603" type="line"/>
      <point x="292.03809523809525" y="630.8595238095238"/>
      <point x="331.4952380952381" y="664.3119047619048"/>
      <point x="331.4952380952381" y="722.6785714285714" type="curve" smooth="yes"/>
      <point x="331.4952380952381" y="784.6785714285714"/>
      <point x="283.70396825396824" y="824.0"/>
      <point x="180.89920634920637" y="824.0" type="curve" smooth="yes"/>
      <point x="78.88809523809525" y="824.0"/>
      <point x="33.41428571428572" y="784.7285714285713"/>
      <point x="33.41428571428572" y="736.2460317460317" type="curve" smooth="yes"/>
      <point x="33.41428571428572" y="701.7785714285714"/>
      <point x="64.2642857142857" y="690.376984126984"/>
      <point x="120.07380952380952" y="690.376984126984" type="curve"/>
      <point x="120.07380952380952" y="737.4420634920635"/>
      <point x="126.6626984126984" y="775.4071428571428"/>
      <point x="167.6388888888889" y="775.4071428571428" type="curve" smooth="yes"/>
      <point x="197.0674603174603" y="775.4071428571428"/>
      <point x="212.3190476190476" y="753.1206349206349"/>
      <point x="212.3190476190476" y="714.8190476190476" type="curve" smooth="yes"/>
      <point x="212.3190476190476" y="664.713492063492"/>
      <point x="189.11666666666667" y="634.6230158730159"/>
      <point x="141.55238095238096" y="634.6230158730159" type="curve" smooth="yes"/>
      <point x="108.0642857142857" y="634.6230158730159" type="line"/>
      <point x="108.0642857142857" y="582.7690476190476" type="line"/>
      <point x="141.38650793650794" y="582.7690476190476" type="line" smooth="yes"/>
      <point x="204.2484126984127" y="582.7690476190476"/>
      <point x="225.87777777777777" y="554.9499999999999"/>
      <point x="225.87777777777777" y="513.0150793650793" type="curve" smooth="yes"/>
      <point x="225.87777777777777" y="455.5579365079365"/>
      <point x="194.66031746031746" y="435.32142857142856"/>
      <point x="154.12539682539685" y="435.32142857142856" type="curve" smooth="yes"/>
      <point x="110.09841269841272" y="435.32142857142856"/>
      <point x="87.4388888888889" y="468.3365079365079"/>
      <point x="87.4388888888889" y="517.979365079365" type="curve"/>
      <point x="41.71031746031746" y="517.979365079365"/>
      <point x="19.132539682539683" y="498.53174603174614"/>
      <point x="19.132539682539683" y="467.1904761904762" type="curve" smooth="yes"/>
      <point x="19.132539682539683" y="418.1904761904762"/>
      <point x="63.92777777777777" y="380.0"/>
    </contour>
  </outline>
</glyph>
<glyph name="multiply" format="2">
  <advance width="509.8666666666667"/>
  <unicode hex="00D7"/>
  <outline>
    <contour>
      <point x="121.49047619047619" y="162.6984126984127" type="line"/>
      <point x="254.3984126984127" y="305.11587301587304" type="line"/>
      <point x="387.2063492063492" y="163.6325396825397" type="line"/>
      <point x="439.9246031746032" y="213.61825396825398" type="line"/>
      <point x="304.54999999999995" y="358.5674603174603" type="line"/>
      <point x="439.9246031746032" y="503.15" type="line"/>
      <point x="386.2063492063493" y="553.568253968254" type="line"/>
      <point x="254.3984126984127" y="412.7984126984127" type="line"/>
      <point x="121.85714285714286" y="553.8690476190476" type="line"/>
      <point x="67.79206349206349" y="504.084126984127" type="line"/>
      <point x="203.26666666666665" y="359.2007936507936" type="line"/>
      <point x="67.79206349206349" y="213.3174603174603" type="line"/>
    </contour>
  </outline>
</glyph>
<glyph name="divide" format="2">
  <advance width="509.8666666666667"/>
  <unicode hex="00F7"/>
  <outline>
    <contour>
      <point x="54.296825396825405" y="320.7436507936508" type="line"/>
      <point x="455.5698412698413" y="320.7436507936508" type="line"/>
      <point x="455.5698412698413" y="394.2563492063492" type="line"/>
      <point x="54.296825396825405" y="394.2563492063492" type="line"/>
    </contour>
    <contour>
      <point x="255.43333333333334" y="105.74365079365079" type="curve" smooth="yes"/>
      <point x="285.69523809523815" y="105.74365079365079"/>
      <point x="310.14285714285717" y="122.0904761904762"/>
      <point x="310.14285714285717" y="168.0" type="curve" smooth="yes"/>
      <point x="310.14285714285717" y="214.9095238095238"/>
      <point x="285.69523809523815" y="230.2563492063492"/>
      <point x="255.43333333333334" y="230.2563492063492" type="curve" smooth="yes"/>
      <point x="223.25714285714287" y="230.2563492063492"/>
      <point x="200.01031746031748" y="214.9095238095238"/>
      <point x="200.01031746031748" y="168.0" type="curve" smooth="yes"/>
      <point x="200.01031746031748" y="122.0904761904762"/>
      <point x="223.25714285714287" y="105.74365079365079"/>
    </contour>
    <contour>
      <point x="255.43333333333334" y="484.7436507936508" type="curve" smooth="yes"/>
      <point x="285.69523809523815" y="484.7436507936508"/>
      <point x="310.14285714285717" y="501.0904761904762"/>
      <point x="310.14285714285717" y="547.0" type="curve" smooth="yes"/>
      <point x="310.14285714285717" y="593.9095238095239"/>
      <point x="285.69523809523815" y="609.2563492063492"/>
      <point x="255.43333333333334" y="609.2563492063492" type="curve" smooth="yes"/>
      <point x="223.25714285714287" y="609.2563492063492"/>
      <point x="200.01031746031748" y="593.9095238095239"/>
      <point x="200.01031746031748" y="547.0" type="curve" smooth="yes"/>
      <point x="200.01031746031748" y="501.0904761904762"/>
      <point x="223.25714285714287" y="484.7436507936508"/>
    </contour>
  </outline>
</glyph>
<glyph name="udatta-deva" format="2">
  <unicode hex="0951"/>
  <anchor x="0.0" y="573.2253968253967" name="_vedic"/>
  <outline>
    <contour>
      <point x="-39.21746031746032" y="950.254761904762" type="line"/>
      <point x="39.21746031746032" y="950.254761904762" type="line"/>
      <point x="39.21746031746032" y="1156.0333333333333" type="line"/>
      <point x="-39.21746031746032" y="1156.0333333333333" type="line"/>
    </contour>
  </outline>
</glyph>
<glyph name="anudatta-deva" format="2">
  <unicode hex="0952"/>
  <anchor x="0.0" y="0.0" name="_bottom"/>
  <outline>
    <contour>
      <point x="-193.33412698412698" y="-592.3873015873016" type="line"/>
      <point x="193.33412698412698" y="-592.3873015873016" type="line"/>
      <point x="193.33412698412698" y="-498.7349206349207" type="line"/>
      <point x="-193.33412698412698" y="-498.7349206349207" type="line"/>
    </contour>
  </outline>
</glyph>
<glyph name="danda-deva" format="2">
  <advance width="339.25317460317467"/>
  <unicode hex="0964"/>
  <outline>
    <contour>
      <point x="78.22619047619047" y="0.0" type="line"/>
      <point x="261.06190476190477" y="0.0" type="line"/>
      <point x="261.06190476190477" y="573.2253968253967" type="line"/>
      <point x="78.22619047619047" y="573.2253968253967" type="line"/>
    </contour>
  </outline>
</glyph>
<glyph name="dbldanda-deva" format="2">
  <advance width="630.9920634920636"/>
  <unicode hex="0965"/>
  <outline>
    <contour>
      <point x="370.13095238095235" y="0.0" type="line"/>
      <point x="552.9666666666666" y="0.0" type="line"/>
      <point x="552.9666666666666" y="573.2253968253967" type="line"/>
      <point x="370.13095238095235" y="573.2253968253967" type="line"/>
    </contour>
    <contour>
      <point x="78.22619047619047" y="0.0" type="line"/>
      <point x="261.06190476190477" y="0.0" type="line"/>
      <point x="261.06190476190477" y="573.2253968253967" type="line"/>
      <point x="78.22619047619047" y="573.2253968253967" type="line"/>
    </contour>
  </outline>
</glyph>
<glyph name="anusvara-tamil" format="2">
  <unicode hex="0B82"/>
  <note>
uni0B82
</note>
  <anchor x="0.0" y="573.2253968253967" name="_top"/>
  <outline>
    <contour>
      <point x="0.0" y="624.9047619047619" type="curve" smooth="yes"/>
      <point x="79.75396825396825" y="624.9047619047619"/>
      <point x="144.16111111111115" y="686.6936507936508"/>
      <point x="144.16111111111115" y="768.9499999999999" type="curve" smooth="yes"/>
      <point x="144.16111111111115" y="851.352380952381"/>
      <point x="79.75396825396825" y="912.4277777777778"/>
      <point x="0.0" y="912.4277777777778" type="curve" smooth="yes"/>
      <point x="-79.75396825396825" y="912.4277777777778"/>
      <point x="-144.16111111111115" y="851.352380952381"/>
      <point x="-144.16111111111115" y="768.9499999999999" type="curve" smooth="yes"/>
      <point x="-144.16111111111115" y="686.6936507936508"/>
      <point x="-79.75396825396825" y="624.9047619047619"/>
    </contour>
    <contour>
      <point x="0.0" y="706.5119047619047" type="curve" smooth="yes"/>
      <point x="-32.36746031746031" y="706.5119047619047"/>
      <point x="-60.48333333333334" y="733.9142857142856"/>
      <point x="-60.48333333333334" y="768.7492063492064" type="curve" smooth="yes"/>
      <point x="-60.48333333333334" y="802.9507936507937"/>
      <point x="-32.36746031746031" y="830.3531746031746"/>
      <point x="0.0" y="830.3531746031746" type="curve" smooth="yes"/>
      <point x="32.36746031746031" y="830.3531746031746"/>
      <point x="60.48333333333334" y="802.9507936507937"/>
      <point x="60.48333333333334" y="768.7492063492064" type="curve" smooth="yes"/>
      <point x="60.48333333333334" y="733.9142857142856"/>
      <point x="32.36746031746031" y="706.5119047619047"/>
    </contour>
  </outline>
</glyph>
<glyph name="visarga-tamil" format="2">
  <advance width="872.920634920635"/>
  <unicode hex="0B83"/>
  <note>
uni0B83
</note>
  <outline>
    <contour>
      <point x="648.7912698412698" y="-4.502380952380952" type="curve" smooth="yes"/>
      <point x="759.2285714285714" y="-4.502380952380952"/>
      <point x="828.7785714285714" y="67.14761904761903"/>
      <point x="828.7785714285714" y="186.1206349206349" type="curve" smooth="yes"/>
      <point x="828.7785714285714" y="305.12857142857143"/>
      <point x="758.6809523809525" y="375.9444444444444"/>
      <point x="651.8063492063493" y="375.9444444444444" type="curve" smooth="yes"/>
      <point x="542.6920634920634" y="375.9444444444444"/>
      <point x="478.4880952380953" y="294.55079365079365"/>
      <point x="478.4880952380953" y="182.39206349206347" type="curve" smooth="yes"/>
      <point x="478.4880952380953" y="75.05714285714285"/>
      <point x="539.3103174603175" y="-4.502380952380952"/>
    </contour>
    <contour>
      <point x="215.00317460317459" y="-4.502380952380952" type="curve" smooth="yes"/>
      <point x="325.58650793650804" y="-4.502380952380952"/>
      <point x="394.3373015873016" y="67.14761904761903"/>
      <point x="394.3373015873016" y="186.1206349206349" type="curve" smooth="yes"/>
      <point x="394.3373015873016" y="305.12857142857143"/>
      <point x="324.52619047619055" y="375.9444444444444"/>
      <point x="218.19920634920635" y="375.9444444444444" type="curve" smooth="yes"/>
      <point x="108.59761904761906" y="375.9444444444444"/>
      <point x="44.59444444444445" y="294.55079365079365"/>
      <point x="44.59444444444445" y="182.39206349206347" type="curve" smooth="yes"/>
      <point x="44.59444444444445" y="75.05714285714285"/>
      <point x="104.86904761904762" y="-4.502380952380952"/>
    </contour>
    <contour>
      <point x="437.2595238095238" y="436.90396825396823" type="curve" smooth="yes"/>
      <point x="547.4960317460318" y="436.90396825396823"/>
      <point x="616.7595238095238" y="509.70000000000005"/>
      <point x="616.7595238095238" y="627.2404761904762" type="curve" smooth="yes"/>
      <point x="616.7595238095238" y="746.4492063492063"/>
      <point x="546.9484126984128" y="817.0642857142857"/>
      <point x="440.07380952380953" y="817.0642857142857" type="curve" smooth="yes"/>
      <point x="330.9595238095239" y="817.0642857142857"/>
      <point x="266.66984126984124" y="736.0174603174603"/>
      <point x="266.66984126984124" y="623.6777777777778" type="curve" smooth="yes"/>
      <point x="266.66984126984124" y="516.5436507936508"/>
      <point x="327.57777777777784" y="436.90396825396823"/>
    </contour>
    <contour>
      <point x="191.82301587301586" y="67.26507936507937" type="curve" smooth="yes"/>
      <point x="139.7039682539682" y="67.26507936507937"/>
      <point x="113.42936507936507" y="117.04126984126984"/>
      <point x="113.42936507936507" y="186.1206349206349" type="curve" smooth="yes"/>
      <point x="113.42936507936507" y="255.96904761904764"/>
      <point x="141.1111111111111" y="304.17698412698417"/>
      <point x="192.5563492063492" y="304.17698412698417" type="curve" smooth="yes"/>
      <point x="241.48492063492066" y="304.17698412698417"/>
      <point x="265.768253968254" y="262.4968253968254"/>
      <point x="265.768253968254" y="186.1206349206349" type="curve" smooth="yes"/>
      <point x="265.768253968254" y="110.6595238095238"/>
      <point x="239.20317460317463" y="67.26507936507937"/>
    </contour>
    <contour>
      <point x="413.984126984127" y="508.87222222222226" type="curve" smooth="yes"/>
      <point x="362.12619047619046" y="508.87222222222226"/>
      <point x="335.79126984126987" y="558.6738095238096"/>
      <point x="335.79126984126987" y="627.2404761904762" type="curve" smooth="yes"/>
      <point x="335.79126984126987" y="697.0888888888888"/>
      <point x="363.02063492063496" y="745.497619047619"/>
      <point x="414.55158730158735" y="745.497619047619" type="curve" smooth="yes"/>
      <point x="463.6460317460318" y="745.497619047619"/>
      <point x="487.84365079365074" y="703.6166666666667"/>
      <point x="487.84365079365074" y="627.2404761904762" type="curve" smooth="yes"/>
      <point x="487.84365079365074" y="551.7793650793651"/>
      <point x="461.1984126984127" y="508.87222222222226"/>
    </contour>
    <contour>
      <point x="625.7166666666668" y="67.26507936507937" type="curve" smooth="yes"/>
      <point x="573.9444444444445" y="67.26507936507937"/>
      <point x="547.3579365079365" y="117.04126984126984"/>
      <point x="547.3579365079365" y="186.1206349206349" type="curve" smooth="yes"/>
      <point x="547.3579365079365" y="255.96904761904764"/>
      <point x="574.8388888888888" y="304.17698412698417"/>
      <point x="626.284126984127" y="304.17698412698417" type="curve" smooth="yes"/>
      <point x="675.3785714285714" y="304.17698412698417"/>
      <point x="699.3753968253968" y="262.4968253968254"/>
      <point x="699.3753968253968" y="186.1206349206349" type="curve" smooth="yes"/>
      <point x="699.3753968253968" y="110.6595238095238"/>
      <point x="672.9309523809524" y="67.26507936507937"/>
    </contour>
  </outline>
</glyph>
<glyph name="a-tamil" format="2">
  <advance width="1328.5968253968256"/>
  <unicode hex="0B85"/>
  <note>
uni0B85
</note>
  <anchor x="632.0579365079365" y="0.0" name="bottom"/>
  <anchor x="438.2134920634921" y="-164.052380952381" name="nukta"/>
  <anchor x="633.3753968253968" y="573.2253968253967" name="top"/>
  <anchor x="633.5412698412698" y="573.2253968253967" name="vedic"/>
  <outline>
    <contour>
      <point x="1074.9484126984128" y="-235.62698412698415" type="line"/>
      <point x="1255.3111111111111" y="-235.62698412698415" type="line"/>
      <point x="1255.3111111111111" y="573.2253968253967" type="line"/>
      <point x="1074.9484126984128" y="573.2253968253967" type="line"/>
      <point x="1074.9484126984128" y="157.331746031746" type="line"/>
      <point x="119.05396825396825" y="157.331746031746" type="line" smooth="yes"/>
      <point x="60.42777777777778" y="157.331746031746"/>
      <point x="24.83492063492064" y="123.31111111111109"/>
      <point x="24.83492063492064" y="73.66825396825396" type="curve" smooth="yes"/>
      <point x="24.83492063492064" y="-57.38174603174603"/>
      <point x="206.00317460317459" y="-164.052380952381"/>
      <point x="438.2134920634921" y="-164.052380952381" type="curve" smooth="yes"/>
      <point x="758.2539682539682" y="-164.052380952381"/>
      <point x="971.8079365079366" y="-18.848412698412705"/>
      <point x="971.8079365079366" y="233.39761904761906" type="curve" smooth="yes"/>
      <point x="971.8079365079366" y="438.28174603174597"/>
      <point x="829.4555555555555" y="578.2253968253967"/>
      <point x="608.7269841269842" y="578.2253968253967" type="curve" smooth="yes"/>
      <point x="437.6920634920635" y="578.2253968253967"/>
      <point x="358.4793650793651" y="484.2476190476191"/>
      <point x="358.4793650793651" y="378.1166666666667" type="curve" smooth="yes"/>
      <point x="358.4793650793651" y="282.9666666666667"/>
      <point x="428.52063492063496" y="214.8904761904762"/>
      <point x="526.2579365079365" y="214.8904761904762" type="curve" smooth="yes"/>
      <point x="626.4190476190478" y="214.8904761904762"/>
      <point x="695.7253968253968" y="275.5166666666667"/>
      <point x="695.7253968253968" y="367.91587301587305" type="curve" smooth="yes"/>
      <point x="695.7253968253968" y="450.5087301587302"/>
      <point x="638.879365079365" y="512.7904761904762"/>
      <point x="562.1801587301587" y="536.6071428571428" type="curve"/>
      <point x="487.35873015873017" y="524.8285714285714" type="line"/>
      <point x="548.0793650793651" y="496.82460317460317"/>
      <point x="588.4857142857143" y="447.59444444444443"/>
      <point x="588.4857142857143" y="385.90555555555557" type="curve" smooth="yes"/>
      <point x="588.4857142857143" y="341.468253968254"/>
      <point x="561.5849206349206" y="300.29761904761904"/>
      <point x="510.44761904761907" y="300.29761904761904" type="curve" smooth="yes"/>
      <point x="471.1047619047619" y="300.29761904761904"/>
      <point x="436.26428571428573" y="326.870634920635"/>
      <point x="436.26428571428573" y="387.75476190476195" type="curve" smooth="yes"/>
      <point x="436.26428571428573" y="448.53412698412694"/>
      <point x="483.16111111111115" y="509.9095238095238"/>
      <point x="589.1698412698413" y="509.9095238095238" type="curve" smooth="yes"/>
      <point x="705.4603174603176" y="509.9095238095238"/>
      <point x="800.1523809523809" y="432.41031746031746"/>
      <point x="800.1523809523809" y="253.35714285714286" type="curve" smooth="yes"/>
      <point x="800.1523809523809" y="-0.13253968253969006"/>
      <point x="619.1642857142858" y="-95.9373015873016"/>
      <point x="413.2246031746032" y="-95.9373015873016" type="curve" smooth="yes"/>
      <point x="240.35000000000005" y="-95.9373015873016"/>
      <point x="104.9404761904762" y="-14.407936507936512"/>
      <point x="104.9404761904762" y="61.236507936507934" type="curve" smooth="yes"/>
      <point x="104.9404761904762" y="79.61825396825397"/>
      <point x="115.03571428571428" y="89.17619047619046"/>
      <point x="139.10238095238097" y="89.17619047619046" type="curve" smooth="yes"/>
      <point x="1074.9484126984128" y="89.17619047619046" type="line"/>
    </contour>
  </outline>
</glyph>
<glyph name="aa-tamil" format="2">
  <advance width="1577.4714285714283"/>
  <unicode hex="0B86"/>
  <note>
uni0B86
</note>
  <anchor x="774.495238095238" y="0.0" name="bottom"/>
  <anchor x="438.2134920634921" y="-164.052380952381" name="nukta"/>
  <anchor x="775.6722222222223" y="573.2253968253967" name="top"/>
  <anchor x="775.9785714285715" y="573.2253968253967" name="vedic"/>
  <outline>
    <contour>
      <point x="1065.9579365079367" y="-451.8309523809524" type="curve" smooth="yes"/>
      <point x="1324.2238095238095" y="-451.8309523809524"/>
      <point x="1555.9666666666667" y="-330.53253968253966"/>
      <point x="1555.9666666666667" y="-82.10238095238094" type="curve" smooth="yes"/>
      <point x="1555.9666666666667" y="36.38174603174604"/>
      <point x="1491.6325396825396" y="102.16111111111111"/>
      <point x="1398.1031746031747" y="102.16111111111111" type="curve" smooth="yes"/>
      <point x="1294.668253968254" y="102.16111111111111"/>
      <point x="1228.288888888889" y="29.39603174603175"/>
      <point x="1216.8920634920635" y="-109.16825396825396" type="curve"/>
      <point x="1254.0650793650793" y="-116.334126984127" type="line"/>
      <point x="1252.8039682539684" y="-54.231746031746034"/>
      <point x="1285.1277777777777" y="-21.28492063492064"/>
      <point x="1322.6515873015874" y="-21.28492063492064" type="curve" smooth="yes"/>
      <point x="1361.4174603174604" y="-21.28492063492064"/>
      <point x="1383.2373015873015" y="-51.004761904761914"/>
      <point x="1383.2373015873015" y="-98.01031746031745" type="curve" smooth="yes"/>
      <point x="1383.0714285714287" y="-279.08253968253973"/>
      <point x="1240.8992063492067" y="-383.5492063492064"/>
      <point x="1054.7563492063491" y="-383.5492063492064" type="curve" smooth="yes"/>
      <point x="955.797619047619" y="-383.5492063492064"/>
      <point x="859.365873015873" y="-353.2507936507936"/>
      <point x="859.365873015873" y="-285.3880952380952" type="curve" smooth="yes"/>
      <point x="859.365873015873" y="-238.11031746031748"/>
      <point x="895.1873015873016" y="-210.43412698412698"/>
      <point x="957.9634920634921" y="-198.94682539682537" type="curve"/>
      <point x="943.7825396825398" y="-134.8611111111111" type="line"/>
      <point x="841.7246031746031" y="-156.16269841269843"/>
      <point x="786.4507936507938" y="-203.09444444444443"/>
      <point x="786.4507936507938" y="-282.7952380952381" type="curve" smooth="yes"/>
      <point x="786.4507936507938" y="-392.30158730158735"/>
      <point x="905.1944444444445" y="-451.8309523809524"/>
    </contour>
    <component base="a-tamil"/>
  </outline>
</glyph>
<glyph name="i-tamil" format="2">
  <advance width="1031.7396825396827"/>
  <unicode hex="0B87"/>
  <note>
uni0B87
</note>
  <anchor x="491.24365079365083" y="0.0" name="bottom"/>
  <anchor x="489.64523809523814" y="-291.4222222222222" name="nukta"/>
  <anchor x="510.54682539682545" y="858.4404761904761" name="top"/>
  <anchor x="497.24365079365083" y="573.2253968253967" name="vedic"/>
  <outline>
    <contour>
      <point x="232.44603174603174" y="-328.3960317460318" type="curve" smooth="yes"/>
      <point x="560.7404761904761" y="-328.3960317460318"/>
      <point x="820.3087301587302" y="-61.31587301587301"/>
      <point x="820.3087301587302" y="227.0515873015873" type="curve" smooth="yes"/>
      <point x="820.3087301587302" y="431.1039682539683"/>
      <point x="698.7206349206349" y="578.2253968253967"/>
      <point x="489.1658730158731" y="578.2253968253967" type="curve" smooth="yes"/>
      <point x="322.1722222222222" y="578.2253968253967"/>
      <point x="246.6388888888889" y="485.152380952381"/>
      <point x="246.6388888888889" y="379.50396825396825" type="curve" smooth="yes"/>
      <point x="246.6388888888889" y="284.7611111111111"/>
      <point x="316.49444444444447" y="217.75555555555553"/>
      <point x="408.94920634920635" y="217.75555555555553" type="curve" smooth="yes"/>
      <point x="506.1849206349207" y="217.75555555555553"/>
      <point x="575.4714285714285" y="275.8539682539683"/>
      <point x="575.4714285714285" y="369.88174603174605" type="curve" smooth="yes"/>
      <point x="575.4714285714285" y="453.48492063492074"/>
      <point x="512.7595238095239" y="514.4944444444444"/>
      <point x="435.60793650793653" y="539.3063492063492" type="curve"/>
      <point x="367.78333333333336" y="527.2412698412699" type="line"/>
      <point x="430.67539682539683" y="498.9507936507937"/>
      <point x="467.43253968253964" y="448.052380952381"/>
      <point x="467.43253968253964" y="386.31825396825394" type="curve" smooth="yes"/>
      <point x="467.43253968253964" y="340.6142857142857"/>
      <point x="442.1849206349206" y="302.58968253968254"/>
      <point x="392.6714285714286" y="302.58968253968254" type="curve" smooth="yes"/>
      <point x="354.36904761904765" y="302.58968253968254"/>
      <point x="322.1920634920635" y="329.66031746031746"/>
      <point x="322.1920634920635" y="387.58888888888885" type="curve" smooth="yes"/>
      <point x="322.1920634920635" y="448.534126984127"/>
      <point x="363.9468253968254" y="510.19603174603174"/>
      <point x="469.634126984127" y="510.19603174603174" type="curve" smooth="yes"/>
      <point x="601.576984126984" y="510.19603174603174"/>
      <point x="652.0349206349207" y="402.67857142857144"/>
      <point x="652.0349206349207" y="235.4452380952381" type="curve" smooth="yes"/>
      <point x="652.0349206349207" y="-0.8880952380952283"/>
      <point x="532.1396825396826" y="-256.0444444444445"/>
      <point x="233.2904761904762" y="-256.0444444444445" type="curve" smooth="yes"/>
      <point x="154.75396825396822" y="-256.0444444444445"/>
      <point x="111.55555555555556" y="-220.731746031746"/>
      <point x="111.55555555555556" y="-156.7253968253968" type="curve" smooth="yes"/>
      <point x="111.55555555555556" y="-36.221428571428575"/>
      <point x="312.55317460317457" y="42.22619047619047"/>
      <point x="490.9992063492063" y="42.22619047619047" type="curve" smooth="yes"/>
      <point x="674.7134920634921" y="42.22619047619047"/>
      <point x="887.3880952380953" y="-27.085714285714285"/>
      <point x="887.3880952380953" y="-159.7" type="curve" smooth="yes"/>
      <point x="887.3880952380953" y="-225.96904761904761"/>
      <point x="837.2738095238096" y="-256.0444444444445"/>
      <point x="761.8126984126985" y="-256.0444444444445" type="curve" smooth="yes"/>
      <point x="473.70396825396824" y="-256.0444444444445"/>
      <point x="129.03968253968256" y="50.05634920634921"/>
      <point x="129.03968253968256" y="354.84523809523813" type="curve" smooth="yes"/>
      <point x="129.03968253968256" y="598.6714285714285"/>
      <point x="292.17936507936514" y="721.4817460317461"/>
      <point x="510.3206349206349" y="721.4817460317461" type="curve" smooth="yes"/>
      <point x="742.8023809523809" y="721.4817460317461"/>
      <point x="912.786507936508" y="592.2507936507936"/>
      <point x="912.786507936508" y="332.12619047619046" type="curve" smooth="yes"/>
      <point x="912.786507936508" y="101.81349206349205" type="line"/>
      <point x="987.7071428571428" y="101.81349206349205" type="line"/>
      <point x="987.7071428571428" y="340.9301587301587" type="line" smooth="yes"/>
      <point x="987.7071428571428" y="695.7634920634921"/>
      <point x="795.245238095238" y="858.4404761904761"/>
      <point x="510.54682539682545" y="858.4404761904761" type="curve" smooth="yes"/>
      <point x="234.23809523809527" y="858.4404761904761"/>
      <point x="46.68253968253969" y="675.2388888888889"/>
      <point x="46.68253968253969" y="401.98095238095243" type="curve" smooth="yes"/>
      <point x="46.68253968253969" y="15.253968253968244"/>
      <point x="459.16031746031746" y="-328.1095238095238"/>
      <point x="775.7698412698412" y="-328.1095238095238" type="curve" smooth="yes"/>
      <point x="894.0269841269842" y="-328.1095238095238"/>
      <point x="970.8055555555554" y="-269.5571428571429"/>
      <point x="970.8055555555554" y="-176.1531746031746" type="curve" smooth="yes"/>
      <point x="970.8055555555554" y="22.78809523809524"/>
      <point x="724.5936507936508" y="105.70396825396824"/>
      <point x="490.5722222222222" y="105.70396825396824" type="curve" smooth="yes"/>
      <point x="266.3706349206349" y="105.70396825396824"/>
      <point x="31.192857142857147" y="5.612698412698413"/>
      <point x="31.192857142857147" y="-160.14761904761906" type="curve" smooth="yes"/>
      <point x="31.192857142857147" y="-268.7412698412698"/>
      <point x="109.89444444444445" y="-328.3960317460318"/>
    </contour>
  </outline>
</glyph>
<glyph name="ii-tamil" format="2">
  <advance width="851.7"/>
  <unicode hex="0B88"/>
  <note>
uni0B88
</note>
  <anchor x="431.82539682539687" y="0.0" name="bottom"/>
  <anchor x="432.37301587301585" y="0.0" name="nukta"/>
  <anchor x="434.6849206349206" y="573.2253968253967" name="top"/>
  <anchor x="434.8253968253968" y="573.2253968253967" name="vedic"/>
  <outline>
    <contour>
      <point x="73.16507936507935" y="0.0" type="line"/>
      <point x="147.59285714285716" y="0.0" type="line"/>
      <point x="147.59285714285716" y="506.3309523809524" type="line"/>
      <point x="403.13650793650794" y="506.3309523809524" type="line"/>
      <point x="403.13650793650794" y="0.0" type="line"/>
      <point x="586.7857142857143" y="0.0" type="line"/>
      <point x="586.7857142857143" y="506.3309523809524" type="line"/>
      <point x="800.7293650793652" y="506.3309523809524" type="line"/>
      <point x="800.7293650793652" y="573.2253968253967" type="line"/>
      <point x="73.16507936507935" y="573.2253968253967" type="line"/>
    </contour>
    <contour>
      <point x="275.4452380952381" y="195.42460317460316" type="curve" smooth="yes"/>
      <point x="318.5619047619048" y="195.42460317460316"/>
      <point x="354.2714285714286" y="230.76746031746032"/>
      <point x="354.2714285714286" y="272.06507936507944" type="curve" smooth="yes"/>
      <point x="354.2714285714286" y="313.6238095238095"/>
      <point x="319.0746031746032" y="348.6198412698413"/>
      <point x="275.81190476190477" y="348.6198412698413" type="curve" smooth="yes"/>
      <point x="232.1825396825397" y="348.6198412698413"/>
      <point x="196.9857142857143" y="313.6238095238095"/>
      <point x="196.9857142857143" y="272.06507936507944" type="curve" smooth="yes"/>
      <point x="196.9857142857143" y="230.76746031746032"/>
      <point x="232.1825396825397" y="195.42460317460316"/>
    </contour>
    <contour>
      <point x="712.4714285714285" y="195.42460317460316" type="curve" smooth="yes"/>
      <point x="756.020634920635" y="195.42460317460316"/>
      <point x="791.6444444444445" y="230.76746031746032"/>
      <point x="791.6444444444445" y="272.06507936507944" type="curve" smooth="yes"/>
      <point x="791.6444444444445" y="313.6238095238095"/>
      <point x="756.3873015873015" y="348.6198412698413"/>
      <point x="713.1849206349208" y="348.6198412698413" type="curve" smooth="yes"/>
      <point x="669.354761904762" y="348.6198412698413"/>
      <point x="633.8111111111112" y="313.6238095238095"/>
      <point x="633.8111111111112" y="272.06507936507944" type="curve" smooth="yes"/>
      <point x="633.8111111111112" y="230.76746031746032"/>
      <point x="669.354761904762" y="195.42460317460316"/>
    </contour>
  </outline>
</glyph>
<glyph name="u-tamil" format="2">
  <advance width="941.9626984126984"/>
  <unicode hex="0B89"/>
  <note>
uni0B89
</note>
  <anchor x="470.14682539682536" y="0.0" name="bottom"/>
  <anchor x="470.1468253968254" y="0.0" name="nukta"/>
  <anchor x="473.94603174603174" y="573.2253968253967" name="top"/>
  <anchor x="473.14682539682536" y="573.2253968253967" name="vedic"/>
  <outline>
    <contour>
      <point x="137.4253968253968" y="0.0" type="curve" smooth="yes"/>
      <point x="933.4857142857144" y="0.0" type="line"/>
      <point x="933.4857142857144" y="67.06031746031746" type="line"/>
      <point x="132.65634920634918" y="67.06031746031746" type="line" smooth="yes"/>
      <point x="114.94285714285714" y="67.06031746031746"/>
      <point x="101.29920634920636" y="78.77857142857142"/>
      <point x="101.29920634920636" y="98.76349206349207" type="curve" smooth="yes"/>
      <point x="101.29920634920636" y="118.834126984127"/>
      <point x="114.77698412698412" y="130.41190476190476"/>
      <point x="132.65634920634918" y="130.41190476190476" type="curve" smooth="yes"/>
      <point x="383.38174603174605" y="130.41190476190476" type="line" smooth="yes"/>
      <point x="565.0674603174604" y="130.41190476190476"/>
      <point x="685.7523809523809" y="189.99444444444447"/>
      <point x="685.7523809523809" y="336.647619047619" type="curve" smooth="yes"/>
      <point x="685.7523809523809" y="485.5269841269842"/>
      <point x="563.7388888888889" y="578.2253968253967"/>
      <point x="366.181746031746" y="578.2253968253967" type="curve" smooth="yes"/>
      <point x="192.87063492063493" y="578.2253968253967"/>
      <point x="104.78968253968254" y="493.35714285714283"/>
      <point x="104.78968253968254" y="388.04523809523806" type="curve" smooth="yes"/>
      <point x="104.78968253968254" y="293.72936507936515"/>
      <point x="172.7968253968254" y="240.75873015873012"/>
      <point x="261.468253968254" y="240.75873015873012" type="curve" smooth="yes"/>
      <point x="356.26666666666665" y="240.75873015873012"/>
      <point x="420.0309523809523" y="292.4579365079366"/>
      <point x="420.0309523809523" y="372.4476190476191" type="curve" smooth="yes"/>
      <point x="420.0309523809523" y="452.286507936508"/>
      <point x="366.05555555555554" y="511.69920634920635"/>
      <point x="279.9119047619048" y="534.486507936508" type="curve"/>
      <point x="212.75714285714287" y="529.104761904762" type="line"/>
      <point x="281.3873015873016" y="496.9"/>
      <point x="315.4904761904762" y="453.99047619047616"/>
      <point x="315.4904761904762" y="395.63412698412696" type="curve" smooth="yes"/>
      <point x="315.4904761904762" y="349.32222222222225"/>
      <point x="287.71507936507936" y="321.17698412698417"/>
      <point x="246.61349206349203" y="321.17698412698417" type="curve" smooth="yes"/>
      <point x="209.13968253968255" y="321.17698412698417"/>
      <point x="181.68015873015872" y="348.5984126984127"/>
      <point x="181.68015873015872" y="395.4079365079365" type="curve" smooth="yes"/>
      <point x="181.68015873015872" y="459.2515873015873"/>
      <point x="234.58809523809524" y="511.3912698412699"/>
      <point x="333.2603174603175" y="511.3912698412699" type="curve" smooth="yes"/>
      <point x="442.1119047619048" y="511.3912698412699"/>
      <point x="514.8103174603174" y="455.2055555555556"/>
      <point x="514.8103174603174" y="347.7738095238096" type="curve" smooth="yes"/>
      <point x="514.8103174603174" y="245.55714285714288"/>
      <point x="457.336507936508" y="193.86428571428573"/>
      <point x="357.67777777777775" y="193.86428571428573" type="curve" smooth="yes"/>
      <point x="137.4253968253968" y="193.86428571428573" type="line" smooth="yes"/>
      <point x="72.2531746031746" y="193.86428571428573"/>
      <point x="32.292857142857144" y="159.33650793650793"/>
      <point x="32.292857142857144" y="98.21587301587302" type="curve" smooth="yes"/>
      <point x="32.292857142857144" y="36.66825396825397"/>
      <point x="72.61984126984126" y="0.0"/>
    </contour>
  </outline>
</glyph>
<glyph name="uu-tamil" format="2">
  <advance width="1777.5952380952383"/>
  <unicode hex="0B8A"/>
  <note>
uni0B8A
</note>
  <anchor x="893.3730158730159" y="0.0" name="bottom"/>
  <anchor x="893.3730158730158" y="0.0" name="nukta"/>
  <anchor x="895.5285714285715" y="573.2253968253967" name="top"/>
  <anchor x="896.3730158730159" y="573.2253968253967" name="vedic"/>
  <outline>
    <contour>
      <point x="137.0936507936508" y="0.0" type="curve" smooth="yes"/>
      <point x="1717.7960317460318" y="0.0" type="line"/>
      <point x="1717.7960317460318" y="67.06031746031746" type="line"/>
      <point x="132.32460317460317" y="67.06031746031746" type="line" smooth="yes"/>
      <point x="114.4452380952381" y="67.06031746031746"/>
      <point x="101.29920634920636" y="78.77857142857142"/>
      <point x="101.29920634920636" y="98.76349206349207" type="curve" smooth="yes"/>
      <point x="101.29920634920636" y="118.834126984127"/>
      <point x="114.4452380952381" y="130.41190476190476"/>
      <point x="132.32460317460317" y="130.41190476190476" type="curve" smooth="yes"/>
      <point x="383.38174603174605" y="130.41190476190476" type="line" smooth="yes"/>
      <point x="565.0674603174604" y="130.41190476190476"/>
      <point x="685.7523809523809" y="189.99444444444447"/>
      <point x="685.7523809523809" y="336.647619047619" type="curve" smooth="yes"/>
      <point x="685.7523809523809" y="485.5269841269842"/>
      <point x="563.7388888888889" y="578.2253968253967"/>
      <point x="366.181746031746" y="578.2253968253967" type="curve" smooth="yes"/>
      <point x="192.87063492063493" y="578.2253968253967"/>
      <point x="104.78968253968254" y="493.35714285714283"/>
      <point x="104.78968253968254" y="388.04523809523806" type="curve" smooth="yes"/>
      <point x="104.78968253968254" y="293.72936507936515"/>
      <point x="172.7968253968254" y="240.75873015873012"/>
      <point x="261.468253968254" y="240.75873015873012" type="curve" smooth="yes"/>
      <point x="356.26666666666665" y="240.75873015873012"/>
      <point x="420.0309523809523" y="292.4579365079366"/>
      <point x="420.0309523809523" y="372.4476190476191" type="curve" smooth="yes"/>
      <point x="420.0309523809523" y="452.286507936508"/>
      <point x="366.05555555555554" y="511.69920634920635"/>
      <point x="279.9119047619048" y="534.486507936508" type="curve"/>
      <point x="212.75714285714287" y="529.104761904762" type="line"/>
      <point x="281.3873015873016" y="496.9"/>
      <point x="315.4904761904762" y="453.99047619047616"/>
      <point x="315.4904761904762" y="395.63412698412696" type="curve" smooth="yes"/>
      <point x="315.4904761904762" y="349.32222222222225"/>
      <point x="287.71507936507936" y="321.17698412698417"/>
      <point x="246.61349206349203" y="321.17698412698417" type="curve" smooth="yes"/>
      <point x="209.13968253968255" y="321.17698412698417"/>
      <point x="181.68015873015872" y="348.5984126984127"/>
      <point x="181.68015873015872" y="395.4079365079365" type="curve" smooth="yes"/>
      <point x="181.68015873015872" y="459.2515873015873"/>
      <point x="234.58809523809524" y="511.3912698412699"/>
      <point x="333.2603174603175" y="511.3912698412699" type="curve" smooth="yes"/>
      <point x="442.1119047619048" y="511.3912698412699"/>
      <point x="514.8103174603174" y="455.2055555555556"/>
      <point x="514.8103174603174" y="347.7738095238096" type="curve" smooth="yes"/>
      <point x="514.8103174603174" y="245.55714285714288"/>
      <point x="457.336507936508" y="193.86428571428573"/>
      <point x="357.67777777777775" y="193.86428571428573" type="curve" smooth="yes"/>
      <point x="137.0936507936508" y="193.86428571428573" type="line" smooth="yes"/>
      <point x="71.75555555555555" y="193.86428571428573"/>
      <point x="32.292857142857144" y="159.33650793650793"/>
      <point x="32.292857142857144" y="98.21587301587302" type="curve" smooth="yes"/>
      <point x="32.292857142857144" y="36.66825396825397"/>
      <point x="72.1222222222222" y="0.0"/>
    </contour>
    <contour>
      <point x="955.8587301587303" y="121.82857142857145" type="curve" smooth="yes"/>
      <point x="1050.8071428571427" y="121.82857142857145"/>
      <point x="1126.4571428571428" y="168.45714285714283"/>
      <point x="1126.4571428571428" y="265.2857142857143" type="curve" smooth="yes"/>
      <point x="1126.4571428571428" y="356.16507936507935"/>
      <point x="1062.546031746032" y="404.39126984126983"/>
      <point x="982.6992063492064" y="404.39126984126983" type="curve" smooth="yes"/>
      <point x="880.5714285714287" y="404.39126984126983"/>
      <point x="822.9182539682541" y="322.82619047619045"/>
      <point x="821.7365079365078" y="226.02539682539683" type="curve"/>
      <point x="861.984126984127" y="203.6531746031746" type="line"/>
      <point x="864.1809523809526" y="274.5023809523809"/>
      <point x="899.4452380952381" y="333.39682539682536"/>
      <point x="948.5325396825398" y="333.39682539682536" type="curve" smooth="yes"/>
      <point x="986.1015873015873" y="333.39682539682536"/>
      <point x="1011.052380952381" y="307.2761904761905"/>
      <point x="1011.052380952381" y="265.78333333333336" type="curve" smooth="yes"/>
      <point x="1011.052380952381" y="218.5015873015873"/>
      <point x="979.4119047619047" y="190.52222222222224"/>
      <point x="934.0126984126985" y="190.52222222222224" type="curve" smooth="yes"/>
      <point x="878.5531746031747" y="190.52222222222224"/>
      <point x="820.0952380952381" y="236.63253968253971"/>
      <point x="820.0952380952381" y="339.78333333333336" type="curve" smooth="yes"/>
      <point x="820.0952380952381" y="447.50714285714287"/>
      <point x="893.6015873015873" y="511.87857142857143"/>
      <point x="997.0246031746032" y="511.87857142857143" type="curve" smooth="yes"/>
      <point x="1113.2126984126983" y="511.87857142857143"/>
      <point x="1189.0507936507936" y="432.75634920634917"/>
      <point x="1189.6238095238093" y="326.2531746031746" type="curve"/>
      <point x="1259.8317460317462" y="326.2531746031746" type="line"/>
      <point x="1250.9214285714286" y="498.7428571428572"/>
      <point x="1131.4365079365082" y="578.2253968253967"/>
      <point x="999.552380952381" y="578.2253968253967" type="curve" smooth="yes"/>
      <point x="852.6444444444445" y="578.2253968253967"/>
      <point x="748.1285714285716" y="480.5119047619048"/>
      <point x="748.1285714285716" y="338.5571428571428" type="curve" smooth="yes"/>
      <point x="748.1285714285716" y="204.4015873015873"/>
      <point x="841.8746031746031" y="121.82857142857145"/>
    </contour>
    <contour>
      <point x="1189.6238095238093" y="123.50714285714285" type="line"/>
      <point x="1342.3896825396823" y="123.50714285714285" type="line"/>
      <point x="1342.3896825396823" y="511.3206349206349" type="line"/>
      <point x="1472.7563492063493" y="511.3206349206349" type="line"/>
      <point x="1472.7563492063493" y="123.50714285714285" type="line"/>
      <point x="1625.843650793651" y="123.50714285714285" type="line"/>
      <point x="1625.843650793651" y="511.3206349206349" type="line"/>
      <point x="1717.1023809523808" y="511.3206349206349" type="line"/>
      <point x="1717.1023809523808" y="573.2253968253967" type="line"/>
      <point x="1226.1523809523808" y="573.2253968253967" type="line"/>
      <point x="1227.854761904762" y="379.9492063492064" type="line"/>
      <point x="1189.6238095238093" y="379.4515873015873" type="line"/>
    </contour>
  </outline>
</glyph>
<glyph name="e-tamil" format="2">
  <advance width="947.8079365079366"/>
  <unicode hex="0B8E"/>
  <note>
uni0B8E
</note>
  <anchor x="496.3547619047619" y="0.0" name="bottom"/>
  <anchor x="496.64126984126983" y="0.0" name="nukta"/>
  <anchor x="499.9079365079365" y="573.2253968253967" name="top"/>
  <anchor x="499.3547619047619" y="573.2253968253967" name="vedic"/>
  <outline>
    <contour>
      <point x="280.26587301587296" y="-5.0" type="curve" smooth="yes"/>
      <point x="406.2611111111111" y="-5.0"/>
      <point x="483.44285714285706" y="63.73412698412698"/>
      <point x="483.44285714285706" y="171.99920634920633" type="curve" smooth="yes"/>
      <point x="483.44285714285706" y="263.6071428571429"/>
      <point x="423.54126984126987" y="337.56666666666666"/>
      <point x="317.8547619047619" y="337.56666666666666" type="curve" smooth="yes"/>
      <point x="195.0563492063492" y="337.56666666666666"/>
      <point x="128.7468253968254" y="239.85396825396828"/>
      <point x="124.76190476190474" y="115.92936507936508" type="curve"/>
      <point x="170.3809523809524" y="90.0" type="line"/>
      <point x="174.39603174603175" y="178.99999999999997"/>
      <point x="208.45000000000002" y="235.84444444444446"/>
      <point x="262.26746031746035" y="235.84444444444446" type="curve" smooth="yes"/>
      <point x="301.6373015873016" y="235.84444444444446"/>
      <point x="328.41825396825396" y="204.42698412698414"/>
      <point x="328.41825396825396" y="159.77380952380952" type="curve" smooth="yes"/>
      <point x="328.41825396825396" y="109.86031746031746"/>
      <point x="300.63174603174605" y="73.90873015873017"/>
      <point x="245.65238095238095" y="73.90873015873017" type="curve" smooth="yes"/>
      <point x="177.36111111111111" y="73.90873015873017"/>
      <point x="119.59444444444445" y="147.85873015873017"/>
      <point x="119.59444444444445" y="260.3968253968254" type="curve" smooth="yes"/>
      <point x="119.59444444444445" y="416.43650793650795"/>
      <point x="216.58253968253968" y="506.3309523809524"/>
      <point x="425.202380952381" y="506.3309523809524" type="curve" smooth="yes"/>
      <point x="618.6912698412699" y="506.3309523809524" type="line"/>
      <point x="618.6912698412699" y="0.0" type="line"/>
      <point x="803.3214285714286" y="0.0" type="line"/>
      <point x="803.3214285714286" y="506.3309523809524" type="line"/>
      <point x="932.7777777777777" y="506.3309523809524" type="line"/>
      <point x="932.7777777777777" y="573.2253968253967" type="line"/>
      <point x="412.8968253968254" y="573.2253968253967" type="line" smooth="yes"/>
      <point x="174.4626984126984" y="573.2253968253967"/>
      <point x="48.03174603174603" y="451.0793650793651"/>
      <point x="48.03174603174603" y="261.8492063492064" type="curve" smooth="yes"/>
      <point x="48.03174603174603" y="111.85"/>
      <point x="138.60317460317458" y="-5.0"/>
    </contour>
  </outline>
</glyph>
<glyph name="ai-tamil" format="2">
  <advance width="1014.3142857142856"/>
  <unicode hex="0B90"/>
  <note>
uni0B90
</note>
  <anchor x="511.39047619047625" y="0.0" name="bottom"/>
  <anchor x="506.2031746031746" y="-327.56190476190477" name="nukta"/>
  <anchor x="519.5499999999998" y="573.2253968253967" name="top"/>
  <anchor x="518.2087301587301" y="573.2253968253967" name="vedic"/>
  <outline>
    <contour>
      <point x="295.7119047619048" y="-327.56190476190477" type="curve" smooth="yes"/>
      <point x="412.85555555555555" y="-327.56190476190477"/>
      <point x="496.89126984126983" y="-283.5388888888889"/>
      <point x="522.0571428571428" y="-183.40714285714287" type="curve"/>
      <point x="542.7904761904763" y="-271.29047619047617"/>
      <point x="622.9619047619047" y="-327.56190476190477"/>
      <point x="738.7825396825398" y="-327.56190476190477" type="curve" smooth="yes"/>
      <point x="871.3301587301587" y="-327.56190476190477"/>
      <point x="966.5690476190475" y="-257.99285714285713"/>
      <point x="966.5690476190475" y="-117.35555555555554" type="curve" smooth="yes"/>
      <point x="966.5690476190475" y="-47.86349206349206"/>
      <point x="940.9055555555556" y="10.100793650793651"/>
      <point x="898.918253968254" y="68.43809523809524" type="curve"/>
      <point x="839.15" y="31.085714285714293" type="line"/>
      <point x="875.7047619047619" y="-21.01507936507937"/>
      <point x="891.3722222222221" y="-61.134126984126986"/>
      <point x="891.3722222222221" y="-109.8825396825397" type="curve" smooth="yes"/>
      <point x="891.3722222222221" y="-208.05317460317463"/>
      <point x="830.1936507936509" y="-256.5674603174603"/>
      <point x="743.0388888888889" y="-256.5674603174603" type="curve" smooth="yes"/>
      <point x="650.6301587301587" y="-256.5674603174603"/>
      <point x="597.9404761904763" y="-195.4539682539683"/>
      <point x="597.9404761904763" y="-90.35555555555555" type="curve" smooth="yes"/>
      <point x="597.9404761904763" y="-24.764285714285712" type="line"/>
      <point x="447.0349206349207" y="-24.764285714285712" type="line"/>
      <point x="447.0349206349207" y="-102.4761904761905" type="line" smooth="yes"/>
      <point x="447.0349206349207" y="-199.79603174603176"/>
      <point x="404.54920634920643" y="-256.0047619047619"/>
      <point x="331.08809523809526" y="-256.0047619047619" type="curve" smooth="yes"/>
      <point x="257.7579365079365" y="-256.0047619047619"/>
      <point x="218.23095238095237" y="-209.25158730158728"/>
      <point x="218.23095238095237" y="-124.39682539682539" type="curve" smooth="yes"/>
      <point x="218.23095238095237" y="11.992063492063483"/>
      <point x="298.2087301587302" y="52.03650793650794"/>
      <point x="542.2952380952382" y="75.23095238095237" type="curve" smooth="yes"/>
      <point x="796.7833333333334" y="99.56587301587301"/>
      <point x="966.4031746031749" y="158.61746031746034"/>
      <point x="966.4031746031749" y="354.3412698412698" type="curve" smooth="yes"/>
      <point x="966.4031746031749" y="500.1912698412698"/>
      <point x="874.7769841269842" y="578.7126984126984"/>
      <point x="727.9714285714286" y="578.7126984126984" type="curve" smooth="yes"/>
      <point x="631.0603174603175" y="578.7126984126984"/>
      <point x="552.1547619047619" y="540.5150793650794"/>
      <point x="525.4404761904761" y="452.0150793650794" type="curve"/>
      <point x="492.7309523809524" y="537.4198412698413"/>
      <point x="410.4031746031746" y="578.7126984126984"/>
      <point x="300.7246031746032" y="578.7126984126984" type="curve" smooth="yes"/>
      <point x="153.09603174603174" y="578.7126984126984"/>
      <point x="53.23253968253968" y="486.68333333333334"/>
      <point x="53.23253968253968" y="347.0103174603174" type="curve" smooth="yes"/>
      <point x="53.23253968253968" y="233.40238095238092"/>
      <point x="129.19603174603174" y="153.49761904761903"/>
      <point x="234.1198412698413" y="153.49761904761903" type="curve" smooth="yes"/>
      <point x="321.17460317460325" y="153.49761904761903"/>
      <point x="387.0920634920635" y="197.3968253968254"/>
      <point x="387.0920634920635" y="285.11031746031745" type="curve" smooth="yes"/>
      <point x="387.0920634920635" y="362.834126984127"/>
      <point x="335.5571428571429" y="409.8190476190475"/>
      <point x="261.4984126984127" y="409.8190476190475" type="curve" smooth="yes"/>
      <point x="185.9436507936508" y="409.8190476190475"/>
      <point x="121.47698412698412" y="361.78968253968253"/>
      <point x="113.81825396825396" y="232.33253968253965" type="curve"/>
      <point x="152.518253968254" y="216.22142857142856" type="line"/>
      <point x="158.88571428571424" y="311.281746031746"/>
      <point x="192.23492063492066" y="338.7190476190476"/>
      <point x="225.87063492063493" y="338.7190476190476" type="curve" smooth="yes"/>
      <point x="254.72619047619042" y="338.7190476190476"/>
      <point x="274.02460317460316" y="317.32222222222225"/>
      <point x="274.02460317460316" y="283.12063492063487" type="curve" smooth="yes"/>
      <point x="274.02460317460316" y="244.12460317460318"/>
      <point x="249.4134920634921" y="224.28095238095239"/>
      <point x="214.37619047619046" y="224.28095238095239" type="curve" smooth="yes"/>
      <point x="165.131746031746" y="224.28095238095239"/>
      <point x="124.72063492063492" y="267.87857142857143"/>
      <point x="124.72063492063492" y="346.5126984126984" type="curve" smooth="yes"/>
      <point x="124.72063492063492" y="449.72380952380956"/>
      <point x="201.83571428571426" y="508.44206349206354"/>
      <point x="295.6738095238095" y="508.44206349206354" type="curve" smooth="yes"/>
      <point x="389.9000000000001" y="508.44206349206354"/>
      <point x="447.0349206349207" y="464.2388888888889"/>
      <point x="447.0349206349207" y="368.818253968254" type="curve" smooth="yes"/>
      <point x="447.0349206349207" y="209.34206349206346" type="line"/>
      <point x="597.9404761904763" y="209.34206349206346" type="line"/>
      <point x="597.9404761904763" y="381.9793650793651" type="line" smooth="yes"/>
      <point x="597.9404761904763" y="461.8412698412698"/>
      <point x="633.1333333333334" y="506.834126984127"/>
      <point x="695.7904761904763" y="506.834126984127" type="curve" smooth="yes"/>
      <point x="761.4634920634921" y="506.834126984127"/>
      <point x="795.8571428571429" y="459.28095238095244"/>
      <point x="795.8571428571429" y="367.7333333333333" type="curve" smooth="yes"/>
      <point x="795.8571428571429" y="207.2253968253968"/>
      <point x="706.581746031746" y="147.22380952380956"/>
      <point x="434.4611111111111" y="121.46746031746034" type="curve" smooth="yes"/>
      <point x="236.8293650793651" y="103.51825396825396"/>
      <point x="48.03174603174603" y="58.38730158730158"/>
      <point x="48.03174603174603" y="-120.4968253968254" type="curve" smooth="yes"/>
      <point x="48.03174603174603" y="-255.78809523809525"/>
      <point x="149.56666666666666" y="-327.56190476190477"/>
    </contour>
  </outline>
</glyph>
<glyph name="o-tamil" format="2">
  <advance width="1054.5563492063495"/>
  <unicode hex="0B92"/>
  <note>
uni0B92
</note>
  <anchor x="522.784126984127" y="0.0" name="bottom"/>
  <anchor x="520.784126984127" y="-335.0" name="nukta"/>
  <anchor x="515.7841269841269" y="573.2253968253967" name="top"/>
  <anchor x="515.7841269841269" y="573.2253968253967" name="vedic"/>
  <outline>
    <contour>
      <point x="381.6269841269842" y="-361.50714285714287" type="curve" smooth="yes"/>
      <point x="623.8801587301588" y="-361.50714285714287"/>
      <point x="641.2746031746032" y="-150.39761904761903"/>
      <point x="809.9174603174604" y="-150.39761904761903" type="curve" smooth="yes"/>
      <point x="877.3579365079364" y="-150.39761904761903" type="line"/>
      <point x="877.3579365079364" y="-81.23095238095237" type="line"/>
      <point x="783.6801587301588" y="-81.23095238095237" type="line" smooth="yes"/>
      <point x="604.9666666666668" y="-81.23095238095237"/>
      <point x="531.1968253968255" y="75.72301587301587"/>
      <point x="631.0571428571428" y="228.79603174603176" type="curve"/>
      <point x="637.0571428571428" y="225.44920634920635" type="line"/>
      <point x="605.2650793650794" y="111.3809523809524"/>
      <point x="642.1642857142857" y="-3.392063492063492"/>
      <point x="799.0698412698413" y="-3.392063492063492" type="curve" smooth="yes"/>
      <point x="920.3571428571429" y="-3.392063492063492"/>
      <point x="1006.8111111111111" y="71.87142857142857"/>
      <point x="1006.8111111111111" y="205.80555555555557" type="curve" smooth="yes"/>
      <point x="1006.8111111111111" y="449.0753968253968"/>
      <point x="774.0642857142857" y="579.1198412698412"/>
      <point x="492.3420634920635" y="579.1198412698412" type="curve" smooth="yes"/>
      <point x="238.18888888888887" y="579.1198412698412"/>
      <point x="48.03174603174603" y="440.47301587301587"/>
      <point x="48.03174603174603" y="244.09920634920636" type="curve" smooth="yes"/>
      <point x="48.03174603174603" y="101.57222222222222"/>
      <point x="136.86904761904762" y="-3.9595238095238092"/>
      <point x="279.87380952380954" y="-3.9595238095238092" type="curve" smooth="yes"/>
      <point x="406.4571428571429" y="-3.9595238095238092"/>
      <point x="479.88412698412696" y="70.32380952380954"/>
      <point x="479.88412698412696" y="173.38650793650794" type="curve" smooth="yes"/>
      <point x="479.88412698412696" y="267.4222222222222"/>
      <point x="418.9420634920635" y="338.6071428571428"/>
      <point x="316.0753968253968" y="338.6071428571428" type="curve" smooth="yes"/>
      <point x="195.01111111111112" y="338.6071428571428"/>
      <point x="127.615873015873" y="238.7079365079365"/>
      <point x="120.79603174603173" y="114.10476190476192" type="curve"/>
      <point x="166.12857142857143" y="88.52222222222223" type="line"/>
      <point x="170.1436507936508" y="177.91428571428568"/>
      <point x="207.36428571428576" y="236.53809523809522"/>
      <point x="261.18174603174606" y="236.53809523809522" type="curve" smooth="yes"/>
      <point x="300.44603174603174" y="236.53809523809522"/>
      <point x="326.2468253968254" y="204.08015873015873"/>
      <point x="326.2468253968254" y="159.77380952380952" type="curve" smooth="yes"/>
      <point x="326.2468253968254" y="109.86031746031746"/>
      <point x="299.5007936507937" y="74.60238095238097"/>
      <point x="246.30079365079362" y="74.60238095238097" type="curve" smooth="yes"/>
      <point x="178.4015873015873" y="74.60238095238097"/>
      <point x="119.24761904761905" y="139.30476190476193"/>
      <point x="119.24761904761905" y="242.6920634920635" type="curve" smooth="yes"/>
      <point x="119.24761904761905" y="410.8738095238095"/>
      <point x="295.11666666666673" y="512.7492063492064"/>
      <point x="485.9690476190476" y="512.7492063492064" type="curve" smooth="yes"/>
      <point x="678.6150793650793" y="512.7492063492064"/>
      <point x="835.5325396825398" y="414.302380952381"/>
      <point x="835.5325396825398" y="227.35396825396825" type="curve" smooth="yes"/>
      <point x="835.5325396825398" y="130.55"/>
      <point x="802.9690476190477" y="80.01349206349208"/>
      <point x="747.8492063492063" y="80.01349206349208" type="curve" smooth="yes"/>
      <point x="682.7238095238096" y="80.01349206349208"/>
      <point x="662.8349206349206" y="176.67936507936508"/>
      <point x="712.8285714285715" y="279.5706349206349" type="curve"/>
      <point x="635.2174603174603" y="326.5373015873016" type="line"/>
      <point x="473.1166666666668" y="153.29761904761904"/>
      <point x="496.65634920634926" y="-30.471428571428575"/>
      <point x="647.0801587301587" y="-103.8531746031746" type="curve"/>
      <point x="647.0801587301587" y="-108.8531746031746" type="line"/>
      <point x="500.32619047619045" y="-132.56507936507938"/>
      <point x="466.2484126984127" y="-285.16031746031746"/>
      <point x="338.8142857142857" y="-285.16031746031746" type="curve" smooth="yes"/>
      <point x="281.17301587301586" y="-285.16031746031746"/>
      <point x="245.19206349206348" y="-252.35952380952386"/>
      <point x="245.19206349206348" y="-201.68492063492064" type="curve" smooth="yes"/>
      <point x="245.19206349206348" y="-165.68412698412698"/>
      <point x="263.92619047619047" y="-137.41666666666669"/>
      <point x="303.2007936507937" y="-109.78333333333333" type="curve"/>
      <point x="264.1515873015873" y="-61.87777777777778" type="line"/>
      <point x="209.44365079365082" y="-102.03888888888889"/>
      <point x="180.13174603174605" y="-145.54285714285714"/>
      <point x="180.13174603174605" y="-198.61904761904765" type="curve" smooth="yes"/>
      <point x="180.13174603174605" y="-291.80158730158735"/>
      <point x="252.50634920634923" y="-361.50714285714287"/>
    </contour>
  </outline>
</glyph>
<glyph name="oo-tamil" format="2">
  <advance width="1054.5563492063495"/>
  <unicode hex="0B93"/>
  <note>
uni0B93
</note>
  <anchor x="523.9603174603176" y="0.0" name="bottom"/>
  <anchor x="521.9603174603176" y="-347.60952380952386" name="nukta"/>
  <anchor x="516.9603174603176" y="573.2253968253967" name="top"/>
  <anchor x="516.9603174603176" y="573.2253968253967" name="vedic"/>
  <outline>
    <contour>
      <point x="353.4134920634921" y="-389.3960317460318" type="curve" smooth="yes"/>
      <point x="633.1285714285715" y="-389.3960317460318"/>
      <point x="650.4880952380953" y="-152.82539682539684"/>
      <point x="814.8333333333333" y="-151.78492063492064" type="curve" smooth="yes"/>
      <point x="876.8603174603174" y="-151.43809523809523" type="line"/>
      <point x="876.8603174603174" y="-82.27142857142857" type="line"/>
      <point x="786.2587301587301" y="-82.27142857142857" type="line" smooth="yes"/>
      <point x="606.1126984126985" y="-82.27142857142857"/>
      <point x="532.0563492063493" y="77.83412698412698"/>
      <point x="627.0460317460318" y="227.75555555555556" type="curve"/>
      <point x="633.3325396825397" y="224.1222222222222" type="line"/>
      <point x="602.686507936508" y="110.05396825396826"/>
      <point x="642.1642857142857" y="-4.432539682539682"/>
      <point x="799.0698412698413" y="-4.432539682539682" type="curve" smooth="yes"/>
      <point x="920.3571428571429" y="-4.432539682539682"/>
      <point x="1006.8111111111111" y="70.83095238095238"/>
      <point x="1006.8111111111111" y="204.76507936507937" type="curve" smooth="yes"/>
      <point x="1006.8111111111111" y="448.03492063492064"/>
      <point x="774.0642857142857" y="578.4261904761904"/>
      <point x="492.3420634920635" y="578.4261904761904" type="curve" smooth="yes"/>
      <point x="238.18888888888887" y="578.4261904761904"/>
      <point x="48.03174603174603" y="439.43253968253975"/>
      <point x="48.03174603174603" y="243.40555555555557" type="curve" smooth="yes"/>
      <point x="48.03174603174603" y="100.87857142857143"/>
      <point x="136.86904761904762" y="-5.0"/>
      <point x="279.87380952380954" y="-5.0" type="curve" smooth="yes"/>
      <point x="406.4571428571429" y="-5.0"/>
      <point x="479.88412698412696" y="69.63015873015875"/>
      <point x="479.88412698412696" y="172.34603174603174" type="curve" smooth="yes"/>
      <point x="479.88412698412696" y="266.3817460317461"/>
      <point x="418.9420634920635" y="337.56666666666666"/>
      <point x="316.0753968253968" y="337.56666666666666" type="curve" smooth="yes"/>
      <point x="195.01111111111112" y="337.56666666666666"/>
      <point x="127.615873015873" y="238.01428571428568"/>
      <point x="120.79603174603173" y="113.41111111111111" type="curve"/>
      <point x="166.12857142857143" y="87.48174603174604" type="line"/>
      <point x="170.1436507936508" y="176.8738095238095"/>
      <point x="207.36428571428576" y="235.84444444444446"/>
      <point x="261.18174603174606" y="235.84444444444446" type="curve" smooth="yes"/>
      <point x="300.44603174603174" y="235.84444444444446"/>
      <point x="326.2468253968254" y="203.3865079365079"/>
      <point x="326.2468253968254" y="158.73333333333335" type="curve" smooth="yes"/>
      <point x="326.2468253968254" y="109.16666666666667"/>
      <point x="299.5007936507937" y="73.90873015873017"/>
      <point x="246.30079365079362" y="73.90873015873017" type="curve" smooth="yes"/>
      <point x="178.4015873015873" y="73.90873015873017"/>
      <point x="119.24761904761905" y="138.61111111111114"/>
      <point x="119.24761904761905" y="241.65158730158728" type="curve" smooth="yes"/>
      <point x="119.24761904761905" y="409.83333333333337"/>
      <point x="295.11666666666673" y="512.0555555555557"/>
      <point x="485.9690476190476" y="512.0555555555557" type="curve" smooth="yes"/>
      <point x="678.6150793650793" y="512.0555555555557"/>
      <point x="835.5325396825398" y="413.60873015873017"/>
      <point x="835.5325396825398" y="226.31349206349205" type="curve" smooth="yes"/>
      <point x="835.5325396825398" y="129.85634920634922"/>
      <point x="802.9690476190477" y="79.31984126984128"/>
      <point x="747.8492063492063" y="79.31984126984128" type="curve" smooth="yes"/>
      <point x="682.7238095238096" y="79.31984126984128"/>
      <point x="658.5373015873015" y="175.9857142857143"/>
      <point x="708.8174603174604" y="278.53015873015875" type="curve"/>
      <point x="631.2063492063493" y="325.8436507936508" type="line"/>
      <point x="468.0801587301587" y="151.4579365079365"/>
      <point x="499.17460317460313" y="-32.43174603174604"/>
      <point x="652.7650793650793" y="-105.81349206349205" type="curve"/>
      <point x="652.7650793650793" y="-110.81349206349205" type="line"/>
      <point x="517.8785714285715" y="-129.7452380952381"/>
      <point x="461.81111111111113" y="-314.8079365079365"/>
      <point x="312.5674603174603" y="-314.8079365079365" type="curve" smooth="yes"/>
      <point x="237.5468253968254" y="-314.8079365079365"/>
      <point x="198.5809523809524" y="-273.3269841269841"/>
      <point x="198.5809523809524" y="-221.79761904761904" type="curve" smooth="yes"/>
      <point x="198.5809523809524" y="-178.00158730158728"/>
      <point x="230.5222222222222" y="-146.9404761904762"/>
      <point x="269.15714285714284" y="-146.9404761904762" type="curve" smooth="yes"/>
      <point x="312.8126984126984" y="-146.9404761904762"/>
      <point x="343.54841269841273" y="-174.02301587301588"/>
      <point x="356.57380952380953" y="-228.4674603174603" type="curve"/>
      <point x="397.25952380952384" y="-210.702380952381"/>
      <point x="428.78968253968253" y="-182.55"/>
      <point x="428.78968253968253" y="-139.6230158730159" type="curve" smooth="yes"/>
      <point x="428.78968253968253" y="-86.23888888888891"/>
      <point x="371.8119047619048" y="-53.9968253968254"/>
      <point x="308.3079365079365" y="-53.9968253968254" type="curve" smooth="yes"/>
      <point x="203.6047619047619" y="-53.9968253968254"/>
      <point x="133.94206349206348" y="-124.88730158730158"/>
      <point x="133.94206349206348" y="-214.50476190476192" type="curve" smooth="yes"/>
      <point x="133.94206349206348" y="-324.28333333333336"/>
      <point x="227.1222222222222" y="-389.3960317460318"/>
    </contour>
  </outline>
</glyph>
<glyph name="au-tamil" format="2">
  <advance width="2326.197619047619"/>
  <unicode hex="0B94"/>
  <note>
uni0B94
</note>
  <anchor x="1190.9626984126983" y="0.0" name="bottom"/>
  <anchor x="1295.329365079365" y="0.0" name="nukta"/>
  <anchor x="1184.329365079365" y="573.2253968253967" name="top"/>
  <anchor x="1184.329365079365" y="573.2253968253967" name="vedic"/>
  <outline>
    <contour>
      <point x="1311.3500000000001" y="-4.999999999999999" type="curve" smooth="yes"/>
      <point x="1436.9785714285715" y="-4.999999999999999"/>
      <point x="1514.5873015873017" y="63.73412698412699"/>
      <point x="1514.5873015873017" y="171.99920634920633" type="curve" smooth="yes"/>
      <point x="1514.5873015873017" y="263.6071428571429"/>
      <point x="1454.338888888889" y="337.56666666666666"/>
      <point x="1348.938888888889" y="337.56666666666666" type="curve" smooth="yes"/>
      <point x="1226.4873015873018" y="337.56666666666666"/>
      <point x="1160.177777777778" y="239.85396825396828"/>
      <point x="1156.1928571428568" y="115.92936507936507" type="curve"/>
      <point x="1201.6460317460317" y="90.00000000000001" type="line"/>
      <point x="1205.661111111111" y="179.0"/>
      <point x="1239.534126984127" y="235.84444444444446"/>
      <point x="1293.3515873015874" y="235.84444444444446" type="curve" smooth="yes"/>
      <point x="1332.7015873015873" y="235.84444444444446"/>
      <point x="1359.336507936508" y="204.4269841269841"/>
      <point x="1359.336507936508" y="159.77380952380952" type="curve" smooth="yes"/>
      <point x="1359.336507936508" y="109.86031746031746"/>
      <point x="1331.6960317460314" y="73.90873015873017"/>
      <point x="1276.7365079365081" y="73.90873015873017" type="curve" smooth="yes"/>
      <point x="1208.5912698412696" y="73.90873015873017"/>
      <point x="1150.6785714285716" y="147.85873015873017"/>
      <point x="1150.6785714285716" y="260.3968253968254" type="curve" smooth="yes"/>
      <point x="1150.6785714285716" y="407.7166666666667"/>
      <point x="1249.9515873015876" y="504.43809523809523"/>
      <point x="1404.3285714285712" y="504.43809523809523" type="curve" smooth="yes"/>
      <point x="1544.8992063492065" y="504.43809523809523"/>
      <point x="1646.8150793650796" y="420.5690476190476"/>
      <point x="1646.8150793650796" y="289.684126984127" type="curve"/>
      <point x="1718.8968253968255" y="304.52301587301594" type="line"/>
      <point x="1703.0111111111112" y="496.92380952380955"/>
      <point x="1552.936507936508" y="577.8785714285714"/>
      <point x="1403.4595238095237" y="577.8785714285714" type="curve" smooth="yes"/>
      <point x="1197.3642857142856" y="577.8785714285714"/>
      <point x="1079.1158730158731" y="442.41587301587305"/>
      <point x="1079.1158730158731" y="261.8492063492064" type="curve" smooth="yes"/>
      <point x="1079.1158730158731" y="111.85"/>
      <point x="1169.868253968254" y="-4.999999999999999"/>
    </contour>
    <contour>
      <point x="1646.8150793650796" y="0.0" type="line"/>
      <point x="1830.4047619047617" y="0.0" type="line"/>
      <point x="1830.4047619047617" y="506.3309523809524" type="line"/>
      <point x="1997.0404761904765" y="506.3309523809524" type="line"/>
      <point x="1997.0404761904765" y="0.0" type="line"/>
      <point x="2180.464285714286" y="0.0" type="line"/>
      <point x="2180.464285714286" y="506.3309523809524" type="line"/>
      <point x="2311.1674603174606" y="506.3309523809524" type="line"/>
      <point x="2311.1674603174606" y="573.2253968253967" type="line"/>
      <point x="1690.8000000000002" y="573.2253968253967" type="line"/>
      <point x="1690.8000000000002" y="338.82063492063486" type="line"/>
      <point x="1646.8150793650796" y="356.43809523809523" type="line"/>
    </contour>
    <component base="o-tamil"/>
  </outline>
</glyph>
<glyph name="nga-tamil" format="2">
  <advance width="1031.1444444444444"/>
  <unicode hex="0B99"/>
  <note>
uni0B99
</note>
  <anchor x="508.78888888888895" y="0.0" name="bottom"/>
  <anchor x="560.2515873015873" y="573.2253968253967" name="imatra"/>
  <anchor x="510.42142857142863" y="0.0" name="nukta"/>
  <anchor x="530.94126984127" y="573.2253968253967" name="top"/>
  <anchor x="514.2611111111111" y="573.2253968253967" name="vedic"/>
  <outline>
    <contour>
      <point x="73.16507936507935" y="0.0" type="line"/>
      <point x="147.65317460317462" y="0.0" type="line"/>
      <point x="147.65317460317462" y="506.3309523809524" type="line"/>
      <point x="269.16507936507935" y="506.3309523809524" type="line"/>
      <point x="269.16507936507935" y="176.65873015873015" type="line"/>
      <point x="436.0309523809524" y="176.65873015873015" type="line"/>
      <point x="436.0309523809524" y="233.6190476190476" type="line" smooth="yes"/>
      <point x="436.0309523809524" y="264.9079365079365"/>
      <point x="453.75714285714287" y="285.5571428571428"/>
      <point x="481.29206349206345" y="285.5571428571428" type="curve" smooth="yes"/>
      <point x="512.068253968254" y="285.5571428571428"/>
      <point x="530.0952380952382" y="260.0079365079365"/>
      <point x="530.0952380952382" y="207.56428571428572" type="curve" smooth="yes"/>
      <point x="530.0952380952382" y="126.96746031746034"/>
      <point x="482.6777777777779" y="67.06031746031746"/>
      <point x="391.9396825396825" y="67.06031746031746" type="curve" smooth="yes"/>
      <point x="269.16507936507935" y="67.06031746031746" type="line"/>
      <point x="269.16507936507935" y="0.0" type="line"/>
      <point x="957.85873015873" y="0.0" type="line"/>
      <point x="957.85873015873" y="573.2253968253967" type="line"/>
      <point x="775.0031746031747" y="573.2253968253967" type="line"/>
      <point x="775.0031746031747" y="67.06031746031746" type="line"/>
      <point x="560.2579365079365" y="67.06031746031746" type="line"/>
      <point x="635.4158730158731" y="88.40555555555557"/>
      <point x="699.0468253968254" y="147.97142857142862"/>
      <point x="699.0468253968254" y="243.25396825396825" type="curve" smooth="yes"/>
      <point x="699.0468253968254" y="334.2531746031746"/>
      <point x="645.1944444444445" y="393.25"/>
      <point x="556.8238095238095" y="393.25" type="curve" smooth="yes"/>
      <point x="499.2492063492063" y="393.25"/>
      <point x="462.64920634920634" y="364.7777777777778"/>
      <point x="441.51825396825393" y="335.3666666666666" type="curve"/>
      <point x="441.51825396825393" y="506.3309523809524" type="line"/>
      <point x="589.9761904761905" y="506.3309523809524" type="line"/>
      <point x="589.9761904761905" y="573.2253968253967" type="line"/>
      <point x="73.16507936507935" y="573.2253968253967" type="line"/>
    </contour>
  </outline>
</glyph>
<glyph name="tta-tamil" format="2">
  <advance width="908.3293650793651"/>
  <unicode hex="0B9F"/>
  <note>
uni0B9F
</note>
  <anchor x="459.02619047619044" y="0.0" name="bottom"/>
  <anchor x="459.02619047619044" y="0.0" name="nukta"/>
  <anchor x="502.6126984126984" y="573.2253968253967" name="top"/>
  <anchor x="486.0992063492063" y="573.2253968253967" name="vedic"/>
  <outline>
    <contour>
      <point x="73.16507936507935" y="0.0" type="line"/>
      <point x="899.3650793650794" y="0.0" type="line"/>
      <point x="899.3650793650794" y="67.06031746031746" type="line"/>
      <point x="255.47301587301592" y="67.06031746031746" type="line"/>
      <point x="255.47301587301592" y="573.2253968253967" type="line"/>
      <point x="73.16507936507935" y="573.2253968253967" type="line"/>
    </contour>
  </outline>
</glyph>
<glyph name="nna-tamil" format="2">
  <advance width="1817.5571428571432"/>
  <unicode hex="0BA3"/>
  <note>
uni0BA3
</note>
  <anchor x="956.929365079365" y="0.0" name="bottom"/>
  <anchor x="1685.6484126984126" y="573.2253968253967" name="imatra"/>
  <anchor x="956.7634920634921" y="0.0" name="nukta"/>
  <anchor x="946.984126984127" y="573.2253968253967" name="top"/>
  <anchor x="929.6269841269842" y="573.2253968253967" name="vedic"/>
  <outline>
    <contour>
      <point x="733.6603174603174" y="-4.286507936507936" type="curve" smooth="yes"/>
      <point x="856.1714285714287" y="-4.286507936507936"/>
      <point x="930.9880952380953" y="78.56904761904762"/>
      <point x="930.9880952380953" y="209.92301587301588" type="curve" smooth="yes"/>
      <point x="930.9880952380953" y="437.6230158730159"/>
      <point x="721.0357142857142" y="578.7730158730158"/>
      <point x="452.46507936507936" y="578.7730158730158" type="curve" smooth="yes"/>
      <point x="222.6865079365079" y="578.7730158730158"/>
      <point x="48.03174603174603" y="453.84285714285716"/>
      <point x="48.03174603174603" y="251.2484126984127" type="curve" smooth="yes"/>
      <point x="48.03174603174603" y="103.25476190476192"/>
      <point x="140.44285714285715" y="-4.999999999999999"/>
      <point x="280.5523809523809" y="-4.999999999999999" type="curve" smooth="yes"/>
      <point x="406.38174603174605" y="-4.999999999999999"/>
      <point x="483.44285714285706" y="65.46825396825398"/>
      <point x="483.44285714285706" y="173.73333333333332" type="curve" smooth="yes"/>
      <point x="483.44285714285706" y="265.3412698412699"/>
      <point x="423.5412698412698" y="337.56666666666666"/>
      <point x="317.9753968253969" y="337.56666666666666" type="curve" smooth="yes"/>
      <point x="193.62380952380954" y="337.56666666666666"/>
      <point x="125.30873015873017" y="236.1293650793651"/>
      <point x="125.0484126984127" y="115.92936507936507" type="curve"/>
      <point x="170.66746031746035" y="90.00000000000001" type="line"/>
      <point x="174.6825396825397" y="179.0"/>
      <point x="208.73650793650793" y="235.84444444444446"/>
      <point x="262.3880952380952" y="235.84444444444446" type="curve" smooth="yes"/>
      <point x="301.9238095238095" y="235.84444444444446"/>
      <point x="328.5388888888889" y="204.4269841269841"/>
      <point x="328.5388888888889" y="159.77380952380952" type="curve" smooth="yes"/>
      <point x="328.5388888888889" y="109.86031746031746"/>
      <point x="300.752380952381" y="73.90873015873017"/>
      <point x="245.93888888888887" y="73.90873015873017" type="curve" smooth="yes"/>
      <point x="178.62777777777777" y="73.90873015873017"/>
      <point x="119.59444444444445" y="139.26349206349207"/>
      <point x="119.59444444444445" y="250.36904761904762" type="curve" smooth="yes"/>
      <point x="119.59444444444445" y="411.7730158730158"/>
      <point x="260.29761904761904" y="508.44206349206354"/>
      <point x="432.7920634920635" y="508.44206349206354" type="curve" smooth="yes"/>
      <point x="634.3928571428572" y="508.44206349206354"/>
      <point x="771.4888888888888" y="386.61904761904765"/>
      <point x="771.4888888888888" y="197.50714285714287" type="curve" smooth="yes"/>
      <point x="771.4888888888888" y="122.95238095238096"/>
      <point x="745.1849206349208" y="77.98968253968255"/>
      <point x="696.5134920634919" y="77.98968253968255" type="curve" smooth="yes"/>
      <point x="651.1031746031746" y="77.98968253968255"/>
      <point x="622.0309523809524" y="123.80634920634922"/>
      <point x="622.0309523809524" y="203.05" type="curve" smooth="yes"/>
      <point x="622.0309523809524" y="373.3896825396825"/>
      <point x="757.4380952380952" y="508.7888888888889"/>
      <point x="937.3293650793651" y="508.7888888888889" type="curve" smooth="yes"/>
      <point x="1112.7880952380951" y="508.7888888888889"/>
      <point x="1222.9738095238092" y="377.49603174603175"/>
      <point x="1222.9738095238092" y="196.1198412698413" type="curve" smooth="yes"/>
      <point x="1222.9738095238092" y="121.95714285714286"/>
      <point x="1197.509523809524" y="77.98968253968255"/>
      <point x="1149.7579365079366" y="77.98968253968255" type="curve" smooth="yes"/>
      <point x="1103.6087301587302" y="77.98968253968255"/>
      <point x="1075.4309523809525" y="121.27301587301586"/>
      <point x="1075.4309523809525" y="198.43571428571428" type="curve" smooth="yes"/>
      <point x="1075.4309523809525" y="378.65238095238095"/>
      <point x="1209.412698412698" y="506.3309523809524"/>
      <point x="1439.4412698412698" y="506.3309523809524" type="curve" smooth="yes"/>
      <point x="1802.5269841269842" y="506.3309523809524" type="line"/>
      <point x="1802.5269841269842" y="573.2253968253967" type="line"/>
      <point x="1435.9603174603176" y="573.2253968253967" type="line" smooth="yes"/>
      <point x="1162.2809523809522" y="573.2253968253967"/>
      <point x="1004.8428571428569" y="404.2912698412699"/>
      <point x="1004.8428571428569" y="204.95793650793652" type="curve" smooth="yes"/>
      <point x="1004.8428571428569" y="82.07698412698414"/>
      <point x="1060.9158730158729" y="-4.633333333333333"/>
      <point x="1186.6079365079365" y="-4.633333333333333" type="curve" smooth="yes"/>
      <point x="1309.49126984127" y="-4.633333333333333"/>
      <point x="1382.619047619048" y="76.20158730158731"/>
      <point x="1382.619047619048" y="210.04365079365078" type="curve" smooth="yes"/>
      <point x="1382.619047619048" y="430.27936507936505"/>
      <point x="1201.6539682539683" y="578.4261904761904"/>
      <point x="954.3031746031745" y="578.4261904761904" type="curve" smooth="yes"/>
      <point x="725.3071428571428" y="578.4261904761904"/>
      <point x="550.784126984127" y="402.2706349206349"/>
      <point x="550.784126984127" y="208.0793650793651" type="curve" smooth="yes"/>
      <point x="550.784126984127" y="82.07698412698412"/>
      <point x="608.3952380952381" y="-4.286507936507936"/>
    </contour>
    <contour>
      <point x="1489.093650793651" y="0.0" type="line"/>
      <point x="1673.5579365079366" y="0.0" type="line"/>
      <point x="1673.5579365079366" y="539.9944444444444" type="line"/>
      <point x="1489.093650793651" y="539.9944444444444" type="line"/>
    </contour>
  </outline>
</glyph>
<glyph name="ta-tamil" format="2">
  <advance width="882.7769841269842"/>
  <unicode hex="0BA4"/>
  <note>
uni0BA4
</note>
  <anchor x="426.7730158730159" y="0.0" name="bottom"/>
  <anchor x="574.6555555555556" y="573.2253968253967" name="imatra"/>
  <anchor x="501.1563492063492" y="-134.27142857142857" name="nukta"/>
  <anchor x="451.27222222222224" y="573.2253968253967" name="top"/>
  <anchor x="450.152380952381" y="573.2253968253967" name="vedic"/>
  <outline>
    <contour>
      <point x="190.9611111111111" y="-288.22936507936504" type="curve"/>
      <point x="190.9611111111111" y="-189.45158730158732"/>
      <point x="217.13809523809525" y="-130.2214285714286"/>
      <point x="335.17142857142863" y="-130.2214285714286" type="curve" smooth="yes"/>
      <point x="494.4666666666667" y="-130.2214285714286" type="line" smooth="yes"/>
      <point x="692.7174603174603" y="-130.2214285714286"/>
      <point x="835.2325396825396" y="-63.93015873015874"/>
      <point x="835.2325396825396" y="108.28968253968254" type="curve" smooth="yes"/>
      <point x="835.2325396825396" y="271.51746031746035"/>
      <point x="713.9174603174603" y="338.08492063492065"/>
      <point x="563.7301587301588" y="338.08492063492065" type="curve" smooth="yes"/>
      <point x="546.7571428571429" y="338.08492063492065" type="line"/>
      <point x="546.7571428571429" y="505.818253968254" type="line"/>
      <point x="691.5325396825399" y="505.818253968254" type="line"/>
      <point x="691.5325396825399" y="573.2253968253967" type="line"/>
      <point x="164.86904761904765" y="573.2253968253967" type="line"/>
      <point x="164.86904761904765" y="303.9650793650794" type="line"/>
      <point x="238.6690476190476" y="303.9650793650794" type="line"/>
      <point x="238.6690476190476" y="505.818253968254" type="line"/>
      <point x="363.5404761904762" y="505.818253968254" type="line"/>
      <point x="363.5404761904762" y="338.37142857142857" type="line"/>
      <point x="231.59841269841272" y="338.37142857142857" type="line" smooth="yes"/>
      <point x="129.39523809523808" y="338.37142857142857"/>
      <point x="50.99761904761905" y="274.9047619047619"/>
      <point x="50.99761904761905" y="177.84920634920636" type="curve" smooth="yes"/>
      <point x="50.99761904761905" y="72.85952380952381"/>
      <point x="125.04523809523812" y="-4.0"/>
      <point x="275.1539682539683" y="-4.0" type="curve" smooth="yes"/>
      <point x="450.5857142857143" y="-4.0"/>
      <point x="546.7571428571429" y="86.5484126984127"/>
      <point x="546.7571428571429" y="223.58333333333337" type="curve" smooth="yes"/>
      <point x="546.7571428571429" y="270.8587301587301" type="line"/>
      <point x="554.5706349206349" y="270.8587301587301" type="line" smooth="yes"/>
      <point x="609.4587301587302" y="270.8587301587301"/>
      <point x="664.963492063492" y="223.11825396825395"/>
      <point x="664.963492063492" y="115.28809523809524" type="curve" smooth="yes"/>
      <point x="664.963492063492" y="-23.395238095238092"/>
      <point x="571.1896825396827" y="-71.70873015873016"/>
      <point x="427.1269841269841" y="-71.70873015873016" type="curve" smooth="yes"/>
      <point x="271.59682539682547" y="-71.70873015873016" type="line" smooth="yes"/>
      <point x="155.0468253968254" y="-71.70873015873016"/>
      <point x="50.159523809523805" y="-92.5579365079365"/>
      <point x="50.159523809523805" y="-188.51190476190476" type="curve" smooth="yes"/>
      <point x="50.159523809523805" y="-256.6166666666667"/>
      <point x="107.50238095238095" y="-288.22936507936504"/>
    </contour>
    <contour>
      <point x="235.84920634920636" y="72.54126984126985" type="curve" smooth="yes"/>
      <point x="163.26428571428568" y="72.54126984126985"/>
      <point x="124.02857142857144" y="112.41190476190478"/>
      <point x="124.02857142857144" y="175.78888888888892" type="curve" smooth="yes"/>
      <point x="124.02857142857144" y="234.67936507936508"/>
      <point x="160.87063492063493" y="270.9642857142857"/>
      <point x="235.69444444444443" y="270.9642857142857" type="curve" smooth="yes"/>
      <point x="363.5404761904762" y="270.9642857142857" type="line"/>
      <point x="363.5404761904762" y="211.4626984126984" type="line" smooth="yes"/>
      <point x="363.19365079365076" y="117.25793650793649"/>
      <point x="313.5976190476191" y="72.54126984126985"/>
    </contour>
  </outline>
</glyph>
<glyph name="pa-tamil" format="2">
  <advance width="907.7380952380952"/>
  <unicode hex="0BAA"/>
  <note>
uni0BAA
</note>
  <anchor x="457.6" y="0.0" name="bottom"/>
  <anchor x="825.4722222222224" y="573.2253968253967" name="imatra"/>
  <anchor x="457.6" y="0.0" name="nukta"/>
  <anchor x="457.91587301587305" y="573.2253968253967" name="top"/>
  <anchor x="455.0380952380952" y="573.2253968253967" name="vedic"/>
  <outline>
    <contour>
      <point x="73.16507936507935" y="0.0" type="line"/>
      <point x="834.4523809523811" y="0.0" type="line"/>
      <point x="834.4523809523811" y="573.2253968253967" type="line"/>
      <point x="652.7119047619049" y="573.2253968253967" type="line"/>
      <point x="652.7119047619049" y="67.06031746031746" type="line"/>
      <point x="255.02063492063496" y="67.06031746031746" type="line"/>
      <point x="255.02063492063496" y="573.2253968253967" type="line"/>
      <point x="73.16507936507935" y="573.2253968253967" type="line"/>
    </contour>
  </outline>
</glyph>
<glyph name="ma-tamil" format="2">
  <advance width="907.531746031746"/>
  <unicode hex="0BAE"/>
  <note>
uni0BAE
</note>
  <anchor x="445.81111111111113" y="0.0" name="bottom"/>
  <anchor x="844.820634920635" y="573.2253968253967" name="imatra"/>
  <anchor x="446.5246031746032" y="0.0" name="nukta"/>
  <anchor x="463.92380952380955" y="573.2253968253967" name="top"/>
  <anchor x="466.26825396825393" y="573.2253968253967" name="vedic"/>
  <outline>
    <contour>
      <point x="73.16507936507935" y="0.0" type="line"/>
      <point x="694.6055555555557" y="0.0" type="line" smooth="yes"/>
      <point x="801.1888888888889" y="0.0"/>
      <point x="855.5801587301588" y="76.00238095238096"/>
      <point x="855.5801587301588" y="233.16587301587302" type="curve" smooth="yes"/>
      <point x="855.5801587301588" y="453.6698412698413"/>
      <point x="761.786507936508" y="578.7126984126984"/>
      <point x="610.4134920634921" y="578.7126984126984" type="curve" smooth="yes"/>
      <point x="478.60555555555555" y="578.7126984126984"/>
      <point x="419.7206349206349" y="502.71269841269844"/>
      <point x="419.7206349206349" y="383.1666666666667" type="curve" smooth="yes"/>
      <point x="419.7206349206349" y="67.06031746031746" type="line"/>
      <point x="255.8198412698413" y="67.06031746031746" type="line"/>
      <point x="255.8198412698413" y="573.2253968253967" type="line"/>
      <point x="73.16507936507935" y="573.2253968253967" type="line"/>
    </contour>
    <contour>
      <point x="602.35" y="67.06031746031746" type="line"/>
      <point x="602.35" y="392.00158730158734" type="line" smooth="yes"/>
      <point x="602.35" y="465.1309523809524"/>
      <point x="618.7238095238096" y="494.82698412698414"/>
      <point x="660.1198412698413" y="494.82698412698414" type="curve" smooth="yes"/>
      <point x="716.2492063492064" y="494.82698412698414"/>
      <point x="783.0071428571429" y="412.7309523809524"/>
      <point x="783.0071428571429" y="235.66825396825396" type="curve" smooth="yes"/>
      <point x="783.0071428571429" y="119.00238095238096"/>
      <point x="755.7555555555556" y="67.06031746031746"/>
      <point x="690.0071428571429" y="67.06031746031746" type="curve" smooth="yes"/>
    </contour>
  </outline>
</glyph>
<glyph name="ya-tamil" format="2">
  <advance width="1019.2571428571429"/>
  <unicode hex="0BAF"/>
  <note>
uni0BAF
</note>
  <anchor x="531.7920634920634" y="0.0" name="bottom"/>
  <anchor x="938.0055555555556" y="573.2253968253967" name="imatra"/>
  <anchor x="529.2349206349206" y="0.0" name="nukta"/>
  <anchor x="511.59603174603177" y="573.2253968253967" name="top"/>
  <anchor x="508.62063492063487" y="573.2253968253967" name="vedic"/>
  <outline>
    <contour>
      <point x="240.70952380952377" y="-11.110317460317459" type="curve" smooth="yes"/>
      <point x="318.57936507936506" y="-11.110317460317459"/>
      <point x="360.2833333333334" y="21.766666666666666"/>
      <point x="389.9555555555555" y="61.75396825396825" type="curve"/>
      <point x="389.9555555555555" y="0.0" type="line"/>
      <point x="945.9714285714285" y="0.0" type="line"/>
      <point x="945.9714285714285" y="573.2253968253967" type="line"/>
      <point x="763.4023809523809" y="573.2253968253967" type="line"/>
      <point x="763.4023809523809" y="67.06031746031746" type="line"/>
      <point x="548.8420634920635" y="67.06031746031746" type="line"/>
      <point x="548.8420634920635" y="573.2253968253967" type="line"/>
      <point x="372.0563492063493" y="573.2253968253967" type="line"/>
      <point x="372.0563492063493" y="143.40873015873015" type="line" smooth="yes"/>
      <point x="372.0563492063493" y="100.06587301587301"/>
      <point x="343.81825396825394" y="74.71269841269842"/>
      <point x="309.64444444444445" y="74.71269841269842" type="curve" smooth="yes"/>
      <point x="273.85317460317464" y="74.71269841269842"/>
      <point x="251.19206349206345" y="93.33253968253968"/>
      <point x="251.19206349206345" y="148.02698412698413" type="curve" smooth="yes"/>
      <point x="251.19206349206345" y="573.2253968253967" type="line"/>
      <point x="69.19047619047619" y="573.2253968253967" type="line"/>
      <point x="69.19047619047619" y="166.25317460317459" type="line" smooth="yes"/>
      <point x="69.19047619047619" y="52.72619047619048"/>
      <point x="138.76507936507934" y="-11.110317460317459"/>
    </contour>
  </outline>
</glyph>
<glyph name="ra-tamil" format="2">
  <advance width="643.1365079365078"/>
  <unicode hex="0BB0"/>
  <note>
uni0BB0
</note>
  <anchor x="315.4714285714286" y="0.0" name="bottom"/>
  <anchor x="546.2801587301587" y="573.2253968253967" name="imatra"/>
  <anchor x="315.4714285714286" y="-245.46587301587303" name="nukta"/>
  <anchor x="332.54126984126987" y="573.2253968253967" name="top"/>
  <anchor x="349.7190476190476" y="573.2253968253967" name="vedic"/>
  <outline>
    <contour>
      <point x="149.70714285714288" y="-266.2142857142857" type="line"/>
      <point x="498.5896825396826" y="33.92301587301587" type="line"/>
      <point x="498.5896825396826" y="506.3309523809524" type="line"/>
      <point x="628.1063492063493" y="506.3309523809524" type="line"/>
      <point x="628.1063492063493" y="573.2253968253967" type="line"/>
      <point x="74.89920634920632" y="573.2253968253967" type="line"/>
      <point x="74.89920634920632" y="0.0" type="line"/>
      <point x="149.49285714285713" y="0.0" type="line"/>
      <point x="149.49285714285713" y="506.3309523809524" type="line"/>
      <point x="316.0555555555556" y="506.3309523809524" type="line"/>
      <point x="316.0555555555556" y="-25.68174603174603" type="line"/>
      <point x="101.62301587301589" y="-210.79999999999998" type="line"/>
    </contour>
  </outline>
</glyph>
<glyph name="la-tamil" format="2">
  <advance width="1088.588888888889"/>
  <unicode hex="0BB2"/>
  <note>
uni0BB2
</note>
  <anchor x="539.9412698412698" y="0.0" name="bottom"/>
  <anchor x="538.1325396825396" y="0.0" name="nukta"/>
  <anchor x="548.6507936507937" y="573.2253968253967" name="top"/>
  <anchor x="540.7095238095238" y="573.2253968253967" name="vedic"/>
  <outline>
    <contour>
      <point x="280.265873015873" y="-4.999999999999999" type="curve" smooth="yes"/>
      <point x="406.2611111111111" y="-4.999999999999999"/>
      <point x="483.44285714285706" y="65.46825396825398"/>
      <point x="483.44285714285706" y="173.73333333333332" type="curve" smooth="yes"/>
      <point x="483.44285714285706" y="265.3412698412699"/>
      <point x="423.54126984126987" y="337.56666666666666"/>
      <point x="317.8547619047619" y="337.56666666666666" type="curve" smooth="yes"/>
      <point x="195.05634920634924" y="337.56666666666666"/>
      <point x="128.7468253968254" y="239.85396825396828"/>
      <point x="124.76190476190476" y="115.92936507936507" type="curve"/>
      <point x="170.3809523809524" y="90.00000000000001" type="line"/>
      <point x="174.39603174603175" y="179.0"/>
      <point x="208.45000000000002" y="235.84444444444446"/>
      <point x="262.26746031746035" y="235.84444444444446" type="curve" smooth="yes"/>
      <point x="301.6373015873016" y="235.84444444444446"/>
      <point x="328.4182539682539" y="204.4269841269841"/>
      <point x="328.4182539682539" y="159.77380952380952" type="curve" smooth="yes"/>
      <point x="328.4182539682539" y="109.86031746031746"/>
      <point x="300.63174603174605" y="73.90873015873017"/>
      <point x="245.652380952381" y="73.90873015873017" type="curve" smooth="yes"/>
      <point x="177.36111111111111" y="73.90873015873017"/>
      <point x="119.59444444444445" y="147.85873015873017"/>
      <point x="119.59444444444445" y="260.39682539682536" type="curve" smooth="yes"/>
      <point x="119.59444444444445" y="409.963492063492"/>
      <point x="213.8190476190476" y="504.16587301587305"/>
      <point x="358.63650793650794" y="504.16587301587305" type="curve" smooth="yes"/>
      <point x="510.69126984126984" y="504.16587301587305"/>
      <point x="573.8563492063493" y="409.82936507936506"/>
      <point x="574.0222222222222" y="277.1896825396825" type="curve" smooth="yes"/>
      <point x="574.0222222222222" y="192.04047619047623" type="line" smooth="yes"/>
      <point x="574.0222222222222" y="70.66031746031746"/>
      <point x="643.4658730158731" y="-4.502380952380952"/>
      <point x="783.6611111111112" y="-4.502380952380952" type="curve" smooth="yes"/>
      <point x="937.7023809523811" y="-4.502380952380952"/>
      <point x="1035.888888888889" y="116.32142857142858"/>
      <point x="1035.888888888889" y="304.9047619047619" type="curve" smooth="yes"/>
      <point x="1035.888888888889" y="401.43571428571425"/>
      <point x="1004.5119047619046" y="484.71269841269833"/>
      <point x="937.1119047619048" y="577.2452380952382" type="curve"/>
      <point x="877.4642857142858" y="538.2595238095238" type="line"/>
      <point x="937.0650793650794" y="455.42539682539683"/>
      <point x="964.7079365079366" y="388.66825396825396"/>
      <point x="964.7079365079366" y="295.4976190476191" type="curve" smooth="yes"/>
      <point x="964.7079365079366" y="162.72142857142853"/>
      <point x="899.1531746031745" y="75.00793650793652"/>
      <point x="827.347619047619" y="75.00793650793652" type="curve" smooth="yes"/>
      <point x="777.8396825396826" y="75.00793650793652"/>
      <point x="758.1190476190476" y="109.50396825396827"/>
      <point x="758.1190476190476" y="181.86984126984132" type="curve" smooth="yes"/>
      <point x="758.1190476190476" y="288.33492063492065" type="line" smooth="yes"/>
      <point x="758.1190476190476" y="471.57619047619056"/>
      <point x="618.8285714285713" y="578.2253968253967"/>
      <point x="402.08174603174604" y="578.2253968253967" type="curve" smooth="yes"/>
      <point x="177.6468253968254" y="578.2253968253967"/>
      <point x="48.03174603174603" y="448.3269841269842"/>
      <point x="48.03174603174603" y="261.8492063492063" type="curve" smooth="yes"/>
      <point x="48.03174603174603" y="111.85"/>
      <point x="138.6031746031746" y="-4.999999999999999"/>
    </contour>
  </outline>
</glyph>
<glyph name="llla-tamil" format="2">
  <advance width="907.531746031746"/>
  <unicode hex="0BB4"/>
  <note>
uni0BB4
</note>
  <anchor x="466.10079365079366" y="0.0" name="bottom"/>
  <anchor x="465.4134920634921" y="-363.586507936508" name="nukta"/>
  <anchor x="477.6507936507936" y="573.2253968253967" name="top"/>
  <anchor x="461.39682539682536" y="573.2253968253967" name="vedic"/>
  <anchor x="844.820634920635" y="573.2253968253967" name="imatra"/>
  <outline>
    <contour>
      <point x="307.14841269841264" y="-394.9579365079365" type="curve" smooth="yes"/>
      <point x="550.6547619047618" y="-394.9579365079365"/>
      <point x="584.0809523809523" y="-187.16349206349204"/>
      <point x="757.3642857142856" y="-187.16349206349204" type="curve" smooth="yes"/>
      <point x="786.2436507936508" y="-187.16349206349204" type="line"/>
      <point x="786.2436507936508" y="-119.87698412698411" type="line"/>
      <point x="743.8015873015872" y="-119.87698412698411" type="line" smooth="yes"/>
      <point x="666.4285714285713" y="-119.87698412698411"/>
      <point x="602.35" y="-86.76190476190477"/>
      <point x="602.35" y="10.728571428571431" type="curve" smooth="yes"/>
      <point x="602.35" y="119.8436507936508" type="line"/>
      <point x="420.2333333333333" y="119.8436507936508" type="line"/>
      <point x="420.2333333333333" y="15.944444444444446" type="line" smooth="yes"/>
      <point x="420.2333333333333" y="-64.37063492063493"/>
      <point x="503.436507936508" y="-128.12777777777777"/>
      <point x="595.3222222222222" y="-143.61984126984126" type="curve"/>
      <point x="595.3222222222222" y="-149.33333333333331" type="line"/>
      <point x="436.61190476190484" y="-170.56825396825397"/>
      <point x="395.9865079365079" y="-315.97857142857134"/>
      <point x="264.5277777777777" y="-315.97857142857134" type="curve" smooth="yes"/>
      <point x="207.94761904761904" y="-315.97857142857134"/>
      <point x="161.3373015873016" y="-283.39365079365075"/>
      <point x="161.3373015873016" y="-225.3309523809524" type="curve" smooth="yes"/>
      <point x="161.3373015873016" y="-176.73095238095237"/>
      <point x="192.40952380952382" y="-142.47777777777776"/>
      <point x="244.0452380952381" y="-142.47777777777776" type="curve" smooth="yes"/>
      <point x="278.79523809523806" y="-142.47777777777776"/>
      <point x="306.484126984127" y="-157.61349206349206"/>
      <point x="333.379365079365" y="-185.38888888888889" type="curve"/>
      <point x="375.3301587301587" y="-137.42380952380955" type="line"/>
      <point x="335.6261904761906" y="-96.4873015873016"/>
      <point x="291.56349206349205" y="-77.23095238095237"/>
      <point x="240.2515873015873" y="-77.23095238095237" type="curve" smooth="yes"/>
      <point x="150.7404761904762" y="-77.23095238095237"/>
      <point x="92.00476190476189" y="-141.915873015873"/>
      <point x="92.00476190476189" y="-224.99920634920636" type="curve" smooth="yes"/>
      <point x="92.00476190476189" y="-328.71666666666675"/>
      <point x="181.94920634920632" y="-394.9579365079365"/>
    </contour>
    <component base="ma-tamil"/>
  </outline>
</glyph>
<glyph name="va-tamil" format="2">
  <advance width="1148.836507936508"/>
  <unicode hex="0BB5"/>
  <note>
uni0BB5
</note>
  <anchor x="600.6999999999999" y="0.0" name="bottom"/>
  <anchor x="909.7698412698414" y="573.2253968253967" name="imatra"/>
  <anchor x="594.3746031746032" y="0.0" name="nukta"/>
  <anchor x="587.7388888888889" y="573.2253968253967" name="top"/>
  <anchor x="572.4611111111111" y="573.2253968253967" name="vedic"/>
  <outline>
    <contour>
      <point x="280.265873015873" y="-4.999999999999999" type="curve" smooth="yes"/>
      <point x="406.2611111111111" y="-4.999999999999999"/>
      <point x="483.44285714285706" y="65.46825396825398"/>
      <point x="483.44285714285706" y="173.73333333333332" type="curve" smooth="yes"/>
      <point x="483.44285714285706" y="265.3412698412699"/>
      <point x="423.54126984126987" y="337.56666666666666"/>
      <point x="317.8547619047619" y="337.56666666666666" type="curve" smooth="yes"/>
      <point x="195.05634920634924" y="337.56666666666666"/>
      <point x="128.7468253968254" y="239.85396825396828"/>
      <point x="124.76190476190476" y="115.92936507936507" type="curve"/>
      <point x="170.3809523809524" y="90.00000000000001" type="line"/>
      <point x="174.39603174603175" y="179.0"/>
      <point x="208.45000000000002" y="235.84444444444446"/>
      <point x="262.26746031746035" y="235.84444444444446" type="curve" smooth="yes"/>
      <point x="301.6373015873016" y="235.84444444444446"/>
      <point x="328.4182539682539" y="204.4269841269841"/>
      <point x="328.4182539682539" y="159.77380952380952" type="curve" smooth="yes"/>
      <point x="328.4182539682539" y="109.86031746031746"/>
      <point x="300.63174603174605" y="73.90873015873017"/>
      <point x="245.652380952381" y="73.90873015873017" type="curve" smooth="yes"/>
      <point x="177.36111111111111" y="73.90873015873017"/>
      <point x="119.59444444444445" y="147.85873015873017"/>
      <point x="119.59444444444445" y="260.39682539682536" type="curve" smooth="yes"/>
      <point x="119.59444444444445" y="405.4849206349206"/>
      <point x="215.6277777777778" y="504.85952380952386"/>
      <point x="365.96507936507936" y="504.85952380952386" type="curve" smooth="yes"/>
      <point x="508.7420634920636" y="504.85952380952386"/>
      <point x="605.8396825396826" y="413.0801587301587"/>
      <point x="605.8396825396826" y="262.99523809523816" type="curve" smooth="yes"/>
      <point x="605.8396825396826" y="174.98968253968252"/>
      <point x="581.5912698412699" y="103.78333333333333"/>
      <point x="541.0238095238095" y="46.88412698412698" type="curve"/>
      <point x="563.7071428571427" y="0.0" type="line"/>
      <point x="1075.5507936507936" y="0.0" type="line"/>
      <point x="1075.5507936507936" y="573.2253968253967" type="line"/>
      <point x="893.3285714285714" y="573.2253968253967" type="line"/>
      <point x="893.3285714285714" y="67.06031746031746" type="line"/>
      <point x="673.3857142857144" y="67.06031746031746" type="line"/>
      <point x="740.5793650793651" y="128.12539682539682"/>
      <point x="779.3277777777778" y="197.1706349206349"/>
      <point x="779.3277777777778" y="288.0595238095238" type="curve" smooth="yes"/>
      <point x="779.3277777777778" y="473.44206349206354"/>
      <point x="616.9761904761906" y="578.2253968253967"/>
      <point x="411.16428571428565" y="578.2253968253967" type="curve" smooth="yes"/>
      <point x="177.54920634920634" y="578.2253968253967"/>
      <point x="48.03174603174603" y="444.72301587301587"/>
      <point x="48.03174603174603" y="261.8492063492063" type="curve" smooth="yes"/>
      <point x="48.03174603174603" y="111.85"/>
      <point x="138.6031746031746" y="-4.999999999999999"/>
    </contour>
  </outline>
</glyph>
<glyph name="sa-tamil" format="2">
  <advance width="1422.459523809524"/>
  <unicode hex="0BB8"/>
  <note>
uni0BB8
</note>
  <anchor x="727.1515873015874" y="0.0" name="bottom"/>
  <anchor x="725.6500000000001" y="0.0" name="nukta"/>
  <anchor x="718.8801587301588" y="573.2253968253967" name="top"/>
  <anchor x="720.6285714285714" y="573.2253968253967" name="vedic"/>
  <outline>
    <contour>
      <point x="582.9507936507937" y="0.0" type="line"/>
      <point x="766.1539682539682" y="0.0" type="line"/>
      <point x="766.1539682539682" y="421.83015873015876" type="line" smooth="yes"/>
      <point x="766.1539682539682" y="480.8761904761905"/>
      <point x="792.9190476190478" y="508.215873015873"/>
      <point x="839.2650793650794" y="508.215873015873" type="curve" smooth="yes"/>
      <point x="884.4198412698413" y="508.215873015873"/>
      <point x="907.6865079365081" y="476.57936507936506"/>
      <point x="907.6865079365081" y="430.04126984126987" type="curve" smooth="yes"/>
      <point x="907.6865079365081" y="192.04047619047623" type="line" smooth="yes"/>
      <point x="907.6865079365081" y="70.66031746031746"/>
      <point x="976.7634920634922" y="-4.849206349206349"/>
      <point x="1116.9587301587303" y="-4.849206349206349" type="curve" smooth="yes"/>
      <point x="1270.834126984127" y="-4.849206349206349"/>
      <point x="1369.759523809524" y="116.38174603174602"/>
      <point x="1369.759523809524" y="304.9047619047619" type="curve" smooth="yes"/>
      <point x="1369.759523809524" y="401.43571428571425"/>
      <point x="1338.9555555555557" y="484.71269841269844"/>
      <point x="1271.5555555555557" y="577.2452380952382" type="curve"/>
      <point x="1211.3349206349205" y="537.9730158730158" type="line"/>
      <point x="1270.9357142857143" y="455.1388888888889"/>
      <point x="1298.0055555555555" y="388.381746031746"/>
      <point x="1298.0055555555555" y="295.2111111111111" type="curve" smooth="yes"/>
      <point x="1298.0055555555555" y="162.14841269841267"/>
      <point x="1232.4507936507937" y="74.66111111111113"/>
      <point x="1160.9317460317461" y="74.66111111111113" type="curve" smooth="yes"/>
      <point x="1111.1373015873016" y="74.66111111111113"/>
      <point x="1091.7031746031746" y="109.15714285714286"/>
      <point x="1091.7031746031746" y="181.52301587301585" type="curve" smooth="yes"/>
      <point x="1091.7031746031746" y="385.8579365079365" type="line" smooth="yes"/>
      <point x="1091.7031746031746" y="515.2555555555556"/>
      <point x="986.8571428571429" y="577.1650793650794"/>
      <point x="856.0357142857143" y="577.1650793650794" type="curve" smooth="yes"/>
      <point x="736.4857142857143" y="577.1650793650794"/>
      <point x="636.4936507936507" y="521.0333333333333"/>
      <point x="636.4936507936507" y="420.18968253968256" type="curve" smooth="yes"/>
      <point x="636.4936507936507" y="352.66825396825396" type="line"/>
      <point x="582.9507936507937" y="352.66825396825396" type="line"/>
    </contour>
    <contour>
      <point x="283.7444444444445" y="-4.999999999999999" type="curve" smooth="yes"/>
      <point x="409.7198412698412" y="-4.999999999999999"/>
      <point x="485.9214285714285" y="63.73412698412699"/>
      <point x="485.9214285714285" y="171.99920634920633" type="curve" smooth="yes"/>
      <point x="485.9214285714285" y="263.6071428571429"/>
      <point x="426.73333333333335" y="337.56666666666666"/>
      <point x="321.02698412698413" y="337.56666666666666" type="curve" smooth="yes"/>
      <point x="191.8047619047619" y="337.56666666666666"/>
      <point x="131.11984126984126" y="234.65158730158728"/>
      <point x="127.81349206349208" y="115.64285714285714" type="curve"/>
      <point x="173.14603174603175" y="90.00000000000001" type="line"/>
      <point x="177.16111111111113" y="174.98888888888888"/>
      <point x="207.40476190476187" y="235.84444444444446"/>
      <point x="265.8920634920635" y="235.84444444444446" type="curve" smooth="yes"/>
      <point x="305.2619047619047" y="235.84444444444446"/>
      <point x="331.384126984127" y="204.4269841269841"/>
      <point x="331.384126984127" y="159.77380952380952" type="curve" smooth="yes"/>
      <point x="331.384126984127" y="109.86031746031746"/>
      <point x="303.80396825396826" y="73.90873015873017"/>
      <point x="248.99047619047622" y="73.90873015873017" type="curve" smooth="yes"/>
      <point x="180.69920634920638" y="73.90873015873017"/>
      <point x="122.35952380952381" y="148.1452380952381"/>
      <point x="122.35952380952381" y="260.6833333333334" type="curve" smooth="yes"/>
      <point x="122.35952380952381" y="411.13968253968255"/>
      <point x="221.58492063492065" y="503.29206349206345"/>
      <point x="359.16269841269843" y="503.29206349206345" type="curve" smooth="yes"/>
      <point x="503.6738095238095" y="503.29206349206345"/>
      <point x="583.1166666666668" y="431.29047619047617"/>
      <point x="583.1166666666668" y="289.60873015873017" type="curve"/>
      <point x="667.1253968253967" y="294.1333333333333" type="line"/>
      <point x="658.2412698412699" y="490.2587301587302"/>
      <point x="525.0333333333334" y="578.1650793650794"/>
      <point x="364.89365079365086" y="578.1650793650794" type="curve" smooth="yes"/>
      <point x="171.49603174603175" y="578.1650793650794"/>
      <point x="50.99761904761905" y="449.684126984127"/>
      <point x="50.99761904761905" y="261.8492063492064" type="curve" smooth="yes"/>
      <point x="50.99761904761905" y="111.85"/>
      <point x="142.1420634920635" y="-4.999999999999999"/>
    </contour>
  </outline>
</glyph>
<glyph name="aaMatra-tamil" format="2">
  <advance width="638.220634920635"/>
  <unicode hex="0BBE"/>
  <note>
uni0BBE
</note>
  <anchor x="335.9079365079365" y="0.0" name="bottom"/>
  <anchor x="334.9079365079365" y="0.0" name="nukta"/>
  <anchor x="328.9079365079365" y="573.2253968253967" name="top"/>
  <anchor x="328.9079365079365" y="573.2253968253967" name="vedic"/>
  <outline>
    <contour>
      <point x="73.16507936507935" y="0.0" type="line"/>
      <point x="147.75873015873015" y="0.0" type="line"/>
      <point x="147.75873015873015" y="506.3309523809524" type="line"/>
      <point x="314.9396825396825" y="506.3309523809524" type="line"/>
      <point x="314.9396825396825" y="0.0" type="line"/>
      <point x="497.14206349206347" y="0.0" type="line"/>
      <point x="497.14206349206347" y="506.3309523809524" type="line"/>
      <point x="623.190476190476" y="506.3309523809524" type="line"/>
      <point x="623.190476190476" y="573.2253968253967" type="line"/>
      <point x="73.16507936507935" y="573.2253968253967" type="line"/>
    </contour>
  </outline>
</glyph>
<glyph name="iMatra-tamil" format="2">
  <advance width="227.83730158730162"/>
  <unicode hex="0BBF"/>
  <note>
uni0BBF
</note>
  <anchor x="-156.6238095238095" y="872.0119047619047" name="top"/>
  <outline>
    <contour>
      <point x="75.74126984126983" y="0.0" type="line"/>
      <point x="151.92301587301586" y="0.0" type="line"/>
      <point x="151.92301587301586" y="565.2468253968253" type="line" smooth="yes"/>
      <point x="151.92301587301586" y="773.9468253968253"/>
      <point x="11.342063492063492" y="872.0119047619047"/>
      <point x="-156.6238095238095" y="872.0119047619047" type="curve" smooth="yes"/>
      <point x="-310.26349206349204" y="872.0119047619047"/>
      <point x="-399.5126984126984" y="785.3142857142857"/>
      <point x="-399.5126984126984" y="675.1928571428572" type="curve" smooth="yes"/>
      <point x="-399.5126984126984" y="574.3277777777778"/>
      <point x="-331.84444444444443" y="513.552380952381"/>
      <point x="-215.77539682539683" y="513.552380952381" type="curve" smooth="yes"/>
      <point x="-213.8103174603175" y="513.552380952381" type="line"/>
      <point x="-213.8103174603175" y="572.8785714285714" type="line"/>
      <point x="-215.77539682539683" y="572.8785714285714" type="line" smooth="yes"/>
      <point x="-264.64444444444445" y="572.8785714285714"/>
      <point x="-304.8150793650794" y="596.1269841269841"/>
      <point x="-304.8150793650794" y="644.1380952380954" type="curve" smooth="yes"/>
      <point x="-304.8150793650794" y="694.4730158730158"/>
      <point x="-253.99206349206352" y="734.826984126984"/>
      <point x="-155.7714285714286" y="734.826984126984" type="curve" smooth="yes"/>
      <point x="-31.97936507936509" y="734.826984126984"/>
      <point x="75.74126984126983" y="670.8579365079364"/>
      <point x="75.74126984126983" y="519.813492063492" type="curve" smooth="yes"/>
    </contour>
  </outline>
</glyph>
<glyph name="iiMatra-tamil" format="2">
  <unicode hex="0BC0"/>
  <note>
uni0BC0
</note>
  <anchor x="0.0" y="573.2253968253967" name="_imatra"/>
  <anchor x="10.043650793650794" y="923.5714285714286" name="top"/>
  <outline>
    <contour>
      <point x="-34.60952380952381" y="506.66269841269843" type="curve" smooth="yes"/>
      <point x="-0.20079365079365083" y="506.66269841269843" type="line"/>
      <point x="-0.20079365079365083" y="573.2253968253967" type="line"/>
      <point x="-30.02142857142857" y="573.2253968253967" type="line" smooth="yes"/>
      <point x="-101.82777777777778" y="573.2253968253967"/>
      <point x="-157.04444444444448" y="617.3412698412698"/>
      <point x="-157.04444444444448" y="704.1547619047619" type="curve" smooth="yes"/>
      <point x="-157.04444444444448" y="791.6015873015872"/>
      <point x="-96.65873015873015" y="852.8880952380952"/>
      <point x="-5.568253968253971" y="852.8880952380952" type="curve" smooth="yes"/>
      <point x="52.44285714285714" y="852.8880952380952"/>
      <point x="89.54682539682538" y="818.326984126984"/>
      <point x="89.54682539682538" y="763.8388888888888" type="curve" smooth="yes"/>
      <point x="89.54682539682538" y="726.0896825396824"/>
      <point x="66.86190476190477" y="697.8777777777779"/>
      <point x="29.13571428571428" y="697.8777777777779" type="curve" smooth="yes"/>
      <point x="-37.11031746031746" y="697.8777777777779"/>
      <point x="-53.352380952380955" y="789.8984126984127"/>
      <point x="-11.586507936507939" y="877.0142857142857" type="curve"/>
      <point x="-64.16111111111111" y="881.5619047619048" type="line"/>
      <point x="-134.29523809523812" y="757.8484126984126"/>
      <point x="-90.47777777777779" y="610.265873015873"/>
      <point x="62.742063492063494" y="610.265873015873" type="curve" smooth="yes"/>
      <point x="150.7904761904762" y="610.265873015873"/>
      <point x="219.9531746031746" y="662.0150793650794"/>
      <point x="219.9531746031746" y="752.3357142857143" type="curve" smooth="yes"/>
      <point x="219.9531746031746" y="857.7039682539682"/>
      <point x="134.34682539682538" y="923.5714285714286"/>
      <point x="10.043650793650794" y="923.5714285714286" type="curve" smooth="yes"/>
      <point x="-135.22698412698412" y="923.5714285714286"/>
      <point x="-230.4579365079365" y="826.6928571428571"/>
      <point x="-230.4579365079365" y="708.2753968253969" type="curve" smooth="yes"/>
      <point x="-230.4579365079365" y="582.5976190476191"/>
      <point x="-156.54126984126984" y="506.66269841269843"/>
    </contour>
  </outline>
</glyph>
<glyph name="uMatra-tamil" format="2">
  <advance width="550.8420634920635"/>
  <unicode hex="0BC1"/>
  <note>
uni0BC1
</note>
  <anchor x="206.84603174603177" y="573.2253968253967" name="top"/>
  <outline>
    <contour>
      <point x="318.4865079365079" y="227.99444444444444" type="curve" smooth="yes"/>
      <point x="434.74444444444435" y="227.99444444444444"/>
      <point x="525.4976190476191" y="291.03015873015875"/>
      <point x="525.4976190476191" y="418.35793650793653" type="curve" smooth="yes"/>
      <point x="525.4976190476191" y="573.2253968253967" type="line"/>
      <point x="-290.02619047619055" y="573.2253968253967" type="line"/>
      <point x="-232.9650793650794" y="506.3309523809524" type="line"/>
      <point x="342.38095238095235" y="506.3309523809524" type="line"/>
      <point x="342.38095238095235" y="398.71587301587306" type="line" smooth="yes"/>
      <point x="342.38095238095235" y="337.97380952380945"/>
      <point x="311.9309523809524" y="310.38968253968255"/>
      <point x="270.4666666666667" y="310.38968253968255" type="curve" smooth="yes"/>
      <point x="224.1515873015873" y="310.38968253968255"/>
      <point x="200.36031746031745" y="344.4166666666667"/>
      <point x="200.36031746031745" y="416.22936507936515" type="curve" smooth="yes"/>
      <point x="200.36031746031745" y="533.1706349206349" type="line"/>
      <point x="127.2134920634921" y="533.1706349206349" type="line"/>
      <point x="127.2134920634921" y="424.931746031746" type="line" smooth="yes"/>
      <point x="127.2134920634921" y="295.4428571428572"/>
      <point x="196.93095238095236" y="227.99444444444444"/>
    </contour>
  </outline>
</glyph>
<glyph name="uuMatra-tamil" format="2">
  <advance width="898.3015873015872"/>
  <unicode hex="0BC2"/>
  <note>
uni0BC2
</note>
  <anchor x="435.2444444444444" y="790.7333333333333" name="top"/>
  <outline>
    <contour>
      <point x="387.62857142857143" y="8.11031746031746" type="curve" smooth="yes"/>
      <point x="632.1499999999999" y="8.11031746031746"/>
      <point x="834.5880952380952" y="143.11349206349203"/>
      <point x="834.5880952380952" y="402.552380952381" type="curve" smooth="yes"/>
      <point x="834.5880952380952" y="648.7309523809523"/>
      <point x="669.970634920635" y="790.7333333333333"/>
      <point x="435.2444444444444" y="790.7333333333333" type="curve" smooth="yes"/>
      <point x="218.0293650793651" y="790.7333333333333"/>
      <point x="114.06428571428572" y="657.4214285714286"/>
      <point x="114.06428571428572" y="528.1658730158731" type="curve" smooth="yes"/>
      <point x="114.06428571428572" y="426.31904761904764" type="line" smooth="yes"/>
      <point x="114.06428571428572" y="295.4428571428571"/>
      <point x="182.45476190476194" y="227.99444444444444"/>
      <point x="304.3571428571429" y="227.99444444444444" type="curve" smooth="yes"/>
      <point x="420.3888888888889" y="227.99444444444444"/>
      <point x="512.0619047619048" y="290.5777777777777"/>
      <point x="512.0619047619048" y="419.7452380952381" type="curve" smooth="yes"/>
      <point x="512.0619047619048" y="573.2253968253967" type="line"/>
      <point x="-307.3079365079366" y="573.2253968253967" type="line"/>
      <point x="-256.98730158730154" y="506.3309523809524" type="line"/>
      <point x="328.5984126984127" y="506.3309523809524" type="line"/>
      <point x="328.5984126984127" y="400.10317460317464" type="line" smooth="yes"/>
      <point x="328.5984126984127" y="337.97380952380945"/>
      <point x="298.67619047619047" y="310.38968253968255"/>
      <point x="257.3777777777778" y="310.38968253968255" type="curve" smooth="yes"/>
      <point x="211.40952380952382" y="310.38968253968255"/>
      <point x="186.92460317460313" y="345.1103174603174"/>
      <point x="186.92460317460313" y="417.61666666666673" type="curve" smooth="yes"/>
      <point x="186.92460317460313" y="528.1658730158731" type="line" smooth="yes"/>
      <point x="186.92460317460313" y="619.3269841269841"/>
      <point x="263.30873015873016" y="710.7738095238095"/>
      <point x="399.7992063492063" y="710.7738095238095" type="curve" smooth="yes"/>
      <point x="566.8769841269841" y="710.7738095238095"/>
      <point x="643.3523809523809" y="596.5015873015873"/>
      <point x="643.3523809523809" y="411.82936507936506" type="curve" smooth="yes"/>
      <point x="643.3523809523809" y="205.20873015873013"/>
      <point x="537.3896825396826" y="86.98412698412699"/>
      <point x="366.34603174603177" y="86.98412698412699" type="curve" smooth="yes"/>
      <point x="245.83492063492065" y="86.98412698412699"/>
      <point x="155.36666666666667" y="127.21269841269842"/>
      <point x="77.77857142857144" y="224.28730158730158" type="curve"/>
      <point x="23.03968253968253" y="175.85634920634922" type="line"/>
      <point x="110.45714285714284" y="68.2531746031746"/>
      <point x="219.01666666666668" y="8.11031746031746"/>
    </contour>
  </outline>
</glyph>
<glyph name="eMatra-tamil" format="2">
  <advance width="831.7380952380952"/>
  <unicode hex="0BC6"/>
  <note>
uni0BC6
</note>
  <outline>
    <contour>
      <point x="331.09761904761905" y="-4.999999999999999" type="curve" smooth="yes"/>
      <point x="456.3992063492064" y="-4.999999999999999"/>
      <point x="534.3349206349206" y="63.73412698412699"/>
      <point x="534.3349206349206" y="172.16507936507938" type="curve" smooth="yes"/>
      <point x="534.3349206349206" y="265.94444444444446"/>
      <point x="474.086507936508" y="340.06984126984133"/>
      <point x="368.40000000000003" y="340.06984126984133" type="curve" smooth="yes"/>
      <point x="244.10873015873017" y="340.06984126984133"/>
      <point x="177.4674603174603" y="239.85396825396828"/>
      <point x="173.76904761904763" y="115.9293650793651" type="curve"/>
      <point x="219.26746031746035" y="89.83412698412698" type="line"/>
      <point x="223.28253968253972" y="179.16587301587302"/>
      <point x="257.502380952381" y="238.34761904761905"/>
      <point x="313.4460317460317" y="238.34761904761905" type="curve" smooth="yes"/>
      <point x="352.815873015873" y="238.34761904761905"/>
      <point x="379.5968253968254" y="206.7642857142857"/>
      <point x="379.5968253968254" y="159.93968253968254" type="curve" smooth="yes"/>
      <point x="379.5968253968254" y="109.86031746031746"/>
      <point x="351.8103174603175" y="73.90873015873017"/>
      <point x="296.9968253968254" y="73.90873015873017" type="curve" smooth="yes"/>
      <point x="207.9261904761905" y="73.90873015873017"/>
      <point x="127.0420634920635" y="192.24761904761903"/>
      <point x="127.0420634920635" y="377.66825396825396" type="curve" smooth="yes"/>
      <point x="127.0420634920635" y="590.2103174603176"/>
      <point x="259.3896825396825" y="715.5976190476191"/>
      <point x="427.4579365079365" y="715.5976190476191" type="curve" smooth="yes"/>
      <point x="572.7095238095238" y="715.5976190476191"/>
      <point x="680.5563492063492" y="642.6388888888888"/>
      <point x="680.5563492063492" y="420.6984126984127" type="curve" smooth="yes"/>
      <point x="680.5563492063492" y="0.0" type="line"/>
      <point x="755.8238095238095" y="0.0" type="line"/>
      <point x="755.8238095238095" y="472.1484126984127" type="line" smooth="yes"/>
      <point x="755.8238095238095" y="735.5738095238096"/>
      <point x="634.9904761904761" y="858.4404761904761"/>
      <point x="432.26666666666665" y="858.4404761904761" type="curve" smooth="yes"/>
      <point x="184.2404761904762" y="858.4404761904761"/>
      <point x="53.59920634920635" y="649.2666666666667"/>
      <point x="53.59920634920635" y="381.9857142857143" type="curve" smooth="yes"/>
      <point x="53.59920634920635" y="155.72142857142856"/>
      <point x="168.0222222222222" y="-4.999999999999999"/>
    </contour>
  </outline>
</glyph>
<glyph name="eeMatra-tamil" format="2">
  <advance width="646.8658730158729"/>
  <unicode hex="0BC7"/>
  <note>
uni0BC7
</note>
  <outline>
    <contour>
      <point x="400.6198412698413" y="-5.0" type="curve" smooth="yes"/>
      <point x="522.4031746031746" y="-5.0"/>
      <point x="605.8785714285714" y="59.05952380952382"/>
      <point x="605.8785714285714" y="172.16507936507938" type="curve" smooth="yes"/>
      <point x="605.8785714285714" y="265.9444444444444"/>
      <point x="545.0626984126984" y="340.0698412698412"/>
      <point x="439.6626984126985" y="340.0698412698412" type="curve" smooth="yes"/>
      <point x="314.18571428571425" y="340.0698412698412"/>
      <point x="246.965873015873" y="234.7420634920635"/>
      <point x="245.96666666666673" y="103.76031746031747" type="curve"/>
      <point x="293.0777777777778" y="77.83095238095238" type="line"/>
      <point x="294.33333333333337" y="173.94841269841268"/>
      <point x="328.90000000000003" y="238.34761904761908"/>
      <point x="384.6428571428571" y="238.34761904761908" type="curve" smooth="yes"/>
      <point x="424.3595238095238" y="238.34761904761908"/>
      <point x="450.79365079365084" y="206.7642857142857"/>
      <point x="450.79365079365084" y="159.93968253968254" type="curve" smooth="yes"/>
      <point x="450.79365079365084" y="105.92460317460318"/>
      <point x="418.5134920634921" y="73.90873015873017"/>
      <point x="365.645238095238" y="73.90873015873017" type="curve" smooth="yes"/>
      <point x="260.54047619047617" y="73.90873015873017"/>
      <point x="126.56904761904764" y="200.13809523809522"/>
      <point x="126.56904761904764" y="426.1269841269841" type="curve" smooth="yes"/>
      <point x="126.56904761904764" y="651.1158730158729"/>
      <point x="260.54047619047617" y="792.4246031746031"/>
      <point x="365.645238095238" y="792.4246031746031" type="curve" smooth="yes"/>
      <point x="418.5134920634921" y="792.4246031746031"/>
      <point x="450.79365079365084" y="760.5547619047619"/>
      <point x="450.79365079365084" y="706.5142857142857" type="curve" smooth="yes"/>
      <point x="450.79365079365084" y="659.5690476190476"/>
      <point x="424.3595238095238" y="627.7849206349206"/>
      <point x="384.6428571428571" y="627.7849206349206" type="curve" smooth="yes"/>
      <point x="328.90000000000003" y="627.7849206349206"/>
      <point x="294.33333333333337" y="692.5658730158731"/>
      <point x="293.0777777777778" y="788.954761904762" type="curve"/>
      <point x="245.96666666666673" y="762.8595238095237" type="line"/>
      <point x="246.965873015873" y="631.8777777777777"/>
      <point x="314.18571428571425" y="526.2634920634922"/>
      <point x="439.6626984126985" y="526.2634920634922" type="curve" smooth="yes"/>
      <point x="545.0626984126984" y="526.2634920634922"/>
      <point x="605.8785714285714" y="600.5095238095239"/>
      <point x="605.8785714285714" y="694.168253968254" type="curve" smooth="yes"/>
      <point x="605.8785714285714" y="807.2738095238095"/>
      <point x="522.4031746031746" y="871.3333333333334"/>
      <point x="400.6198412698413" y="871.3333333333334" type="curve" smooth="yes"/>
      <point x="216.03888888888886" y="871.3333333333334"/>
      <point x="54.16666666666667" y="688.6420634920635"/>
      <point x="54.16666666666667" y="426.63968253968255" type="curve" smooth="yes"/>
      <point x="54.16666666666667" y="163.83809523809526"/>
      <point x="216.03888888888886" y="-5.0"/>
    </contour>
  </outline>
</glyph>
<glyph name="aiMatra-tamil" format="2">
  <advance width="1336.0857142857142"/>
  <unicode hex="0BC8"/>
  <note>
uni0BC8
</note>
  <outline>
    <contour>
      <point x="1057.2079365079362" y="-17.64920634920635" type="line"/>
      <point x="1193.6730158730159" y="30.11507936507936"/>
      <point x="1288.340476190476" y="116.52619047619046"/>
      <point x="1288.340476190476" y="271.02777777777777" type="curve" smooth="yes"/>
      <point x="1288.340476190476" y="467.4507936507937"/>
      <point x="1122.1063492063493" y="578.4261904761904"/>
      <point x="923.4833333333333" y="578.4261904761904" type="curve" smooth="yes"/>
      <point x="705.2888888888889" y="578.4261904761904"/>
      <point x="550.784126984127" y="403.4166666666667"/>
      <point x="550.784126984127" y="207.5063492063492" type="curve" smooth="yes"/>
      <point x="550.784126984127" y="81.7904761904762"/>
      <point x="608.3952380952381" y="-4.573015873015874"/>
      <point x="733.6603174603174" y="-4.573015873015874" type="curve" smooth="yes"/>
      <point x="856.1714285714287" y="-4.573015873015874"/>
      <point x="930.9880952380953" y="78.28253968253968"/>
      <point x="930.9880952380953" y="209.63650793650794" type="curve" smooth="yes"/>
      <point x="930.9880952380953" y="436.6484126984127"/>
      <point x="721.0357142857142" y="578.4865079365079"/>
      <point x="452.46507936507936" y="578.4865079365079" type="curve" smooth="yes"/>
      <point x="222.6865079365079" y="578.4865079365079"/>
      <point x="48.03174603174603" y="453.2698412698413"/>
      <point x="48.03174603174603" y="250.96190476190478" type="curve" smooth="yes"/>
      <point x="48.03174603174603" y="102.96825396825398"/>
      <point x="140.44285714285715" y="-5.2865079365079355"/>
      <point x="280.5523809523809" y="-5.2865079365079355" type="curve" smooth="yes"/>
      <point x="406.38174603174605" y="-5.2865079365079355"/>
      <point x="483.44285714285706" y="64.8952380952381"/>
      <point x="483.44285714285706" y="173.4468253968254" type="curve" smooth="yes"/>
      <point x="483.44285714285706" y="264.76825396825404"/>
      <point x="423.5412698412698" y="336.99365079365083"/>
      <point x="317.9753968253969" y="336.99365079365083" type="curve" smooth="yes"/>
      <point x="193.62380952380954" y="336.99365079365083"/>
      <point x="125.30873015873017" y="235.55634920634924"/>
      <point x="125.0484126984127" y="115.35634920634921" type="curve"/>
      <point x="170.66746031746035" y="89.42698412698412" type="line"/>
      <point x="174.6825396825397" y="178.71349206349205"/>
      <point x="208.73650793650793" y="235.55793650793652"/>
      <point x="262.3880952380952" y="235.55793650793652" type="curve" smooth="yes"/>
      <point x="301.9238095238095" y="235.55793650793652"/>
      <point x="328.5388888888889" y="203.85396825396825"/>
      <point x="328.5388888888889" y="159.20079365079366" type="curve" smooth="yes"/>
      <point x="328.5388888888889" y="109.28730158730158"/>
      <point x="300.752380952381" y="73.62222222222223"/>
      <point x="245.93888888888887" y="73.62222222222223" type="curve" smooth="yes"/>
      <point x="178.62777777777777" y="73.62222222222223"/>
      <point x="119.59444444444445" y="138.97698412698415"/>
      <point x="119.59444444444445" y="250.08253968253968" type="curve" smooth="yes"/>
      <point x="119.59444444444445" y="411.48650793650796"/>
      <point x="260.29761904761904" y="508.15555555555557"/>
      <point x="432.7920634920635" y="508.15555555555557" type="curve" smooth="yes"/>
      <point x="634.3928571428572" y="508.15555555555557"/>
      <point x="771.4888888888888" y="385.7650793650794"/>
      <point x="771.4888888888888" y="196.93412698412698" type="curve" smooth="yes"/>
      <point x="771.4888888888888" y="122.3793650793651"/>
      <point x="745.1849206349208" y="77.41666666666667"/>
      <point x="696.5134920634919" y="77.41666666666667" type="curve" smooth="yes"/>
      <point x="651.1031746031746" y="77.41666666666667"/>
      <point x="622.0309523809524" y="123.23333333333332"/>
      <point x="622.0309523809524" y="202.7634920634921" type="curve" smooth="yes"/>
      <point x="622.0309523809524" y="373.10317460317464"/>
      <point x="743.7817460317459" y="508.09523809523813"/>
      <point x="900.1111111111112" y="508.09523809523813" type="curve" smooth="yes"/>
      <point x="1042.5920634920633" y="508.09523809523813"/>
      <point x="1129.0674603174602" y="419.79523809523806"/>
      <point x="1129.0674603174602" y="270.71746031746034" type="curve" smooth="yes"/>
      <point x="1129.0674603174602" y="162.14523809523808"/>
      <point x="1091.3912698412698" y="90.46111111111111"/>
      <point x="1025.5246031746033" y="30.97857142857143" type="curve"/>
    </contour>
  </outline>
</glyph>
<glyph name="halant-tamil" format="2">
  <unicode hex="0BCD"/>
  <note>
uni0BCD
</note>
  <anchor x="0.0" y="573.2253968253967" name="_top"/>
  <outline>
    <contour>
      <point x="0.0" y="643.4944444444445" type="curve" smooth="yes"/>
      <point x="50.553174603174604" y="643.4944444444445"/>
      <point x="92.69920634920635" y="684.0674603174605"/>
      <point x="92.69920634920635" y="732.8015873015872" type="curve" smooth="yes"/>
      <point x="92.69920634920635" y="780.9373015873016"/>
      <point x="50.89999999999999" y="821.8571428571429"/>
      <point x="0.5476190476190478" y="821.8571428571429" type="curve" smooth="yes"/>
      <point x="-50.553174603174604" y="821.8571428571429"/>
      <point x="-91.98571428571428" y="780.9373015873016"/>
      <point x="-91.98571428571428" y="732.8015873015872" type="curve" smooth="yes"/>
      <point x="-91.98571428571428" y="684.0674603174605"/>
      <point x="-50.89999999999999" y="643.4944444444445"/>
    </contour>
  </outline>
</glyph>
<glyph name="om-tamil" format="2">
  <advance width="1054.5563492063495"/>
  <unicode hex="0BD0"/>
  <note>
uni0BD0
</note>
  <outline>
    <contour>
      <point x="364.781746031746" y="-398.1071428571429" type="curve" smooth="yes"/>
      <point x="669.7285714285714" y="-398.1071428571429"/>
      <point x="666.2984126984126" y="-166.86666666666667"/>
      <point x="824.9587301587302" y="-166.86666666666667" type="curve" smooth="yes"/>
      <point x="882.8198412698413" y="-166.86666666666667" type="line"/>
      <point x="882.8198412698413" y="-99.0873015873016" type="line"/>
      <point x="792.131746031746" y="-99.0873015873016" type="line" smooth="yes"/>
      <point x="611.3523809523809" y="-99.0873015873016"/>
      <point x="531.4833333333333" y="77.6531746031746"/>
      <point x="627.0460317460318" y="229.36904761904762" type="curve"/>
      <point x="633.3325396825397" y="225.73571428571427" type="line"/>
      <point x="602.686507936508" y="111.66746031746032"/>
      <point x="642.1642857142857" y="0.9055555555555538"/>
      <point x="799.0698412698413" y="0.9055555555555538" type="curve" smooth="yes"/>
      <point x="920.3571428571429" y="0.9055555555555538"/>
      <point x="1006.8111111111111" y="76.1690476190476"/>
      <point x="1006.8111111111111" y="209.2436507936508" type="curve" smooth="yes"/>
      <point x="1006.8111111111111" y="452.51349206349204"/>
      <point x="774.0642857142857" y="579.1198412698412"/>
      <point x="492.3420634920635" y="579.1198412698412" type="curve" smooth="yes"/>
      <point x="238.1888888888889" y="579.1198412698412"/>
      <point x="48.03174603174603" y="443.25158730158734"/>
      <point x="48.03174603174603" y="253.40238095238098" type="curve" smooth="yes"/>
      <point x="48.03174603174603" y="111.56904761904761"/>
      <point x="136.86904761904762" y="8.09126984126984"/>
      <point x="279.87380952380954" y="8.09126984126984" type="curve" smooth="yes"/>
      <point x="406.4571428571429" y="8.09126984126984"/>
      <point x="479.88412698412696" y="82.55555555555557"/>
      <point x="479.88412698412696" y="182.6174603174603" type="curve" smooth="yes"/>
      <point x="479.88412698412696" y="277.8396825396826"/>
      <point x="418.9420634920635" y="349.57222222222225"/>
      <point x="316.0753968253968" y="349.57222222222225" type="curve" smooth="yes"/>
      <point x="195.01111111111112" y="349.57222222222225"/>
      <point x="127.615873015873" y="250.11031746031748"/>
      <point x="120.79603174603173" y="125.47222222222223" type="curve"/>
      <point x="166.12857142857143" y="97.2531746031746" type="line"/>
      <point x="170.1436507936508" y="189.281746031746"/>
      <point x="207.36428571428576" y="247.50317460317459"/>
      <point x="261.18174603174606" y="247.50317460317459" type="curve" smooth="yes"/>
      <point x="300.44603174603174" y="247.50317460317459"/>
      <point x="326.2468253968254" y="214.84444444444443"/>
      <point x="326.2468253968254" y="170.96507936507936" type="curve" smooth="yes"/>
      <point x="326.2468253968254" y="122.25793650793652"/>
      <point x="299.5007936507937" y="86.79920634920637"/>
      <point x="246.30079365079362" y="86.79920634920637" type="curve" smooth="yes"/>
      <point x="178.4015873015873" y="86.79920634920637"/>
      <point x="119.24761904761905" y="149.3015873015873"/>
      <point x="119.24761904761905" y="251.4825396825397" type="curve" smooth="yes"/>
      <point x="119.24761904761905" y="414.1396825396826"/>
      <point x="295.1166666666667" y="512.7492063492064"/>
      <point x="485.9690476190476" y="512.7492063492064" type="curve" smooth="yes"/>
      <point x="678.6150793650794" y="512.7492063492064"/>
      <point x="835.5325396825398" y="417.7404761904762"/>
      <point x="835.5325396825398" y="230.7920634920635" type="curve" smooth="yes"/>
      <point x="835.5325396825398" y="134.84761904761905"/>
      <point x="802.9690476190477" y="84.3111111111111"/>
      <point x="747.8492063492063" y="84.3111111111111" type="curve" smooth="yes"/>
      <point x="682.7238095238096" y="84.3111111111111"/>
      <point x="658.5373015873015" y="177.25238095238097"/>
      <point x="708.8174603174604" y="280.1436507936508" type="curve"/>
      <point x="631.2063492063493" y="327.11031746031745" type="line"/>
      <point x="467.7952380952381" y="154.2452380952381"/>
      <point x="503.6904761904762" y="-53.8468253968254"/>
      <point x="661.0809523809523" y="-125.54444444444445" type="curve"/>
      <point x="661.0809523809523" y="-130.54444444444445" type="line"/>
      <point x="533.7031746031747" y="-146.08809523809524"/>
      <point x="542.5238095238095" y="-324.3380952380952"/>
      <point x="323.15555555555557" y="-324.3380952380952" type="curve" smooth="yes"/>
      <point x="195.49047619047622" y="-324.3380952380952"/>
      <point x="134.04761904761904" y="-250.83492063492062"/>
      <point x="153.90873015873015" y="-156.44603174603176" type="curve"/>
      <point x="90.10873015873014" y="-142.97777777777782" type="line"/>
      <point x="62.56349206349207" y="-284.7753968253968"/>
      <point x="163.51904761904763" y="-398.1071428571429"/>
    </contour>
    <contour>
      <point x="212.1261904761905" y="-258.3873015873016" type="line"/>
      <point x="265.63888888888886" y="-258.3873015873016" type="line"/>
      <point x="265.63888888888886" y="-101.71904761904763" type="line"/>
      <point x="212.1261904761905" y="-101.71904761904763" type="line"/>
    </contour>
    <contour>
      <point x="230.92063492063497" y="-258.3873015873016" type="line"/>
      <point x="438.58333333333337" y="-258.3873015873016" type="line"/>
      <point x="438.58333333333337" y="-210.66904761904763" type="line"/>
      <point x="230.92063492063497" y="-210.66904761904763" type="line"/>
    </contour>
    <contour>
      <point x="311.70396825396824" y="-258.3873015873016" type="line"/>
      <point x="363.2365079365079" y="-258.3873015873016" type="line"/>
      <point x="363.2365079365079" y="-168.7206349206349" type="line" smooth="yes"/>
      <point x="363.2365079365079" y="-155.30793650793652"/>
      <point x="371.0563492063491" y="-144.54285714285714"/>
      <point x="385.2944444444444" y="-144.54285714285714" type="curve" smooth="yes"/>
      <point x="401.28095238095233" y="-144.54285714285714"/>
      <point x="408.44761904761907" y="-155.30793650793652"/>
      <point x="408.44761904761907" y="-168.7206349206349" type="curve" smooth="yes"/>
      <point x="408.44761904761907" y="-258.3873015873016" type="line"/>
      <point x="462.2119047619047" y="-258.3873015873016" type="line"/>
      <point x="462.2119047619047" y="-176.0222222222222" type="line" smooth="yes"/>
      <point x="462.2119047619047" y="-119.26666666666668"/>
      <point x="425.084126984127" y="-99.37222222222222"/>
      <point x="385.2944444444444" y="-99.37222222222222" type="curve" smooth="yes"/>
      <point x="346.19841269841277" y="-99.37222222222222"/>
      <point x="311.70396825396824" y="-119.26666666666668"/>
      <point x="311.70396825396824" y="-176.0222222222222" type="curve" smooth="yes"/>
    </contour>
    <contour>
      <point x="338.95476190476194" y="-82.9357142857143" type="curve" smooth="yes"/>
      <point x="357.74920634920636" y="-82.9357142857143"/>
      <point x="373.2166666666667" y="-67.63412698412698"/>
      <point x="373.2166666666667" y="-50.307142857142864" type="curve" smooth="yes"/>
      <point x="373.2166666666667" y="-32.32698412698413"/>
      <point x="357.74920634920636" y="-17.165873015873018"/>
      <point x="338.95476190476194" y="-17.165873015873018" type="curve" smooth="yes"/>
      <point x="319.8539682539682" y="-17.165873015873018"/>
      <point x="304.72777777777776" y="-32.32698412698413"/>
      <point x="304.72777777777776" y="-50.307142857142864" type="curve" smooth="yes"/>
      <point x="304.72777777777776" y="-67.63412698412698"/>
      <point x="319.8539682539682" y="-82.9357142857143"/>
    </contour>
  </outline>
</glyph>
